<svg width="20" height="20" viewBox="0 0 20 20" fill="none" xmlns="http://www.w3.org/2000/svg">
<g id="bell 1" clip-path="url(#clip0_225_21)">
<path id="Vector" d="M3.39002 15H16.4367C16.8382 15 17.2338 14.9033 17.5901 14.7181C17.9463 14.5328 18.2527 14.2645 18.4833 13.9358C18.7139 13.6071 18.862 13.2277 18.9149 12.8297C18.9679 12.4316 18.9242 12.0267 18.7875 11.6492L16.4109 5.07833C16.005 3.61809 15.1319 2.33099 13.9253 1.41389C12.7186 0.496791 11.2448 0.000176732 9.72919 8.47759e-10C8.15146 -2.46602e-05 6.62089 0.53799 5.3902 1.52521C4.1595 2.51244 3.30226 3.88984 2.96002 5.43L1.00169 11.7633C0.886386 12.1372 0.860465 12.533 0.92601 12.9188C0.991554 13.3045 1.14673 13.6695 1.37906 13.9844C1.61139 14.2992 1.91438 14.5551 2.26365 14.7315C2.61293 14.9079 2.99873 14.9999 3.39002 15Z" fill="#EFEFEF"/>
<path id="Vector_2" d="M5.91669 16.6666C6.10795 17.6085 6.61896 18.4554 7.36314 19.0636C8.10732 19.6719 9.03889 20.0041 10 20.0041C10.9612 20.0041 11.8927 19.6719 12.6369 19.0636C13.3811 18.4554 13.8921 17.6085 14.0834 16.6666H5.91669Z" fill="#EFEFEF"/>
</g>
<defs>
<clipPath id="clip0_225_21">
<rect width="20" height="20" fill="white"/>
</clipPath>
</defs>
</svg>
