<svg width="20" height="20" viewBox="0 0 20 20" fill="none" xmlns="http://www.w3.org/2000/svg">
<g id="puzzle-piece (1) 1" clip-path="url(#clip0_225_422)">
<path id="Vector" d="M16.6667 8.75C16.1049 8.76948 15.5465 8.8457 15 8.9775C14.9501 7.90597 14.4893 6.89484 13.7134 6.15415C12.9375 5.41346 11.906 5.00012 10.8333 5H10.6067C10.7386 4.45359 10.8146 3.89515 10.8333 3.33333C10.8333 2.44928 10.4821 1.60143 9.85702 0.976311C9.2319 0.35119 8.38406 0 7.5 0C6.61594 0 5.7681 0.35119 5.14298 0.976311C4.51786 1.60143 4.16667 2.44928 4.16667 3.33333C4.18541 3.89515 4.26136 4.45359 4.39333 5H4.16667C3.0616 5 2.00179 5.43899 1.22039 6.22039C0.438987 7.00179 0 8.0616 0 9.16667L0 15.8333C0 16.3805 0.107774 16.9223 0.317169 17.4278C0.526563 17.9334 0.833478 18.3927 1.22039 18.7796C2.00179 19.561 3.0616 20 4.16667 20H5.18667C5.2858 20.0004 5.38369 19.9779 5.47269 19.9342C5.56169 19.8906 5.63939 19.8269 5.69974 19.7483C5.76008 19.6696 5.80143 19.5781 5.82055 19.4808C5.83968 19.3835 5.83607 19.2831 5.81 19.1875C5.51917 18.1383 5 17.5 5 16.6667C5 16.0036 5.26339 15.3677 5.73223 14.8989C6.20107 14.4301 6.83696 14.1667 7.5 14.1667C8.16304 14.1667 8.79893 14.4301 9.26777 14.8989C9.73661 15.3677 10 16.0036 10 16.6667C10 17.5 9.47333 18.14 9.18917 19.1908C9.16371 19.2863 9.16056 19.3863 9.17997 19.4831C9.19939 19.58 9.24084 19.671 9.30111 19.7493C9.36138 19.8275 9.43886 19.8908 9.52755 19.9343C9.61623 19.9778 9.71373 20.0003 9.8125 20H10.8333C11.3805 20 11.9223 19.8922 12.4278 19.6828C12.9334 19.4734 13.3927 19.1665 13.7796 18.7796C14.1665 18.3927 14.4734 17.9334 14.6828 17.4278C14.8922 16.9223 15 16.3805 15 15.8333V15.19C15.5465 15.3215 16.1049 15.3974 16.6667 15.4167C17.5507 15.4167 18.3986 15.0655 19.0237 14.4404C19.6488 13.8152 20 12.9674 20 12.0833C20 11.1993 19.6488 10.3514 19.0237 9.72631C18.3986 9.10119 17.5507 8.75 16.6667 8.75Z" fill="#EFEFEF"/>
</g>
<defs>
<clipPath id="clip0_225_422">
<rect width="20" height="20" fill="white"/>
</clipPath>
</defs>
</svg>
