<svg width="20" height="20" viewBox="0 0 20 20" fill="none" xmlns="http://www.w3.org/2000/svg">
<g clip-path="url(#clip0_225_427)">
<path d="M20 7.06673V16.6667C20 16.8877 19.9122 17.0997 19.7559 17.256C19.5996 17.4123 19.3877 17.5001 19.1667 17.5001C18.9456 17.5001 18.7337 17.4123 18.5774 17.256C18.4211 17.0997 18.3333 16.8877 18.3333 16.6667V9.7934L12.1667 12.7401C11.5164 13.1239 10.7742 13.3238 10.0192 13.3184C9.22736 13.3196 8.44996 13.1068 7.76915 12.7026L1.61915 9.77507C1.13572 9.51511 0.730662 9.13052 0.446005 8.6612C0.161347 8.19188 0.00746378 7.65495 0.000321506 7.1061C-0.00682076 6.55725 0.133038 6.01648 0.405387 5.53992C0.677735 5.06336 1.07265 4.66836 1.54915 4.3959C1.57165 4.38257 1.59582 4.37007 1.61915 4.3584L7.83332 1.3934C8.50421 1.00812 9.26562 0.808509 10.0392 0.815099C10.8129 0.82169 11.5708 1.03425 12.235 1.4309L18.3808 4.3584C18.8658 4.62672 19.271 5.01864 19.5554 5.49434C19.8398 5.97004 19.9932 6.51255 20 7.06673ZM10.0183 14.9834C8.95214 14.9858 7.90426 14.7063 6.98082 14.1734L3.33332 12.4326V14.6826C3.33382 15.5722 3.61862 16.4383 4.14618 17.1546C4.67373 17.8709 5.41641 18.3999 6.26582 18.6642C7.47943 19.0127 8.73744 19.182 9.99999 19.1667C11.2627 19.1809 12.5207 19.0105 13.7342 18.6609C14.5836 18.3965 15.3262 17.8676 15.8538 17.1513C16.3814 16.435 16.6662 15.5688 16.6667 14.6792V12.4367L12.9508 14.2117C12.0589 14.7242 11.047 14.991 10.0183 14.9851V14.9834Z" fill="#EFEFEF"/>
</g>
<defs>
<clipPath id="clip0_225_427">
<rect width="20" height="20" fill="white"/>
</clipPath>
</defs>
</svg>
