<svg width="20" height="20" viewBox="0 0 20 20" fill="none" xmlns="http://www.w3.org/2000/svg">
<g id="film 1" clip-path="url(#clip0_225_447)">
<path id="Vector" d="M15.8758 0H4.20915C3.10448 0.00132321 2.04545 0.440735 1.26433 1.22185C0.483215 2.00296 0.0438037 3.062 0.0424805 4.16667V15.8333C0.0438037 16.938 0.483215 17.997 1.26433 18.7782C2.04545 19.5593 3.10448 19.9987 4.20915 20H15.8758C16.9805 19.9987 18.0395 19.5593 18.8206 18.7782C19.6017 17.997 20.0412 16.938 20.0425 15.8333V4.16667C20.0412 3.062 19.6017 2.00296 18.8206 1.22185C18.0395 0.440735 16.9805 0.00132321 15.8758 0ZM16.7091 9.16667H18.3758V10.8333H16.7091V9.16667ZM16.7091 7.5V5.83333H18.3758V7.5H16.7091ZM3.37581 10.8333H1.70915V9.16667H3.37581V10.8333ZM4.99998 10.8333V9.16667H15V10.8333H4.99998ZM3.37581 7.5H1.70915V5.83333H3.37581V7.5ZM1.70915 12.5H3.37581V14.1667H1.70915V12.5ZM16.7091 12.5H18.3758V14.1667H16.7091V12.5ZM18.3758 4.16667H16.7091V1.82C17.1949 1.99174 17.6157 2.30936 17.9141 2.72942C18.2124 3.14948 18.3737 3.65145 18.3758 4.16667ZM3.37581 1.82V4.16667H1.70915C1.71128 3.65145 1.87255 3.14948 2.17089 2.72942C2.46922 2.30936 2.89006 1.99174 3.37581 1.82ZM1.70915 15.8333H3.37581V18.18C2.89006 18.0083 2.46922 17.6906 2.17089 17.2706C1.87255 16.8505 1.71128 16.3486 1.70915 15.8333ZM16.7091 18.18V15.8333H18.3758C18.3737 16.3486 18.2124 16.8505 17.9141 17.2706C17.6157 17.6906 17.1949 18.0083 16.7091 18.18Z" fill="#EFEFEF"/>
</g>
<defs>
<clipPath id="clip0_225_447">
<rect width="20" height="20" fill="white"/>
</clipPath>
</defs>
</svg>
