<svg width="20" height="20" viewBox="0 0 20 20" fill="none" xmlns="http://www.w3.org/2000/svg">
<g clip-path="url(#clip0_225_435)">
<path d="M20 9.58335C19.9996 9.00866 19.8294 8.44691 19.5107 7.96863C19.1921 7.49035 18.7393 7.11684 18.2092 6.89501C17.8708 4.96365 16.8623 3.21344 15.361 1.95224C13.8596 0.69104 11.9616 -0.000366211 10.0009 -0.000366211C8.04007 -0.000366211 6.14209 0.69104 4.64074 1.95224C3.1394 3.21344 2.13086 4.96365 1.79252 6.89501C1.18752 7.14954 0.68606 7.60069 0.369223 8.17552C0.0523866 8.75034 -0.0613026 9.41523 0.0465396 10.0627C0.154382 10.7101 0.477451 11.3022 0.963505 11.7433C1.44956 12.1844 2.07018 12.4487 2.72502 12.4933C3.15543 13.4067 3.73915 14.2396 4.45085 14.9558C3.40801 16.0945 2.74618 17.53 2.55752 19.0625C2.54275 19.1797 2.55308 19.2988 2.58781 19.4117C2.62255 19.5246 2.6809 19.6289 2.759 19.7175C2.83709 19.8062 2.93315 19.8772 3.04079 19.9259C3.14843 19.9746 3.2652 19.9999 3.38335 20H16.5992C16.7173 20 16.8341 19.9748 16.9418 19.9262C17.0495 19.8776 17.1456 19.8067 17.2238 19.7181C17.3019 19.6295 17.3604 19.5253 17.3952 19.4125C17.4301 19.2996 17.4405 19.1806 17.4259 19.0633C17.2385 17.5347 16.58 16.1024 15.5417 14.965C16.2573 14.2466 16.8442 13.4105 17.2767 12.4933C18.0151 12.4443 18.7073 12.1164 19.2129 11.5761C19.7186 11.0357 20 10.3234 20 9.58335ZM16.8734 10.8108C16.679 10.7752 16.4783 10.8104 16.3076 10.9099C16.1368 11.0094 16.0073 11.1667 15.9425 11.3533C15.1792 13.5183 12.6084 15.8333 10 15.8333C7.39168 15.8333 4.82085 13.5167 4.05752 11.3517C3.99255 11.1651 3.86304 11.0079 3.69235 10.9084C3.52166 10.8089 3.32104 10.7737 3.12668 10.8092C3.05743 10.8228 2.98721 10.8308 2.91668 10.8333C2.60734 10.8297 2.31036 10.7114 2.08317 10.5014C1.85599 10.2914 1.71474 10.0046 1.68675 9.69653C1.65876 9.38843 1.74601 9.0809 1.93164 8.83341C2.11726 8.58593 2.38807 8.41606 2.69168 8.35668C2.86886 8.32456 3.03087 8.23592 3.15346 8.10402C3.27604 7.97212 3.3526 7.80407 3.37168 7.62501C3.49278 6.46833 3.91562 5.36376 4.59789 4.4219C5.28015 3.48005 6.19788 2.73396 7.25919 2.25835C7.08365 2.70487 7.01988 3.18752 7.0734 3.66431C7.12692 4.1411 7.29613 4.5976 7.56629 4.99409C7.83646 5.39058 8.1994 5.71506 8.62356 5.93931C9.04771 6.16356 9.52023 6.28078 10 6.28078C10.4798 6.28078 10.9523 6.16356 11.3765 5.93931C11.8006 5.71506 12.1636 5.39058 12.4337 4.99409C12.7039 4.5976 12.8731 4.1411 12.9266 3.66431C12.9802 3.18752 12.9164 2.70487 12.7409 2.25835C13.8022 2.73396 14.7199 3.48005 15.4021 4.4219C16.0844 5.36376 16.5073 6.46833 16.6284 7.62501C16.6474 7.80407 16.724 7.97212 16.8466 8.10402C16.9692 8.23592 17.1312 8.32456 17.3084 8.35668C17.612 8.41606 17.8828 8.58593 18.0684 8.83341C18.254 9.0809 18.3413 9.38843 18.3133 9.69653C18.2853 10.0046 18.1441 10.2914 17.9169 10.5014C17.6897 10.7114 17.3927 10.8297 17.0834 10.8333C17.0129 10.8314 16.9426 10.8239 16.8734 10.8108Z" fill="#EFEFEF"/>
</g>
<defs>
<clipPath id="clip0_225_435">
<rect width="20" height="20" fill="white"/>
</clipPath>
</defs>
</svg>
