<svg width="22" height="22" viewBox="0 0 22 22" fill="none" xmlns="http://www.w3.org/2000/svg">
<g clip-path="url(#clip0_225_431)">
<path d="M11 14.6665C9.54963 14.6665 8.1318 14.2365 6.92584 13.4307C5.71988 12.6249 4.77995 11.4796 4.22491 10.1396C3.66986 8.79957 3.52464 7.32508 3.8076 5.90255C4.09056 4.48003 4.78899 3.17335 5.81457 2.14777C6.84016 1.12218 8.14683 0.423747 9.56936 0.140789C10.9919 -0.142169 12.4664 0.00305532 13.8064 0.558098C15.1464 1.11314 16.2917 2.05307 17.0975 3.25903C17.9033 4.46499 18.3334 5.88282 18.3334 7.33322C18.3312 9.27747 17.5579 11.1415 16.1831 12.5163C14.8083 13.891 12.9443 14.6644 11 14.6665ZM11 16.4999C9.01453 16.5 7.0833 15.8518 5.50002 14.6537V19.7082C5.50002 20.1399 5.62195 20.5628 5.85178 20.9283C6.08161 21.2937 6.40998 21.5868 6.79909 21.7738C7.18819 21.9608 7.6222 22.0341 8.05113 21.9852C8.48006 21.9363 8.88646 21.7673 9.22352 21.4975L11 20.0749L12.7765 21.4957C13.1135 21.7653 13.5197 21.9344 13.9485 21.9833C14.3772 22.0322 14.8111 21.9591 15.2001 21.7724C15.5892 21.5856 15.9176 21.2928 16.1475 20.9276C16.3775 20.5624 16.4997 20.1398 16.5 19.7082V14.6537C14.9167 15.8518 12.9855 16.5 11 16.4999Z" fill="#EFEFEF"/>
</g>
<defs>
<clipPath id="clip0_225_431">
<rect width="22" height="22" fill="white"/>
</clipPath>
</defs>
</svg>
