<svg width="261" height="219" viewBox="0 0 261 219" fill="none" xmlns="http://www.w3.org/2000/svg">
<path d="M173.931 96.6677C198.223 96.6677 217.917 76.9852 217.917 52.7057C217.917 28.4262 198.223 8.74381 173.931 8.74381C149.638 8.74381 129.945 28.4262 129.945 52.7057C129.945 76.9852 149.638 96.6677 173.931 96.6677Z" fill="#6BCCE3"/>
<path d="M173.919 97.4426C154.478 97.4426 137.374 85.0092 131.368 66.5154C123.742 43.0598 136.633 17.7768 160.113 10.1548C164.615 8.69755 169.267 7.95733 173.942 7.95733C193.383 7.95733 210.487 20.3791 216.493 38.8845C224.119 62.3401 211.228 87.6231 187.748 95.245C183.246 96.7023 178.594 97.4426 173.919 97.4426ZM173.931 9.49559C169.406 9.49559 164.916 10.2127 160.576 11.6237C137.906 18.9796 125.455 43.3952 132.814 66.0528C138.624 83.9221 155.137 95.9159 173.919 95.9159C178.444 95.9159 182.934 95.1988 187.273 93.7878C209.943 86.4319 222.395 62.0163 215.035 39.3587C209.226 21.4894 192.712 9.49559 173.931 9.49559Z" fill="#1A2D59"/>
<path d="M136.332 37.0108C135.58 40.4228 134.84 43.8463 134.087 47.2582C136.17 43.4183 140.903 41.8222 145.255 41.5215C149.617 41.2092 154.061 41.8454 158.331 40.9548C167.184 39.0927 173.803 31.0544 182.691 29.3658C185.653 28.799 188.87 28.9494 191.474 27.4227C193.476 26.243 194.818 24.2421 196.415 22.565C198.024 20.888 200.246 19.4307 202.526 19.8933C197.978 16.4583 192.782 13.8791 187.297 12.3177C188.581 12.3177 189.136 14.2145 188.373 15.2554C187.609 16.2848 186.162 16.5508 184.878 16.493C183.593 16.4351 182.286 16.1575 181.036 16.4236C177.541 17.1638 176.268 21.42 173.664 23.872C170.274 27.0526 164.951 26.8675 160.842 29.0419C158.817 30.106 157.128 31.7252 155.126 32.8355C152.615 34.2119 149.733 34.7208 146.909 35.2066C143.38 35.8195 139.839 36.421 136.309 37.034L136.332 37.0108Z" fill="white"/>
<path d="M207.664 24.8204C206.9 27.5152 205.824 30.5571 203.22 31.5749C200.72 32.558 197.688 31.2626 195.281 32.4539C192.851 33.6683 192.03 36.953 189.611 38.1905C187.864 39.0927 185.757 38.6763 183.802 38.8498C180.608 39.1274 177.796 40.9779 174.995 42.5393C168.063 46.4023 160.322 48.7965 152.418 49.5135C149.351 49.7911 146.111 49.8721 143.472 51.4682C141.771 52.4975 140.475 54.0821 138.809 55.1577C137.142 56.2449 134.782 56.7075 133.266 55.4237C133.405 58.454 133.555 61.4727 133.706 64.5029C134.735 61.5189 138.358 60.3855 141.505 60.1426C144.653 59.8997 148.113 60.0269 150.601 58.0839C152.406 56.6844 153.39 54.4175 155.218 53.0527C159.882 49.5945 167.288 53.5847 172.033 50.2306C173.155 49.4326 174 48.2876 175.111 47.4664C177.437 45.7315 180.55 45.6505 183.443 45.4192C193.893 44.6096 204.123 41.0936 212.871 35.2991C211.135 31.7946 209.399 28.2901 207.664 24.7857V24.8204Z" fill="white"/>
<path d="M151.052 87.253C152.221 84.8242 154.674 83.2281 157.243 82.3954C159.812 81.5626 162.532 81.3891 165.217 81.0768C172.646 80.2094 179.925 78.2432 186.845 75.4327C193.893 72.5644 200.547 68.8401 207.178 65.1275C209.723 63.7049 212.35 62.2013 214.028 59.8187C215.868 57.2049 216.32 53.8045 215.903 50.6354C215.486 47.4664 214.26 44.4708 212.998 41.5331C211.448 44.3667 208.323 45.986 205.199 46.7956C202.074 47.6167 198.811 47.8018 195.698 48.6577C188.188 50.728 182.158 56.4993 174.717 58.7547C170.112 60.1426 165.182 60.131 160.553 61.4264C156.225 62.6408 152.314 64.9656 148.194 66.7583C144.074 68.551 139.48 69.8232 135.106 68.7823C137.177 76.8322 144.352 82.3607 151.064 87.253H151.052Z" fill="#1A2D59"/>
<path d="M212.038 30.8925L214.491 35.6461C221.863 34.8249 226.573 35.2644 227.198 37.1959C228.702 41.8338 206.31 53.2493 177.182 62.7102C148.055 72.1595 123.221 76.0688 121.717 71.4425C121.092 69.5225 124.563 66.446 130.893 62.8374C130.535 61.091 130.558 59.3214 130.211 57.4709C113.211 65.8561 102.958 73.8597 104.509 78.648C107.066 86.5359 140.672 82.6961 179.566 70.0777C218.461 57.4593 247.9 40.8276 245.343 32.9396C243.781 28.1398 230.75 27.6887 212.038 30.904V30.8925Z" fill="#FAD80C"/>
<path d="M117.632 83.5172C109.45 83.5172 104.787 81.9558 103.791 78.8909C101.535 71.9629 119.171 62.0625 129.875 56.7885L130.778 56.349L130.963 57.3321C131.148 58.2805 131.229 59.1942 131.31 60.0848C131.391 60.9869 131.472 61.8428 131.646 62.6871L131.761 63.2307L131.275 63.5083C122.18 68.7013 122.318 70.841 122.446 71.2227C122.55 71.5581 123.291 72.6453 128.267 72.6453C137.929 72.6453 157.035 68.47 176.939 62.0047C190.988 57.4477 203.914 52.2894 213.322 47.4895C223.703 42.1923 226.885 38.7804 226.457 37.4619C226.353 37.1265 225.612 36.0393 220.636 36.0393C218.923 36.0393 216.887 36.1665 214.561 36.4325L214.04 36.4904L210.869 30.3373L211.899 30.1638C219.895 28.7875 226.735 28.0935 232.243 28.0935C240.425 28.0935 245.077 29.6549 246.072 32.7199C247.819 38.098 237.416 45.3151 228.378 50.4157C215.915 57.4593 198.66 64.6996 179.809 70.8179C155.288 78.7752 132.039 83.5288 117.632 83.5288V83.5172ZM129.621 58.6159C110.098 68.3659 104.208 75.2245 105.249 78.4167C106.002 80.7183 110.399 81.9905 117.632 81.9905C131.889 81.9905 154.964 77.2717 179.335 69.349C198.093 63.2538 215.243 56.0598 227.626 49.0625C239.348 42.4468 245.702 36.5019 244.614 33.171C243.862 30.8693 239.476 29.6087 232.243 29.6087C227.059 29.6087 220.659 30.2332 213.195 31.4823L214.919 34.8364C217.083 34.6051 219.004 34.4895 220.636 34.4895C224.987 34.4895 227.371 35.2991 227.915 36.9646C228.794 39.6825 224.119 43.6728 214.017 48.8312C204.539 53.6657 191.532 58.8588 177.414 63.4389C157.058 70.043 138.219 74.1489 128.267 74.1489C123.904 74.1489 121.532 73.3393 120.988 71.6738C120.259 69.4184 123.221 66.3882 130.049 62.4326C129.921 61.6809 129.864 60.9406 129.794 60.212C129.748 59.6915 129.702 59.1479 129.632 58.6159H129.621Z" fill="#1A2D59"/>
<path d="M216.459 52.9486C216.181 52.9486 215.915 52.7983 215.776 52.5438C215.579 52.1737 215.718 51.7111 216.1 51.5144C224.536 47.0847 233.261 42.4931 239.684 35.2644C240.471 34.3854 241.2 33.4254 241.258 32.396C241.293 31.8987 241.049 31.3435 240.668 30.9966C240.494 30.8462 240.228 30.6727 239.892 30.7306C239.476 30.7999 239.082 30.5224 239.001 30.106C238.932 29.6896 239.21 29.2964 239.626 29.2154C240.355 29.0882 241.084 29.3079 241.686 29.8515C242.415 30.5108 242.843 31.517 242.785 32.477C242.693 33.969 241.79 35.1834 240.83 36.2706C234.222 43.719 224.976 48.5767 216.817 52.8676C216.702 52.9255 216.586 52.9602 216.459 52.9602V52.9486Z" fill="#1A2D59"/>
<path d="M113.616 79.5501C112.031 79.5501 110.434 79.3882 108.872 79.076C107.899 78.8793 106.789 78.5902 105.897 77.8847C104.821 77.0404 104.3 75.7565 104.567 74.5884C104.659 74.172 105.087 73.9291 105.481 74.0217C105.897 74.1142 106.152 74.5306 106.048 74.9469C105.921 75.5137 106.233 76.2192 106.823 76.6818C107.471 77.1791 108.328 77.4105 109.161 77.5724C111.105 77.9656 113.095 78.0928 115.063 77.9656C115.491 77.9425 115.85 78.2548 115.873 78.6827C115.896 79.0991 115.583 79.4692 115.155 79.4923C114.634 79.527 114.102 79.5386 113.581 79.5386L113.616 79.5501Z" fill="#1A2D59"/>
<path d="M119.715 80.0475C119.321 80.0475 118.986 79.7468 118.951 79.3419C118.916 78.9256 119.24 78.5555 119.657 78.5208C135.534 77.3526 151.284 74.3571 166.478 69.6151C166.883 69.4878 167.311 69.7191 167.439 70.1124C167.566 70.5172 167.334 70.9451 166.941 71.0723C151.631 75.8491 135.765 78.8678 119.773 80.0475C119.749 80.0475 119.738 80.0475 119.715 80.0475Z" fill="#1A2D59"/>
<path d="M171.211 69.8811C170.899 69.8811 170.598 69.6845 170.494 69.3722C170.355 68.9789 170.563 68.5394 170.957 68.4006L184.253 63.6818C184.658 63.543 185.086 63.7512 185.225 64.1444C185.364 64.5376 185.156 64.9771 184.762 65.1159L171.466 69.8348C171.385 69.8695 171.292 69.8811 171.211 69.8811Z" fill="#1A2D59"/>
<path d="M211.922 47.8134C211.633 47.8134 211.378 47.6052 211.344 47.3045C209.585 35.1256 202.873 23.9876 192.932 16.7358C192.666 16.5392 192.608 16.1807 192.805 15.9147C193.002 15.6486 193.36 15.5908 193.627 15.7874C203.822 23.2243 210.707 34.6514 212.512 47.131C212.559 47.4548 212.339 47.7555 212.015 47.8018C211.992 47.8018 211.957 47.8018 211.934 47.8018L211.922 47.8134Z" fill="#1A2D59"/>
<path d="M204.551 77.8847C204.423 77.8847 204.285 77.8384 204.18 77.7459C203.926 77.5377 203.891 77.1676 204.099 76.9131C207.86 72.3562 210.186 66.5964 210.672 60.7093C210.696 60.3855 211.008 60.1426 211.309 60.1657C211.633 60.1889 211.876 60.478 211.853 60.8019C211.344 66.9202 208.913 72.9113 205.014 77.6533C204.898 77.7921 204.724 77.8731 204.562 77.8731L204.551 77.8847Z" fill="#1A2D59"/>
<path d="M196.543 85.7842C196.358 85.7842 196.172 85.6916 196.057 85.5182C195.872 85.2521 195.953 84.882 196.219 84.697C198.198 83.3669 199.933 81.7361 201.38 79.8277C201.577 79.5733 201.947 79.5155 202.202 79.7121C202.456 79.9087 202.514 80.2788 202.317 80.5333C200.801 82.5457 198.973 84.269 196.878 85.6685C196.774 85.7379 196.658 85.7726 196.554 85.7726L196.543 85.7842Z" fill="#1A2D59"/>
<path d="M136.575 38.1443C136.518 38.1443 136.46 38.1443 136.39 38.1212C136.078 38.0171 135.916 37.6932 136.008 37.3809C138.022 31.1238 142.13 25.6531 147.592 21.9752C147.858 21.7901 148.229 21.8595 148.414 22.1371C148.599 22.4031 148.518 22.7732 148.252 22.9583C143.01 26.4859 139.063 31.7368 137.131 37.7395C137.05 37.9939 136.818 38.1443 136.575 38.1443Z" fill="#1A2D59"/>
<path d="M135.291 49.0047C135.291 49.0047 135.256 49.0047 135.245 49.0047C134.921 48.9815 134.678 48.6924 134.701 48.3685L135.279 40.7119C135.302 40.3881 135.592 40.1336 135.916 40.1683C136.24 40.1914 136.483 40.4806 136.46 40.8044L135.881 48.461C135.858 48.7733 135.603 49.0047 135.291 49.0047Z" fill="#1A2D59"/>
<path d="M183.86 83.6676C190.143 81.9096 196.45 80.1516 202.375 77.422C196.172 81.6551 189.877 85.8998 182.876 88.5947C175.875 91.3011 167.982 92.3652 160.831 90.0982C168.503 87.9585 176.187 85.8073 183.86 83.6676Z" fill="#1A2D59"/>
<path d="M57.433 137.703C50.6401 140.317 44.6225 145.441 41.9725 152.219C39.8316 157.678 39.9936 163.819 41.336 169.521C42.6784 175.223 45.1548 180.59 47.6197 185.922C51.0914 184.245 54.5631 182.567 58.0347 180.879C56.8196 179.41 56.7733 177.224 57.4793 175.454C58.1852 173.685 59.5391 172.251 60.9393 170.955C66.0543 166.213 72.3148 162.697 79.0267 160.777C72.9282 151.293 66.5519 141.983 59.8978 132.88L57.433 137.703Z" fill="#E33B46"/>
<path d="M47.261 186.939L46.937 186.234C44.4952 180.96 41.9725 175.501 40.6069 169.695C39.0678 163.148 39.2993 157.007 41.2781 151.929C43.8356 145.395 49.5176 140.005 56.9006 137.09L59.8053 131.423L60.5343 132.429C67.1652 141.509 73.6109 150.9 79.6864 160.361L80.2418 161.228L79.2466 161.506C72.6504 163.391 66.5056 166.849 61.4717 171.51C60.2334 172.656 58.8795 174.055 58.2083 175.744C57.5255 177.432 57.6991 179.26 58.6365 180.405L59.2498 181.156L47.261 186.963V186.939ZM60.0251 134.326L57.9884 138.305L57.7107 138.409C50.5938 141.138 45.1201 146.274 42.6899 152.485C40.8152 157.261 40.6069 163.091 42.0882 169.336C43.3611 174.737 45.6872 179.884 47.99 184.881L56.9122 180.567C56.1022 179.04 56.0212 177.016 56.7733 175.165C57.5603 173.199 59.0531 171.649 60.4186 170.389C65.3715 165.797 71.3775 162.327 77.8232 160.326C72.1528 151.536 66.17 142.804 60.002 134.338L60.0251 134.326Z" fill="#1A2D59"/>
<path d="M124.112 133.378C120.837 128.509 116.428 124.229 110.966 122.089C104.196 119.429 96.3388 120.355 89.8121 123.558L84.593 122.089C86.757 133.158 89.2566 144.157 92.0802 155.064C98.0515 151.444 104.879 149.246 111.834 148.714C113.743 148.564 115.711 148.552 117.493 149.235C119.275 149.917 120.849 151.432 121.103 153.329C124.691 151.929 128.29 150.518 131.877 149.119C129.644 143.695 127.387 138.235 124.112 133.378Z" fill="#E33B46"/>
<path d="M91.6058 156.255L91.3512 155.26C88.5391 144.388 86.0164 133.274 83.8524 122.24L83.6093 121.025L89.7426 122.749C96.7554 119.383 104.798 118.839 111.244 121.372C116.312 123.362 120.976 127.364 124.737 132.95C128.07 137.888 130.361 143.452 132.583 148.83L132.884 149.547L120.478 154.405L120.351 153.445C120.154 151.987 118.928 150.622 117.227 149.963C116.243 149.582 115.121 149.408 113.709 149.408C113.107 149.408 112.494 149.443 111.903 149.489C105.064 150.01 98.3523 152.172 92.4852 155.735L91.6058 156.267V156.255ZM85.5998 123.165C87.6249 133.436 89.9741 143.764 92.5778 153.896C98.4334 150.518 105.053 148.471 111.788 147.962C112.424 147.916 113.072 147.881 113.709 147.881C115.294 147.881 116.625 148.101 117.771 148.541C119.645 149.258 121.08 150.68 121.647 152.311L130.882 148.703C128.787 143.625 126.577 138.409 123.487 133.817C119.9 128.497 115.479 124.692 110.7 122.807C104.555 120.401 96.8595 120.968 90.1592 124.252L89.8931 124.38L85.5882 123.177L85.5998 123.165Z" fill="#1A2D59"/>
<path d="M103.271 155.55C101.569 141.219 96.3967 122.957 88.0878 103.931C71.1229 65.1159 35.4342 43.2333 35.4342 43.2333C35.4342 43.2333 27.2526 84.2806 44.2175 123.084C52.5263 142.098 62.4322 158.314 71.7941 169.29L103.282 155.538L103.271 155.55Z" fill="#1A2D59"/>
<path d="M71.5627 170.227L71.1923 169.799C61.3907 158.302 51.5543 141.821 43.5 123.396C26.6277 84.8126 34.5894 43.4993 34.6704 43.0829L34.8903 42.0073L35.8276 42.5856C36.1864 42.8053 71.9214 65.0465 88.7937 103.63C96.848 122.055 102.264 140.456 104.046 155.469L104.115 156.035L71.5858 170.238L71.5627 170.227ZM35.9781 44.5055C34.8555 51.3294 29.7753 88.1783 44.9118 122.783C52.8041 140.838 62.409 156.995 72.0024 168.365L102.449 155.075C100.621 140.317 95.2742 122.298 87.3819 104.243C72.2454 69.6266 41.7526 48.3107 35.9781 44.5055Z" fill="#1A2D59"/>
<path d="M95.6445 209.504C97.3687 209.47 98.85 208.105 99.5559 206.52C100.262 204.936 100.343 203.166 100.412 201.431C101.477 209.204 107.564 216.051 115.155 218.028C115.757 207.943 113.408 200.09 108.223 191.415C109.091 193.254 113.674 191.774 114.993 190.236C116.312 188.697 116.093 186.465 115.19 184.649C114.287 182.833 111.441 179.884 109.994 178.473C108.547 177.062 108.524 176.414 106.094 174.067C108.443 174.286 112.795 175.003 115.144 175.235C112.922 170.065 106.302 165.485 100.91 163.877C95.7717 167.104 84.674 170.4 79.073 172.725C75.5435 174.194 73.6919 178.543 72.9629 184.557C72.5926 187.656 75.3931 195.972 75.3931 195.972C75.3931 195.972 82.7414 189.796 82.3132 186.708C82.8919 193.52 86.5718 201.963 91.2123 206.983C92.4042 208.267 93.8971 209.539 95.6445 209.493V209.504Z" fill="#FAD80C"/>
<path d="M115.861 219L114.959 218.769C108.42 217.068 102.981 211.933 100.678 205.63C100.563 206.035 100.424 206.428 100.262 206.821C99.3591 208.868 97.5539 210.221 95.6676 210.256C93.4457 210.256 91.7562 208.683 90.6568 207.504C86.6065 203.12 83.2738 196.227 82.0124 189.923C80.1377 192.942 76.4461 196.1 75.8907 196.562L75.0343 197.279L74.6756 196.215C74.5599 195.868 71.8172 187.703 72.2107 184.464C73.0439 177.583 75.1963 173.511 78.7837 172.019C80.6353 171.244 83.0886 170.365 85.6808 169.44C91.0387 167.52 97.1141 165.357 100.493 163.218L100.783 163.033L101.118 163.137C106.476 164.733 113.454 169.405 115.838 174.922L116.347 176.114L115.063 175.986C113.871 175.871 112.158 175.628 110.503 175.397C109.705 175.281 108.883 175.165 108.131 175.073C108.594 175.593 108.906 176.01 109.207 176.391C109.601 176.9 109.936 177.34 110.526 177.906C111.811 179.156 114.889 182.278 115.884 184.291C117.076 186.708 116.961 189.102 115.583 190.721C114.53 191.947 111.938 193.011 110.04 193.023C114.681 201.42 116.451 209.019 115.919 218.063L115.861 218.988V219ZM101.164 201.327C102.148 208.51 107.541 214.836 114.438 217.022C114.808 208.082 112.76 200.552 107.691 192.017C107.656 191.982 107.587 191.866 107.529 191.739L108.883 191.022L109.01 191.23C109.126 191.381 109.52 191.496 110.052 191.496C111.626 191.496 113.732 190.536 114.415 189.738C115.56 188.408 115.213 186.407 114.507 184.985C113.593 183.134 110.411 179.942 109.462 179.017C108.802 178.369 108.409 177.86 108.004 177.34C107.494 176.669 106.904 175.917 105.562 174.622L103.988 173.107L106.164 173.315C107.356 173.43 109.068 173.673 110.723 173.905C111.788 174.055 112.876 174.205 113.824 174.321C111.255 169.868 105.585 166.167 101.014 164.721C97.4497 166.873 91.4785 169.012 86.2015 170.898C83.6209 171.823 81.1907 172.69 79.3739 173.442C76.3767 174.691 74.4789 178.462 73.7267 184.661C73.4721 186.743 74.8839 191.843 75.7634 194.642C78.3324 192.329 81.6305 188.732 81.5611 186.928V186.777L83.0654 186.604C83.077 186.685 83.0886 186.777 83.0886 186.87C83.7019 193.428 87.3472 201.686 91.7678 206.474C92.6704 207.446 94.0359 208.741 95.5519 208.741C97.0794 208.706 98.2945 207.446 98.8384 206.208C99.4864 204.739 99.5559 203.039 99.6253 201.397L101.153 201.327H101.164Z" fill="#1A2D59"/>
<path d="M70.4054 164.143C70.1393 164.143 69.8731 164.004 69.7342 163.75C56.2642 139.473 48.2678 124.657 40.6648 102.416C36.3715 89.8438 34.1034 67.9033 37.9222 54.3596C38.0379 53.9548 38.4545 53.712 38.8711 53.8276C39.2761 53.9433 39.5192 54.3596 39.4034 54.776C35.654 68.0305 37.899 89.5662 42.1113 101.919C49.668 124.044 57.6413 138.814 71.065 163.01C71.2733 163.38 71.1345 163.842 70.7642 164.05C70.6485 164.12 70.5212 164.143 70.3939 164.143H70.4054Z" fill="#6BCCE3"/>
<path d="M70.354 119.717C77.6353 116.479 80.018 105.948 75.6759 96.1961C71.3339 86.4444 61.9112 81.1644 54.6299 84.403C47.3486 87.6415 44.9658 98.1723 49.3079 107.924C53.65 117.676 63.0727 122.956 70.354 119.717Z" fill="#6BCCE3"/>
<path d="M72.9976 108.523C74.2358 101.687 70.9146 94.6668 66.0658 89.6934C63.9944 87.5653 61.2518 85.5875 58.3009 86.0155C54.8061 86.5128 52.6305 90.1561 51.9362 93.6027C50.3855 101.201 53.9034 109.575 60.3955 113.808C62.6983 115.312 65.6145 116.318 68.1836 115.358C70.9262 114.34 72.4769 111.391 72.9976 108.523Z" fill="#FAD80C"/>
<path d="M66.0427 116.503C63.6357 116.503 61.4138 115.393 59.9789 114.456C53.186 110.038 49.5639 101.398 51.184 93.4523C51.8783 90.0288 54.1349 85.8304 58.1967 85.2521C60.9625 84.8589 63.7283 86.189 66.6213 89.1614C72.257 94.9443 74.9302 102.242 73.7614 108.661C73.1018 112.328 71.1113 115.092 68.4613 116.087C67.7091 116.364 66.899 116.503 66.0543 116.503H66.0427ZM59.1109 86.721C58.8795 86.721 58.648 86.7326 58.4166 86.7673C55.1417 87.2299 53.2901 90.8269 52.6884 93.7531C51.1955 101.097 54.5399 109.078 60.8236 113.172C62.085 113.993 64.0176 114.976 66.0543 114.976C66.7139 114.976 67.3504 114.872 67.929 114.653C70.0698 113.855 71.6899 111.518 72.257 108.395C73.3332 102.451 70.822 95.6614 65.5219 90.237C63.2538 87.9123 61.1014 86.7326 59.1109 86.7326V86.721Z" fill="#1A2D59"/>
<path d="M54.9796 173.627C54.9102 173.627 54.8292 173.627 54.7598 173.592C54.3548 173.477 54.1233 173.049 54.2506 172.644C55.8244 167.405 60.245 163.091 65.5335 161.645C65.9501 161.529 66.3667 161.772 66.4709 162.177C66.5866 162.582 66.3436 163.01 65.9386 163.114C61.1592 164.421 57.1437 168.33 55.7203 173.072C55.6161 173.407 55.3152 173.615 54.9912 173.615L54.9796 173.627Z" fill="#1A2D59"/>
<path d="M54.7598 182.903C54.482 182.903 54.2275 182.753 54.0886 182.498C52.9198 180.324 52.5379 177.687 53.0471 175.269C53.1397 174.853 53.5331 174.587 53.9497 174.68C54.3663 174.772 54.6325 175.177 54.5399 175.582C54.1002 177.652 54.4242 179.907 55.431 181.758C55.6277 182.128 55.4888 182.591 55.1185 182.799C55.0028 182.857 54.8755 182.891 54.7598 182.891V182.903Z" fill="#1A2D59"/>
<path d="M102.125 147.234C101.812 147.234 101.512 147.037 101.407 146.725C101.269 146.332 101.477 145.892 101.87 145.753C104.324 144.886 106.893 144.435 109.496 144.412C109.913 144.412 110.26 144.747 110.26 145.175C110.26 145.603 109.925 145.938 109.496 145.95C107.066 145.961 104.671 146.389 102.379 147.199C102.298 147.234 102.206 147.245 102.125 147.245V147.234Z" fill="#1A2D59"/>
<path d="M125.524 152.149C125.281 152.149 125.038 152.034 124.887 151.814C122.261 147.939 117.516 145.591 112.876 145.834C112.459 145.869 112.089 145.534 112.065 145.106C112.042 144.689 112.366 144.319 112.795 144.308C117.99 144.018 123.244 146.644 126.16 150.958C126.392 151.305 126.311 151.779 125.952 152.022C125.825 152.114 125.674 152.149 125.524 152.149Z" fill="#1A2D59"/>
<path d="M85.6113 182.591C86.5834 182.221 86.6876 180.729 87.6365 180.301C87.4629 182.845 88.0647 185.447 89.3376 187.656C89.7773 188.42 90.4022 189.195 91.2702 189.264C92.0108 189.31 92.6935 188.801 93.0638 188.154C93.4342 187.506 93.5499 186.754 93.654 186.026C94.4409 188.674 95.9685 191.103 98.0283 192.954C98.769 193.624 99.7873 194.249 100.702 193.856C101.755 193.393 101.859 191.971 101.743 190.837C101.407 187.726 100.528 184.672 99.1508 181.85C99.8683 182.51 100.644 183.204 101.604 183.389C102.565 183.574 103.733 183.019 103.838 182.047C103.895 181.422 103.525 180.856 103.143 180.347C101.905 178.728 100.459 177.259 98.85 175.998C99.3939 176.842 100.852 176.576 101.338 175.697C101.824 174.818 101.512 173.685 100.887 172.898C100.262 172.112 99.3939 171.58 98.5838 170.978C97.7738 170.389 96.9868 169.672 96.6744 168.712C93.4342 170.007 90.1939 171.302 86.9537 172.609C86.1437 172.933 85.2989 173.28 84.6624 173.882C83.1349 175.327 83.2043 177.721 83.3779 179.815C83.4358 180.509 83.5052 181.237 83.8639 181.827C84.2227 182.429 84.9864 182.845 85.6345 182.591H85.6113Z" fill="white"/>
<path d="M113.813 52.833L82.3132 45.7662L84.9633 40.3187L113.674 50.3232L113.813 52.833Z" fill="#FAD80C"/>
<path d="M114.646 53.7929L81.2139 46.2982L84.5814 39.3703L114.415 49.768L114.646 53.7929ZM83.4357 45.2226L113.003 51.8498L112.945 50.8668L85.3683 41.2555L83.4357 45.2226Z" fill="#1A2D59"/>
<path d="M116.463 32.824L100.273 27.5268L102.773 21.9289L117.643 30.6149L116.463 32.824Z" fill="#FAD80C"/>
<path d="M116.845 33.7492L99.2318 27.9894L102.426 20.8417L118.662 30.3257L116.833 33.7492H116.845ZM101.326 27.0642L116.104 31.8987L116.636 30.904L103.143 23.0277L101.338 27.0642H101.326Z" fill="#1A2D59"/>
<path d="M122.943 18.702L114.993 11.9244L119.854 7.95733L125.593 17.6727L122.943 18.702Z" fill="#FAD80C"/>
<path d="M122.793 19.581L113.801 11.9244L120.062 6.81231L126.716 18.0659L122.804 19.5926L122.793 19.581ZM116.185 11.9476L123.082 17.823L124.471 17.291L119.645 9.12548L116.185 11.9591V11.9476Z" fill="#1A2D59"/>
<path d="M137.663 10.1664L134.134 3.99023L137.663 1.34164L139.283 8.69754L137.663 10.1664Z" fill="#FAD80C"/>
<path d="M137.478 11.3693L133.138 3.77048L138.161 0L140.128 8.95199L137.478 11.3577V11.3693ZM135.14 4.18685L137.86 8.95199L138.45 8.41996L137.177 2.66015L135.14 4.18685Z" fill="#1A2D59"/>
<path d="M66.7139 22.5188L68.82 26.775C69.0168 27.1683 69.3986 27.4458 69.8384 27.5152L74.5367 28.1976C75.6361 28.3595 76.0758 29.7128 75.2773 30.4877L71.8751 33.7955C71.5627 34.1078 71.4122 34.5473 71.4932 34.9868L72.2917 39.671C72.4769 40.7697 71.3312 41.6025 70.336 41.0936L66.1353 38.8845C65.7418 38.6763 65.2789 38.6763 64.8855 38.8845L60.6848 41.0936C59.7011 41.614 58.5439 40.7697 58.7291 39.671L59.5275 34.9868C59.597 34.5473 59.4581 34.1078 59.1457 33.7955L55.7434 30.4877C54.9449 29.7128 55.3847 28.348 56.484 28.1976L61.1824 27.5152C61.6221 27.4458 62.004 27.1798 62.2007 26.775L64.3069 22.5188C64.8045 21.5241 66.2279 21.5241 66.7255 22.5188H66.7139Z" fill="#FAD80C"/>
<path d="M70.9609 42.0073C70.6137 42.0073 70.2897 41.9263 69.9773 41.7644L65.7765 39.5553C65.6145 39.4628 65.4062 39.4628 65.2326 39.5553L61.0319 41.7644C60.1524 42.227 59.0531 41.9957 58.4282 41.2555C58.0347 40.7813 57.8611 40.1567 57.9653 39.5438L58.7638 34.8596C58.7985 34.6745 58.729 34.4779 58.5902 34.3507L55.1879 31.0428C54.6093 30.4761 54.401 29.6549 54.6556 28.88C54.9102 28.1051 55.5583 27.5615 56.3567 27.4458L61.0551 26.7635C61.2402 26.7403 61.4138 26.6131 61.4948 26.4512L63.601 22.1949C63.9597 21.4663 64.6887 21.0152 65.4988 21.0152C66.3089 21.0152 67.0379 21.4663 67.3967 22.1949L69.5028 26.4512C69.5838 26.6247 69.7458 26.7403 69.9425 26.7635L74.6409 27.4458C75.4394 27.5615 76.099 28.1167 76.342 28.88C76.5966 29.6549 76.3883 30.4761 75.8097 31.0428L72.4074 34.3507C72.2686 34.4895 72.2107 34.6745 72.2338 34.8596L73.0323 39.5438C73.1365 40.1567 72.9745 40.7813 72.5694 41.2555C72.1644 41.7413 71.5742 42.0073 70.9493 42.0073H70.9609ZM65.4988 37.9592C65.846 37.9592 66.1816 38.0402 66.4824 38.2021L70.6832 40.4112C70.9262 40.5384 71.2271 40.469 71.4006 40.2724C71.4816 40.1799 71.5627 40.0295 71.5279 39.8098L70.7294 35.1256C70.6137 34.4432 70.8452 33.7377 71.3312 33.2635L74.7334 29.9556C74.9649 29.7243 74.9186 29.4583 74.8839 29.3658C74.8492 29.2617 74.7334 29.0188 74.4094 28.9725L69.7111 28.2902C69.0283 28.1861 68.4266 27.7581 68.1257 27.1336L66.0195 22.8773C65.8807 22.5882 65.603 22.5535 65.4988 22.5535C65.3946 22.5535 65.1285 22.5882 64.9781 22.8773L62.8719 27.1336C62.5595 27.7581 61.9693 28.1861 61.2865 28.2902L56.5882 28.9725C56.2642 29.0188 56.1484 29.2617 56.1137 29.3658C56.079 29.4699 56.0327 29.7359 56.2642 29.9556L59.6664 33.2635C60.164 33.7492 60.3955 34.4432 60.2682 35.1256L59.4697 39.8098C59.435 40.0295 59.516 40.1799 59.597 40.2724C59.7706 40.4806 60.0714 40.55 60.3144 40.4112L64.5152 38.2021C64.816 38.0402 65.1516 37.9592 65.4988 37.9592Z" fill="#1A2D59"/>
<path d="M44.1365 19.3844C46.629 19.3844 48.6496 17.3649 48.6496 14.8737C48.6496 12.3825 46.629 10.363 44.1365 10.363C41.6439 10.363 39.6233 12.3825 39.6233 14.8737C39.6233 17.3649 41.6439 19.3844 44.1365 19.3844Z" fill="#FAD80C"/>
<path d="M44.1365 20.1478C41.2203 20.1478 38.8595 17.7768 38.8595 14.8737C38.8595 11.9707 41.2318 9.59968 44.1365 9.59968C47.0411 9.59968 49.4134 11.9707 49.4134 14.8737C49.4134 17.7768 47.0411 20.1478 44.1365 20.1478ZM44.1365 11.1264C42.065 11.1264 40.3871 12.8034 40.3871 14.8737C40.3871 16.944 42.065 18.6211 44.1365 18.6211C46.2079 18.6211 47.8859 16.944 47.8859 14.8737C47.8859 12.8034 46.2079 11.1264 44.1365 11.1264Z" fill="#1A2D59"/>
<path d="M33.0619 172.656C29.162 167.254 27.7849 160.118 29.3935 153.653C31.002 147.187 35.573 141.532 41.5443 138.594C37.8065 143.255 35.5267 148.969 34.3117 154.821C33.0966 160.673 32.9114 166.688 33.0503 172.667L33.0619 172.656Z" fill="#1A2D59"/>
<path d="M26.3037 148.784C24.6604 145.915 24.9497 142.052 27.0096 139.461C29.0579 136.871 32.7378 135.691 35.9202 136.616C31.6038 139.6 28.2015 143.891 26.3152 148.784H26.3037Z" fill="#1A2D59"/>
<path d="M18.7144 34.0628C25.314 31.309 28.4305 23.7295 25.6752 17.1335C22.9199 10.5374 15.3362 7.42265 8.73659 10.1764C2.13694 12.9302 -0.979538 20.5097 1.77574 27.1057C4.53103 33.7018 12.1147 36.8166 18.7144 34.0628Z" fill="#6BCCE3"/>
<path d="M13.7247 35.8427C6.15642 35.8427 0 29.6896 0 22.1255C0 14.5614 6.15642 8.41996 13.7247 8.41996C21.2929 8.41996 27.4493 14.573 27.4493 22.1371C27.4493 29.7012 21.2929 35.8542 13.7247 35.8542V35.8427ZM13.7247 9.94666C7.0012 9.94666 1.53911 15.4058 1.53911 22.1255C1.53911 28.8453 7.0012 34.3044 13.7247 34.3044C20.4481 34.3044 25.9102 28.8453 25.9102 22.1255C25.9102 15.4058 20.4481 9.94666 13.7247 9.94666Z" fill="#1A2D59"/>
<path d="M5.17279 28.4521C8.63288 29.3426 12.3939 29.0072 15.6457 27.5384C18.8974 26.0695 21.6285 23.4672 23.2486 20.2866C24.9034 24.4156 23.3759 29.574 19.7422 32.1416C16.1085 34.6977 10.7275 34.3969 7.39465 31.4592L5.17279 28.4636V28.4521Z" fill="#1A2D59"/>
<path d="M6.30686 14.7118C5.77454 15.3595 5.3348 16.1344 5.28851 16.9787C5.24222 17.823 5.64725 18.7252 6.41101 19.0721C7.0822 19.3729 7.86911 19.2225 8.58659 19.0259C9.97526 18.6558 11.3292 18.2047 12.66 17.6611C14.0718 17.0828 15.6572 16.065 15.5762 14.5499C15.4836 13.081 13.8172 12.2136 12.3476 12.121C10.0794 11.9707 7.76497 12.9654 6.31844 14.7118H6.30686Z" fill="white"/>
<path d="M122.851 103.341C122.851 107.019 119.865 110.015 116.174 110.015C112.482 110.015 109.496 107.031 109.496 103.341C109.496 99.6516 112.482 96.6677 116.174 96.6677C119.865 96.6677 122.851 99.6516 122.851 103.341Z" fill="#6BCCE3"/>
<path d="M116.174 110.778C112.077 110.778 108.733 107.447 108.733 103.341C108.733 99.2353 112.065 95.9043 116.174 95.9043C120.282 95.9043 123.615 99.2353 123.615 103.341C123.615 107.447 120.282 110.778 116.174 110.778ZM116.174 97.4426C112.91 97.4426 110.272 100.091 110.272 103.353C110.272 106.614 112.922 109.263 116.174 109.263C119.425 109.263 122.087 106.614 122.087 103.353C122.087 100.091 119.437 97.4426 116.174 97.4426Z" fill="#1A2D59"/>
<path d="M119.553 103.191C120.247 104.995 118.997 107.193 117.157 107.794C115.317 108.395 113.188 107.551 111.984 106.036C114.773 106.649 117.863 105.481 119.553 103.191Z" fill="#1A2D59"/>
<path d="M116.255 102.96C117.169 102.231 117.817 100.797 117.007 99.9524C116.255 99.1775 114.924 99.6054 114.067 100.265C113.246 100.901 112.505 101.976 112.968 102.902C113.257 103.457 113.929 103.746 114.553 103.7C115.178 103.653 115.757 103.341 116.243 102.948L116.255 102.96Z" fill="white"/>
<path d="M250.816 19.7777C256.019 19.7777 260.236 15.5626 260.236 10.363C260.236 5.16348 256.019 0.948402 250.816 0.948402C245.614 0.948402 241.397 5.16348 241.397 10.363C241.397 15.5626 245.614 19.7777 250.816 19.7777Z" fill="#6BCCE3"/>
<path d="M250.816 20.541C245.204 20.541 240.633 15.9725 240.633 10.363C240.633 4.75358 245.192 0.185054 250.816 0.185054C256.441 0.185054 261 4.75358 261 10.363C261 15.9725 256.429 20.541 250.816 20.541ZM250.816 1.71175C246.049 1.71175 242.16 5.59789 242.16 10.363C242.16 15.1282 246.037 19.0143 250.816 19.0143C255.596 19.0143 259.472 15.1282 259.472 10.363C259.472 5.59789 255.596 1.71175 250.816 1.71175Z" fill="#1A2D59"/>
<path d="M257.667 12.0748C257.69 9.99292 256.707 8.02672 255.573 6.28027C255.769 8.80164 254.901 11.3808 253.223 13.2661C251.546 15.1513 249.069 16.3079 246.546 16.4004C248.294 18.251 251.198 18.9102 253.571 17.9965C255.943 17.0712 257.644 14.6308 257.679 12.0863L257.667 12.0748Z" fill="#1A2D59"/>
<path d="M248.919 4.93863C247.634 4.52226 246.141 4.81141 245.1 5.67885C244.07 6.54629 243.526 7.96889 243.723 9.31054C245.007 9.70378 246.477 9.40306 247.507 8.53562C248.537 7.66818 249.081 6.26871 248.907 4.93863H248.919Z" fill="white"/>
<path d="M235.506 84.7085C241.469 84.7085 246.303 79.8773 246.303 73.9176C246.303 67.9579 241.469 63.1266 235.506 63.1266C229.543 63.1266 224.71 67.9579 224.71 73.9176C224.71 79.8773 229.543 84.7085 235.506 84.7085Z" fill="#6BCCE3"/>
<path d="M235.506 85.4719C229.13 85.4719 223.946 80.2904 223.946 73.9176C223.946 67.5448 229.13 62.3632 235.506 62.3632C241.883 62.3632 247.067 67.5448 247.067 73.9176C247.067 80.2904 241.883 85.4719 235.506 85.4719ZM235.506 63.8899C229.975 63.8899 225.473 68.3891 225.473 73.9176C225.473 79.4461 229.975 83.9452 235.506 83.9452C241.038 83.9452 245.54 79.4461 245.54 73.9176C245.54 68.3891 241.038 63.8899 235.506 63.8899Z" fill="#1A2D59"/>
<path d="M230.218 80.1053C231.942 82.0368 234.731 82.9505 237.265 82.4185C239.8 81.8865 241.975 79.9202 242.774 77.4567C243.561 74.9932 242.936 72.1248 241.188 70.2165C240.806 72.8651 239.476 75.3633 237.497 77.156C235.506 78.9487 232.891 80.0128 230.218 80.1169V80.1053Z" fill="#1A2D59"/>
<path d="M230.519 71.9282C233.18 71.5118 235.217 68.6898 234.766 66.0412C233.342 66.0181 231.931 66.7236 231.097 67.8802C230.264 69.0368 230.044 70.5981 230.519 71.9398V71.9282Z" fill="white"/>
<path d="M220.393 15.8568C223.32 15.8568 225.693 13.4852 225.693 10.5597C225.693 7.6341 223.32 5.26248 220.393 5.26248C217.466 5.26248 215.093 7.6341 215.093 10.5597C215.093 13.4852 217.466 15.8568 220.393 15.8568Z" fill="#6BCCE3"/>
<path d="M220.393 16.6202C217.049 16.6202 214.329 13.9022 214.329 10.5597C214.329 7.21711 217.049 4.49913 220.393 4.49913C223.737 4.49913 226.457 7.21711 226.457 10.5597C226.457 13.9022 223.737 16.6202 220.393 16.6202ZM220.393 6.02583C217.893 6.02583 215.857 8.06142 215.857 10.5597C215.857 13.0579 217.893 15.0935 220.393 15.0935C222.893 15.0935 224.929 13.0579 224.929 10.5597C224.929 8.06142 222.893 6.02583 220.393 6.02583Z" fill="#1A2D59"/>
<path d="M217.465 13.347C219.375 12.6531 221.122 11.4849 222.488 9.98136C223.356 10.4787 223.518 11.7741 222.974 12.6184C222.43 13.4627 221.388 13.8675 220.393 13.9022C219.398 13.9369 218.414 13.6362 217.454 13.347H217.465Z" fill="#1A2D59"/>
<path d="M219.814 8.10768C219.016 7.4253 217.627 7.66818 217.095 8.57032C216.563 9.47246 217.049 10.8025 218.032 11.1611C219.016 11.5196 219.618 9.13705 219.814 8.10768Z" fill="white"/>
</svg>
