<svg width="200" height="200" viewBox="0 0 200 200" fill="none" xmlns="http://www.w3.org/2000/svg">
<path d="M86.0536 30.743C71.3189 40.2946 59.9754 55.2218 55.518 72.2223C51.0606 89.2079 53.7558 108.119 63.4555 122.75C73.17 137.381 89.9187 147.317 107.467 148.013C125.015 148.709 142.83 139.839 152.19 124.971C146.977 118.485 141.764 111.984 136.551 105.498C129.34 120.617 109.881 128.185 93.9911 122.868C78.1162 117.552 67.2613 100.655 68.0166 83.9212C68.757 67.1873 80.3967 51.727 95.8867 45.3444C91.3404 41.5089 87.8899 36.3999 86.0536 30.743Z" fill="#1A2D59"/>
<path d="M109.407 149.02C108.755 149.02 108.089 149.02 107.437 148.976C89.8595 148.28 72.6962 138.432 62.641 123.268C52.9857 108.696 49.9647 89.5189 54.5702 71.9557C58.9832 55.133 70.2675 39.8059 85.5205 29.9137L86.5868 29.2177L86.9866 30.432C88.7637 35.8668 92.14 40.9018 96.5234 44.5892L97.7526 45.6258L96.2569 46.2477C80.915 52.5711 69.7048 68.0758 68.994 83.9656C68.2535 100.537 79.138 116.856 94.3021 121.935C97.56 123.031 101.025 123.579 104.609 123.579C117.892 123.579 130.361 116.145 135.648 105.068L136.315 103.661L153.374 124.897L153.004 125.489C144 139.78 126.881 149.02 109.392 149.02H109.407ZM85.5353 32.2535C71.2153 41.894 60.6566 56.4806 56.4658 72.4592C51.9935 89.4893 54.9257 108.089 64.2848 122.187C73.9993 136.833 90.5703 146.34 107.526 147.021C124.793 147.702 141.927 138.951 151.005 125.03L136.759 107.275C130.806 118.248 118.115 125.534 104.639 125.534C100.848 125.534 97.1602 124.941 93.695 123.786C77.7311 118.44 66.2692 101.277 67.0392 83.862C67.7648 67.4835 78.5604 52.0676 94.08 45.0482C90.2593 41.5089 87.342 37.1404 85.5353 32.2535Z" fill="#1A2D59"/>
<path d="M74.2659 35.8076C59.5312 45.3592 48.1877 60.2864 43.7302 77.2869C39.2728 94.2873 41.968 113.183 51.6677 127.814C61.3823 142.445 78.131 152.382 95.6793 153.078C113.228 153.774 131.043 144.904 140.402 130.036L124.764 110.562C117.552 125.682 98.0932 133.249 82.2034 127.933C66.3284 122.616 55.4736 105.72 56.2288 88.9858C56.9693 72.2519 68.6089 56.7916 84.0989 50.409C79.5526 46.5735 76.1022 41.4645 74.2659 35.8076Z" fill="#E33B46"/>
<path d="M97.6193 154.1C96.9677 154.1 96.3013 154.1 95.6497 154.055C78.0717 153.359 60.9084 143.512 50.8681 128.347C41.1979 113.776 38.1918 94.5983 42.7973 77.0351C47.2103 60.2124 58.4946 44.8853 73.7476 34.9931L74.8138 34.2971L75.2136 35.5114C76.9907 40.9462 80.3671 45.9812 84.7505 49.6686L85.9796 50.7052L84.4839 51.3271C69.1421 57.6505 57.9318 73.1552 57.221 89.045C56.4806 105.616 67.365 121.935 82.5292 127.015C85.7871 128.111 89.2523 128.658 92.8361 128.658C106.12 128.658 118.588 121.224 123.875 110.147L124.542 108.741L141.601 129.976L141.231 130.569C132.227 144.859 115.108 154.1 97.6193 154.1ZM73.7476 37.3181C59.4275 46.9585 48.8689 61.5452 44.678 77.5238C40.2058 94.5539 43.1379 113.154 52.497 127.266C62.2116 141.912 78.7826 151.419 95.7386 152.101C112.932 152.767 130.139 144.03 139.217 130.11L124.971 112.354C119.018 123.327 106.327 130.613 92.8509 130.613C89.0598 130.613 85.3725 130.021 81.9072 128.866C65.9434 123.52 54.4814 106.356 55.2514 88.9414C55.9771 72.5629 66.7727 57.147 82.2922 50.1276C78.516 46.6179 75.5394 42.1605 73.7476 37.3329V37.3181Z" fill="#1A2D59"/>
<path d="M79.6267 12.6763C76.887 25.0268 68.6682 32.1054 56.0956 35.0079L44.8261 23.4719C49.017 13.239 56.525 5.53847 68.3572 1.14027L79.6267 12.6763Z" fill="#E33B46"/>
<path d="M55.7698 36.0889L43.671 23.694L43.9079 23.1017C48.3654 12.2024 56.4658 4.51667 68.0018 0.222131L68.5941 0L80.6781 12.3653L80.5596 12.8836C77.8496 25.1008 69.69 32.8606 56.2881 35.9556L55.7549 36.0741L55.7698 36.0889ZM45.9664 23.2497L56.3917 33.9268C68.6534 30.9503 75.9097 24.0938 78.5308 12.9873L68.0906 2.29536C57.4728 6.39738 50.2313 13.2538 45.9664 23.2645V23.2497Z" fill="#1A2D59"/>
<path d="M123.283 64.2107C121.21 73.5847 114.96 78.9603 105.409 81.1668L55.4736 28.5365C58.6575 20.7619 64.3588 14.9272 73.3477 11.5804L123.298 64.2107H123.283Z" fill="#E33B46"/>
<path d="M105.098 82.2478L54.3333 28.7586L54.5702 28.1662C57.9763 19.8289 64.1811 13.935 73.0071 10.6623L73.6143 10.4402L124.364 63.9146L124.245 64.4181C122.172 73.792 115.908 79.7451 105.646 82.1145L105.098 82.233V82.2478ZM56.6287 28.3291L105.749 80.0857C114.842 77.8348 120.232 72.7406 122.217 64.5069L73.0812 12.7355C65.2177 15.8157 59.8274 20.9248 56.6287 28.3291Z" fill="#1A2D59"/>
<path d="M132.361 68.9643C129.621 81.3148 121.402 88.3934 108.83 91.296L97.56 79.7599C101.751 69.5271 109.259 61.8265 121.091 57.4283L132.361 68.9643Z" fill="#E33B46"/>
<path d="M108.519 92.377L96.4198 79.9969L96.6567 79.4045C101.114 68.5053 109.215 60.8195 120.751 56.525L121.343 56.3029L133.427 68.6682L133.308 69.1865C130.598 81.4037 122.439 89.1635 109.037 92.2585L108.504 92.377H108.519ZM98.7151 79.5378L109.14 90.2149C121.402 87.2383 128.658 80.3819 131.28 69.2605L120.839 58.5686C110.222 62.6706 102.98 69.5271 98.7151 79.5378Z" fill="#1A2D59"/>
<path d="M167.808 88.6955L102.187 116.929L105.815 125.363L171.437 97.1294L167.808 88.6955Z" fill="#E33B46"/>
<path d="M105.29 126.644L100.892 116.412L168.316 87.4161L172.714 97.6489L105.29 126.644ZM103.469 117.433L106.327 124.068L170.153 96.6123L167.294 89.978L103.469 117.433Z" fill="#1A2D59"/>
<path d="M191.581 142.519C178.49 126.259 157.136 119.477 141.572 121.21C122.824 128.614 124.275 128.644 124.275 128.644C124.275 128.644 126.511 147.184 122.868 153.878C119.225 160.571 113.805 165.236 109.555 171.278C105.631 176.846 102.669 184.28 103.691 192.691L197.712 152.264C196.172 148.754 193.921 145.437 191.581 142.519Z" fill="#1A2D59"/>
<path d="M102.891 194.113L102.728 192.81C101.558 183.273 105.364 175.528 108.77 170.715C110.503 168.272 112.428 166.021 114.294 163.844C117.034 160.645 119.877 157.343 122.024 153.419C125.238 147.51 123.609 131.368 123.357 129.043L123.312 128.807C123.135 127.829 123.076 127.474 141.231 120.306L141.483 120.247C143.097 120.069 144.77 119.98 146.488 119.98C159.505 119.98 179.334 125.726 192.366 141.912C195.135 145.363 197.238 148.709 198.63 151.879L199.03 152.782L102.921 194.128L102.891 194.113ZM125.326 129.088C125.682 132.301 127.178 148.058 123.742 154.366C121.506 158.468 118.588 161.86 115.775 165.132C113.939 167.265 112.043 169.486 110.37 171.856C107.334 176.165 103.943 182.962 104.55 191.27L196.408 151.76C195.105 149.02 193.225 146.118 190.826 143.141C178.238 127.489 159.061 121.935 146.473 121.935C144.874 121.935 143.319 122.024 141.823 122.172C129.814 126.911 126.333 128.555 125.326 129.088Z" fill="#1A2D59"/>
<path d="M180.208 147.406C167.117 131.146 145.763 124.364 130.199 126.097C111.451 133.501 112.902 133.531 112.902 133.531C112.902 133.531 115.138 152.071 111.495 158.765C107.852 165.458 102.432 170.123 98.182 176.165C94.2577 181.733 91.2959 189.167 92.3177 197.578L186.339 157.15C184.798 153.641 182.547 150.324 180.208 147.406Z" fill="#E33B46"/>
<path d="M91.5181 199L91.3552 197.697C90.1853 188.16 93.9911 180.415 97.3971 175.602C99.1298 173.159 101.055 170.908 102.921 168.731C105.675 165.532 108.504 162.23 110.651 158.306C113.864 152.397 112.236 136.255 111.984 133.93L111.939 133.693C111.762 132.716 111.702 132.361 129.858 125.193L130.11 125.134C131.724 124.956 133.397 124.867 135.115 124.867C148.132 124.867 167.961 130.613 180.993 146.799C183.762 150.25 185.879 153.596 187.257 156.765L187.656 157.669L91.5477 199.015L91.5181 199ZM113.953 133.975C114.309 137.188 115.804 152.945 112.369 159.253C110.133 163.37 107.215 166.747 104.402 170.019C102.565 172.152 100.67 174.373 98.9965 176.742C95.9607 181.052 92.5695 187.849 93.1767 196.157L185.035 156.647C183.732 153.907 181.851 151.005 179.452 148.028C166.865 132.375 147.688 126.822 135.1 126.822C133.501 126.822 131.946 126.911 130.45 127.059C118.44 131.798 114.96 133.427 113.953 133.975Z" fill="#1A2D59"/>
<path d="M121.15 132.538C118.277 134.434 117.226 138.61 118.825 141.661C119.906 143.719 122.009 145.126 124.275 145.674C126.541 146.222 128.94 145.955 131.146 145.229C133.856 144.341 136.551 142.475 137.129 139.676C137.618 137.292 136.344 134.774 134.404 133.308C132.464 131.827 129.976 131.265 127.533 131.146C125.326 131.043 123.001 131.324 121.165 132.553L121.15 132.538Z" fill="#FAD80C"/>
<path d="M122.705 140.876C123.979 141.897 125.83 141.823 127.355 141.231C129.162 140.52 130.835 138.758 130.406 136.862C130.124 135.559 128.91 134.641 127.637 134.256C125.786 133.693 123.579 134.167 122.35 135.663C121.121 137.159 121.195 139.647 122.69 140.861L122.705 140.876Z" fill="#E33B46"/>
<path d="M125.164 142.653C123.979 142.653 122.913 142.297 122.098 141.646C121.224 140.935 120.677 139.883 120.558 138.684C120.425 137.366 120.81 136.048 121.609 135.071C122.646 133.812 124.29 133.086 126.097 133.086C126.733 133.086 127.34 133.175 127.933 133.353C129.71 133.886 131.028 135.159 131.368 136.685C131.902 139.113 129.888 141.335 127.711 142.179C126.881 142.505 125.993 142.682 125.164 142.682V142.653ZM126.097 135.026C124.897 135.026 123.786 135.5 123.12 136.3C122.646 136.862 122.424 137.677 122.498 138.477C122.572 139.158 122.853 139.75 123.327 140.12C123.92 140.594 124.645 140.698 125.164 140.698C125.756 140.698 126.393 140.565 127 140.328C128.436 139.765 129.754 138.403 129.458 137.085C129.236 136.092 128.199 135.456 127.37 135.204C126.955 135.085 126.541 135.026 126.097 135.026Z" fill="#1A2D59"/>
<path d="M69.8677 53.7113C70.5341 52.7043 70.5341 51.2975 69.8677 50.2905C69.2309 49.3279 68.0314 48.7652 66.8911 48.8985C65.7508 49.0318 64.7142 49.8611 64.3144 50.9569C63.8109 52.3785 64.5217 54.126 65.8693 54.7924C67.2169 55.4588 69.0384 54.9701 69.8677 53.7113Z" fill="#E33B46"/>
<path d="M67.2021 56.0659C66.5801 56.0659 65.973 55.9327 65.4399 55.6661C63.648 54.7776 62.7299 52.5118 63.3963 50.6311C63.8998 49.1947 65.2622 48.1136 66.7727 47.9211C68.298 47.7434 69.8677 48.469 70.697 49.7426C71.5855 51.0902 71.5707 52.8969 70.697 54.2445C69.9565 55.3699 68.6238 56.0659 67.2021 56.0659ZM67.2465 49.8463C67.1725 49.8463 67.0984 49.8463 67.0096 49.8463C66.2395 49.9351 65.5139 50.5126 65.2474 51.2531C64.9068 52.2008 65.4102 53.43 66.3136 53.889C67.1873 54.3185 68.5201 53.9631 69.0532 53.1486C69.4975 52.4674 69.4975 51.4752 69.0532 50.794C68.6682 50.2017 67.9574 49.8314 67.2317 49.8314L67.2465 49.8463Z" fill="#1A2D59"/>
<path d="M116.574 84.4099C121.165 82.7809 124.986 79.1676 127.015 74.7546C127.8 73.0368 126.082 71.2449 124.319 71.9409C120.232 73.5403 116.649 76.4576 114.338 80.2042C113.894 80.915 113.494 81.6851 113.45 82.5292C113.405 83.3585 113.82 84.2766 114.605 84.5876C115.227 84.8245 115.938 84.6468 116.574 84.4247V84.4099Z" fill="white"/>
<path d="M115.257 85.6686C114.901 85.6686 114.56 85.6094 114.25 85.4909C113.139 85.0615 112.413 83.8175 112.472 82.4699C112.532 81.4037 113.02 80.4559 113.494 79.6859C115.893 75.7912 119.595 72.711 123.949 71.0228C125.326 70.4897 126.896 71.0228 127.696 72.2371C128.259 73.1256 128.333 74.1918 127.888 75.1544C125.697 79.908 121.698 83.625 116.885 85.328C116.412 85.4909 115.849 85.6686 115.242 85.6686H115.257ZM125.104 72.7554C124.956 72.7554 124.823 72.785 124.675 72.8442C120.721 74.3843 117.345 77.1832 115.182 80.7077C114.812 81.3 114.472 81.9368 114.442 82.5736C114.412 83.0623 114.649 83.5362 114.96 83.6546C115.049 83.6842 115.138 83.6991 115.257 83.6991C115.567 83.6991 115.953 83.5806 116.249 83.4769C120.499 81.9664 124.186 78.5604 126.126 74.3399C126.348 73.8661 126.185 73.481 126.067 73.3033C125.86 72.9775 125.489 72.7702 125.119 72.7702L125.104 72.7554Z" fill="#1A2D59"/>
<path d="M80.8558 49.4612C80.6633 49.4612 80.4559 49.3872 80.3079 49.2243L56.9545 24.8639C56.6731 24.5677 56.6731 24.079 56.9693 23.7977C57.2654 23.5163 57.7393 23.5163 58.0355 23.8125L81.3889 48.1729C81.6703 48.469 81.6703 48.9577 81.3741 49.2391C81.226 49.3724 81.0335 49.4464 80.8558 49.4464V49.4612Z" fill="#1A2D59"/>
<path d="M89.8891 58.7463C89.6966 58.7463 89.5189 58.6723 89.3708 58.539L83.0919 52.5118C82.7957 52.2305 82.7809 51.7418 83.0771 51.4456C83.3585 51.1494 83.8472 51.1346 84.1433 51.4308L90.4222 57.458C90.7184 57.7393 90.7332 58.228 90.437 58.5242C90.289 58.6723 90.0964 58.7611 89.8891 58.7611V58.7463Z" fill="#1A2D59"/>
<path d="M103.513 120.158C103.217 120.158 102.936 119.981 102.817 119.699C102.654 119.314 102.832 118.87 103.217 118.707L161.045 94.4058C161.43 94.2429 161.874 94.4206 162.037 94.8056C162.2 95.1907 162.023 95.6349 161.638 95.7978L103.809 120.099C103.72 120.143 103.617 120.158 103.513 120.158Z" fill="#1A2D59"/>
<path d="M181.526 159.801C181.244 159.801 180.978 159.653 180.859 159.387C176.698 151.123 169.545 143.882 160.157 138.462C159.801 138.255 159.668 137.795 159.875 137.44C160.083 137.085 160.542 136.951 160.897 137.159C170.538 142.727 177.912 150.176 182.192 158.705C182.385 159.076 182.236 159.535 181.851 159.712C181.748 159.772 181.629 159.786 181.511 159.786L181.526 159.801Z" fill="#1A2D59"/>
<path d="M154.204 137.262C154.085 137.262 153.967 137.233 153.863 137.173C151.197 135.796 148.384 134.7 145.511 133.901C145.111 133.797 144.874 133.382 144.992 132.968C145.111 132.568 145.511 132.331 145.925 132.449C148.902 133.279 151.819 134.419 154.574 135.841C154.944 136.033 155.092 136.492 154.9 136.848C154.766 137.114 154.5 137.262 154.233 137.262H154.204Z" fill="#1A2D59"/>
<path d="M96.9825 149.109C84.2174 149.109 71.4374 144.711 61.6488 136.492C61.323 136.226 61.2934 135.752 61.56 135.426C61.8265 135.1 62.3004 135.071 62.6262 135.337C76.428 146.932 96.3902 150.709 113.479 144.948C113.879 144.815 114.309 145.022 114.427 145.422C114.56 145.822 114.353 146.251 113.953 146.37C108.489 148.206 102.743 149.109 96.9825 149.109Z" fill="#1A2D59"/>
<path d="M52.7043 99.8258C52.3341 99.8258 52.0083 99.5444 51.9639 99.1594C50.2461 84.9134 54.7183 69.8233 63.9146 58.7907C64.1811 58.465 64.655 58.4353 64.9808 58.7019C65.3066 58.9684 65.3362 59.4423 65.0696 59.7681C56.14 70.4749 51.7862 85.1355 53.4596 98.9817C53.504 99.3963 53.2078 99.7666 52.808 99.8258C52.7784 99.8258 52.7488 99.8258 52.7192 99.8258H52.7043Z" fill="#1A2D59"/>
<path d="M58.6575 113.776C58.4501 113.776 58.2428 113.687 58.0799 113.509C55.6661 110.71 53.9335 107.334 53.0746 103.75C52.9709 103.35 53.2226 102.936 53.6373 102.847C54.0371 102.758 54.4518 102.995 54.5406 103.41C55.3551 106.771 56.9693 109.925 59.2202 112.532C59.4868 112.843 59.4571 113.317 59.1461 113.598C58.9981 113.716 58.8352 113.776 58.6575 113.776Z" fill="#1A2D59"/>
<path d="M91.1479 195.875C90.8517 195.875 90.5851 195.712 90.4519 195.431C90.289 195.046 90.4519 194.602 90.8369 194.439L179.245 155.507C179.63 155.344 180.074 155.507 180.237 155.892C180.4 156.277 180.237 156.721 179.852 156.884L91.444 195.816C91.3404 195.861 91.2367 195.875 91.1479 195.875Z" fill="#1A2D59"/>
<path d="M91.9031 189.848C91.6069 189.848 91.3404 189.685 91.2071 189.389C91.0442 189.004 91.2071 188.56 91.5921 188.397L175.735 151.73C176.12 151.568 176.565 151.73 176.728 152.115C176.891 152.501 176.728 152.945 176.343 153.108L92.1993 189.774C92.0956 189.819 91.992 189.833 91.9031 189.833V189.848Z" fill="#1A2D59"/>
<path d="M93.1618 183.569C92.8805 183.569 92.5991 183.406 92.4807 183.125C92.3029 182.74 92.4807 182.296 92.8509 182.133L134.034 163.296C134.404 163.118 134.863 163.296 135.026 163.666C135.204 164.051 135.026 164.496 134.656 164.659L93.4728 183.495C93.3692 183.54 93.2655 183.569 93.1618 183.569Z" fill="#1A2D59"/>
<path d="M139.365 161.726C139.069 161.726 138.788 161.549 138.669 161.267C138.506 160.882 138.684 160.438 139.069 160.275L157.402 152.486C157.787 152.323 158.231 152.486 158.394 152.886C158.557 153.271 158.38 153.715 157.995 153.878L139.661 161.667C139.572 161.712 139.469 161.726 139.365 161.726Z" fill="#1A2D59"/>
<path d="M95.1462 45.5517C95.9903 44.989 96.2421 43.8043 96.0199 42.8121C95.783 41.8199 95.1758 40.9758 94.5539 40.1613C87.7715 31.1724 79.8932 22.998 71.1412 15.9194C69.4827 15.8306 68.298 17.7409 68.5053 19.3847C68.7126 21.0284 69.8381 22.3908 70.9191 23.6348C77.1832 30.8762 83.5362 38.0733 90.7924 44.3226C92.0216 45.3888 93.7838 46.4551 95.1314 45.5517H95.1462Z" fill="#FAD80C"/>
<path d="M101.247 54.126C101.869 54.0371 102.328 53.4744 102.506 52.8672C102.965 51.3271 101.958 49.7722 100.996 48.4987C100.24 47.5213 99.3815 46.4847 98.182 46.1885C97.3972 45.996 96.4938 46.1885 96.0051 46.8253C95.3832 47.6101 95.5905 48.78 96.0051 49.6982C96.8048 51.5196 98.3153 53.0449 100.122 53.8594C100.477 54.0223 100.862 54.1556 101.247 54.1112V54.126Z" fill="#FAD80C"/>
<path d="M187.805 64.344C189.226 64.2848 190.796 64.1071 191.729 63.0409C192.973 61.6192 192.247 59.1017 190.559 58.2576C188.871 57.3987 186.679 58.0503 185.391 59.4423C184.265 60.6566 183.865 62.8187 185.169 63.8257C185.894 64.3884 186.886 64.3885 187.805 64.3588V64.344Z" fill="#FAD80C"/>
<path d="M187.257 65.3362C186.457 65.3362 185.42 65.2473 184.576 64.5958C183.88 64.0627 183.48 63.2778 183.392 62.3448C183.288 61.1157 183.777 59.7385 184.68 58.7759C186.294 57.0285 189.034 56.4065 191.003 57.3839C192.158 57.9614 193.002 59.1165 193.269 60.4641C193.506 61.6784 193.225 62.8483 192.484 63.6924C191.329 65.0104 189.582 65.2622 187.849 65.3214C187.656 65.3214 187.464 65.3214 187.257 65.3214V65.3362ZM188.886 58.85C187.893 58.85 186.827 59.3239 186.116 60.0939C185.598 60.6566 185.287 61.4859 185.346 62.1671C185.376 62.5522 185.524 62.8335 185.776 63.026C186.072 63.263 186.546 63.3666 187.271 63.3666C187.449 63.3666 187.612 63.3666 187.775 63.3666C189.063 63.3222 190.337 63.1593 191.003 62.4041C191.344 62.019 191.462 61.4563 191.344 60.8344C191.196 60.0939 190.737 59.4423 190.13 59.1313C189.759 58.9388 189.345 58.85 188.9 58.85H188.886Z" fill="#1A2D59"/>
<path d="M34.3859 33.6307C34.3859 37.6587 31.128 40.9166 27.1 40.9166C23.072 40.9166 19.8141 37.6587 19.8141 33.6307C19.8141 29.6027 23.072 26.3448 27.1 26.3448C31.128 26.3448 34.3859 29.6027 34.3859 33.6307Z" fill="#6BCCE3"/>
<path d="M27.1 41.894C22.5389 41.894 18.8367 38.1918 18.8367 33.6307C18.8367 29.0696 22.5389 25.3674 27.1 25.3674C31.6611 25.3674 35.3633 29.0696 35.3633 33.6307C35.3633 38.1918 31.6611 41.894 27.1 41.894ZM27.1 27.3221C23.62 27.3221 20.7915 30.1506 20.7915 33.6307C20.7915 37.1107 23.62 39.9392 27.1 39.9392C30.5801 39.9392 33.4085 37.1107 33.4085 33.6307C33.4085 30.1506 30.5801 27.3221 27.1 27.3221Z" fill="#1A2D59"/>
<path d="M24.9824 29.6323C24.2123 30.0173 23.6348 30.7874 23.5015 31.6315C23.2349 33.2308 24.701 34.8746 26.3151 34.8006C27.9293 34.7265 29.2473 32.9643 28.8474 31.3946C28.4476 29.8248 26.4484 28.9067 24.9972 29.6175L24.9824 29.6323Z" fill="white"/>
<path d="M141.675 67.4835C143.645 68.2239 145.659 66.669 147.229 65.2918C148.813 63.9146 151.034 62.5225 152.856 63.5888C154.692 64.655 154.559 67.3058 155.403 69.2605C156.499 71.8224 159.461 73.2145 162.245 73.17C165.029 73.1256 167.665 71.9113 170.064 70.5045C173.796 68.3276 177.409 65.3362 178.594 61.1898C179.778 57.0433 177.364 51.7122 173.07 51.2531C171.145 51.0458 168.864 51.7122 167.457 50.3646C165.962 48.9429 166.776 46.307 168.287 44.9149C169.797 43.5081 171.841 42.7677 173.336 41.346C174.832 39.9244 175.573 37.2588 174.018 35.8964C173.218 34.0601 170.389 34.6673 168.864 35.9705C167.339 37.2736 165.799 39.0951 163.814 38.8434C162.363 38.6656 161.282 37.3477 160.808 35.9705C160.334 34.5932 160.305 33.0976 160.038 31.6611C159.52 28.7882 157.876 25.9597 155.211 24.8047C152.545 23.6496 148.858 24.8343 147.984 27.6183C147.421 29.4102 148.058 31.3501 148.043 33.2308C148.013 35.1115 146.681 37.3477 144.83 37.0071C145.378 31.4242 140.032 26.1671 134.419 26.3892C128.807 26.6261 124.023 31.8536 123.846 37.4661C123.668 43.0787 127.725 48.4246 133.057 50.2017C135.811 51.1198 139.276 51.5196 140.55 54.126C141.616 56.3029 140.55 58.8352 139.898 61.1601C139.247 63.4851 139.454 66.6394 141.72 67.4983L141.675 67.4835Z" fill="#FAD80C"/>
<path d="M162.111 74.1326C159.283 74.1326 155.832 72.7406 154.5 69.6307C154.189 68.9199 154.011 68.1647 153.833 67.4242C153.508 66.0915 153.241 64.9364 152.352 64.4181C151.286 63.7961 149.716 64.3884 147.865 66.0174C146.31 67.3798 144.593 68.6534 142.712 68.6534C142.238 68.6534 141.764 68.5645 141.32 68.4016C138.521 67.3502 138.106 63.7665 138.906 60.8936C139.01 60.5234 139.113 60.1531 139.232 59.7829C139.809 57.8578 140.357 56.0363 139.632 54.5406C138.802 52.8524 136.714 52.2601 134.508 51.6381C133.901 51.4604 133.294 51.2975 132.716 51.105C126.793 49.1206 122.646 43.36 122.839 37.4069C123.046 31.1428 128.318 25.6339 134.36 25.3822C137.47 25.2489 140.728 26.7002 142.993 29.188C144.726 31.1132 145.733 33.4678 145.822 35.8076C146.518 35.3337 147.021 34.1786 147.036 33.1716C147.036 32.5644 146.977 31.9277 146.903 31.2613C146.755 29.9729 146.607 28.6253 147.036 27.2777C147.762 24.9676 150.22 23.3386 153.004 23.3386C153.907 23.3386 154.796 23.5163 155.581 23.8569C158.32 25.0416 160.349 27.8701 161.001 31.439C161.09 31.9425 161.164 32.4608 161.223 32.9643C161.341 33.8972 161.445 34.7858 161.726 35.6002C162.052 36.5332 162.822 37.6883 163.933 37.8216C165.177 37.9696 166.287 36.9182 167.413 35.8964C167.679 35.6447 167.961 35.4077 168.227 35.1708C169.279 34.2674 170.73 33.7195 172.018 33.7195C173.307 33.7195 174.299 34.2823 174.817 35.2596C175.484 35.9112 175.839 36.7849 175.854 37.8067C175.884 39.2728 175.158 40.9314 174.003 42.0124C173.174 42.8121 172.211 43.3896 171.278 43.9524C170.419 44.4707 169.619 44.9594 168.953 45.5813C168.183 46.2922 167.65 47.4028 167.635 48.3358C167.635 48.8689 167.798 49.2983 168.124 49.6093C168.79 50.2461 169.945 50.2313 171.219 50.2017C171.885 50.1869 172.537 50.172 173.174 50.2313C175.173 50.4534 176.965 51.5937 178.223 53.4448C179.778 55.7401 180.282 58.7907 179.541 61.4119C178.475 65.1585 175.543 68.4016 170.567 71.3041C168.39 72.5777 165.473 74.0437 162.274 74.103H162.141L162.111 74.1326ZM151.449 62.2264C152.13 62.2264 152.767 62.3893 153.345 62.7299C154.944 63.6628 155.373 65.4251 155.744 66.9652C155.907 67.6464 156.055 68.298 156.306 68.8607C157.284 71.156 159.935 72.1779 162.111 72.1779V73.1552L162.215 72.1779C164.955 72.1334 167.576 70.8006 169.545 69.6456C174.062 67.0096 176.698 64.1515 177.616 60.9084C178.194 58.8648 177.779 56.3917 176.565 54.5702C175.647 53.193 174.343 52.3637 172.922 52.2008C172.374 52.1416 171.796 52.1564 171.234 52.1712C169.723 52.2157 168.05 52.2897 166.747 51.0458C166.021 50.3498 165.651 49.4168 165.651 48.3358C165.651 46.8549 166.406 45.2555 167.591 44.1597C168.405 43.4044 169.338 42.8417 170.227 42.2938C171.1 41.7607 171.93 41.2572 172.611 40.6056C173.366 39.88 173.87 38.7841 173.855 37.8512C173.855 37.3181 173.662 36.9034 173.336 36.5924L173.174 36.4443L173.085 36.2518C173.025 36.1037 172.833 35.6891 171.974 35.6891C171.115 35.6891 170.153 36.0889 169.457 36.6813C169.205 36.9034 168.953 37.1255 168.701 37.3625C167.324 38.6064 165.74 40.0429 163.652 39.7911C161.652 39.5394 160.379 37.8067 159.846 36.2666C159.49 35.2596 159.372 34.223 159.238 33.2308C159.179 32.757 159.12 32.2831 159.031 31.8092C158.631 29.5583 157.299 26.7594 154.781 25.6784C154.233 25.4414 153.611 25.323 152.974 25.323C151.39 25.323 149.435 26.1226 148.872 27.8849C148.576 28.8326 148.695 29.9137 148.828 31.0539C148.902 31.75 148.991 32.4756 148.976 33.216C148.932 35.7039 147.14 38.3843 144.607 37.94L143.719 37.7771L143.808 36.8738C144.03 34.6821 143.186 32.3571 141.512 30.506C139.706 28.5217 137.173 27.337 134.73 27.337H134.404C129.443 27.5443 124.941 32.2831 124.764 37.4661C124.601 42.5011 128.273 47.5509 133.308 49.2391C133.856 49.4168 134.434 49.5797 135.011 49.7426C137.425 50.4238 140.165 51.1939 141.364 53.6669C142.431 55.8438 141.72 58.228 141.083 60.3309C140.979 60.6863 140.861 61.0417 140.772 61.3971C140.194 63.4555 140.431 65.9582 141.986 66.5505C142.223 66.6394 142.445 66.6838 142.697 66.6838C143.926 66.6838 145.333 65.6028 146.547 64.5365C148.31 62.9964 149.953 62.2116 151.405 62.2116L151.449 62.2264Z" fill="#1A2D59"/>
<path d="M133.856 31.1872C132.464 31.0539 131.309 32.1646 130.435 33.2605C129.354 34.6229 128.377 36.1185 127.844 37.7919C127.311 39.4653 127.237 41.3164 127.903 42.9306C128.57 44.5447 130.036 45.8775 131.753 46.1293C133.486 46.381 135.382 45.4036 135.974 43.7599C136.359 42.6788 136.166 41.4793 136.107 40.339C136.033 38.9026 136.152 37.4661 136.492 36.0593C136.7 35.156 137.011 34.2082 136.759 33.3049C136.463 32.2238 135.426 31.4686 134.33 31.2317C133.234 30.9799 134.967 31.3057 133.856 31.202V31.1872Z" fill="white"/>
<path d="M151.538 28.6253C150.694 29.425 150.738 30.9651 151.627 31.7055C152.515 32.446 154.041 32.2238 154.677 31.2613C155.314 30.2839 154.914 28.803 153.878 28.2847C153.122 27.9145 152.145 28.0478 151.538 28.6253Z" fill="white"/>
<path d="M158.987 66.4617C158.32 65.1437 158.128 63.5295 157.032 62.5522C155.995 61.634 154.485 61.56 153.108 61.5452C150.901 61.5155 148.709 61.4859 146.503 61.4415C148.013 58.9981 150.294 56.8804 153.108 56.2733C155.907 55.6661 159.209 56.9396 160.32 59.5756C160.779 60.6418 160.853 61.8265 161.193 62.9372C161.534 64.0478 162.245 65.1733 163.37 65.4399C164.451 65.7064 165.725 65.1437 166.658 65.7657C167.472 66.3136 167.517 67.6019 166.924 68.4016C166.332 69.1865 165.295 69.5271 164.318 69.5715C162.141 69.6604 159.979 68.3868 158.987 66.4469V66.4617Z" fill="white"/>
<path d="M110.147 8.60388C107.778 7.34514 105.009 7.00454 102.314 7.03416C100.774 7.03416 99.189 7.18224 97.8414 7.92268C95.3684 9.27028 94.3465 12.2913 94.0356 15.0901C93.6209 18.8515 94.1392 22.7611 95.9459 26.0782C97.7526 29.3954 100.907 32.0609 104.594 32.8458C108.282 33.6307 112.458 32.3719 114.783 29.3954C116.708 26.9223 117.241 23.6051 117.004 20.4953C116.649 15.7417 114.368 10.8548 110.147 8.61869V8.60388Z" fill="#FAD80C"/>
<path d="M106.801 34.0453C105.986 34.0453 105.172 33.9565 104.387 33.7936C100.581 32.9791 97.101 30.2691 95.0722 26.5373C93.2803 23.2349 92.5843 19.2218 93.0434 14.9716C93.3396 12.2765 94.3317 8.70755 97.3527 7.04897C98.9225 6.19006 100.729 6.05678 102.284 6.04197H102.521C105.809 6.04197 108.459 6.58989 110.592 7.73017C114.709 9.92186 117.537 14.7791 117.967 20.4065C118.174 23.1017 117.922 26.9519 115.553 29.9877C113.568 32.5348 110.296 34.0453 106.801 34.0453ZM102.536 7.99673H102.314C100.996 7.99673 99.5 8.10039 98.3005 8.76678C95.9015 10.0848 95.2055 13.3575 94.9981 15.179C94.702 17.8742 94.776 21.8577 96.79 25.6043C98.5522 28.8326 101.529 31.1872 104.787 31.8832C105.438 32.0165 106.105 32.0906 106.786 32.0906C109.688 32.0906 112.369 30.8614 113.998 28.7882C115.982 26.2411 116.189 22.9091 116.012 20.5545C115.716 16.6747 113.894 11.7137 109.674 9.46279C107.823 8.48541 105.498 7.99673 102.521 7.99673H102.536Z" fill="#1A2D59"/>
<path d="M99.1594 11.4027C97.9451 12.4986 97.6933 14.2904 97.5749 15.9342C97.3972 18.4665 97.4268 21.2209 98.9521 23.2497C99.4408 23.9161 100.211 24.5085 101.025 24.3604C101.855 24.2123 102.373 23.3386 102.491 22.5093C102.61 21.68 102.447 20.8359 102.462 19.9918C102.521 18.1703 103.528 16.4081 105.068 15.4603C105.646 15.1049 106.282 14.8532 106.816 14.4533C107.363 14.0535 107.823 13.4612 107.823 12.7948C107.823 12.1136 107.349 11.5064 106.756 11.1658C106.164 10.8252 105.483 10.7067 104.816 10.5883C102.862 10.2625 100.611 10.07 99.1446 11.3879L99.1594 11.4027Z" fill="white"/>
<path d="M194.291 41.5089C193.121 40.3094 191.462 39.5838 189.789 39.5542C185.835 39.4653 182.429 43.7451 183.377 47.5805C184.325 51.416 189.345 53.5929 192.795 51.6825C196.246 49.7574 197.045 44.3522 194.291 41.5237V41.5089Z" fill="#FAD80C"/>
<path d="M189.952 53.3559C186.442 53.3559 183.199 50.9717 182.414 47.8026C181.896 45.7442 182.459 43.3896 183.91 41.5385C185.376 39.6726 187.523 38.562 189.656 38.562C191.729 38.6064 193.624 39.4209 194.972 40.8129C196.483 42.3678 197.164 44.6928 196.823 47.0622C196.468 49.4316 195.135 51.4604 193.254 52.5118C192.277 53.0598 191.122 53.3411 189.937 53.3411L189.952 53.3559ZM189.759 40.5316C188.116 40.5316 186.546 41.3608 185.465 42.7529C184.384 44.1301 183.954 45.8479 184.325 47.3288C184.887 49.6093 187.36 51.3864 189.952 51.3864C190.811 51.3864 191.61 51.1939 192.306 50.794C193.669 50.0388 194.631 48.5283 194.898 46.766C195.15 45.0038 194.661 43.286 193.58 42.1605C192.588 41.1387 191.196 40.5316 189.759 40.5019V40.5316Z" fill="#1A2D59"/>
<path d="M186.309 43.982C185.687 44.8705 185.287 46.1737 186.013 46.9882C186.812 47.8619 188.293 47.462 189.241 46.7364C189.848 46.2773 190.396 45.685 190.648 44.9742C190.9 44.2486 190.796 43.3748 190.248 42.8417C189.685 42.2938 188.797 42.2198 188.056 42.4863C187.331 42.7677 186.753 43.3452 186.309 43.982Z" fill="white"/>
<path d="M145.659 74.3103C141.72 75.88 138.284 78.6937 136.033 82.307C135.278 83.5065 134.804 84.9134 134.893 86.335C135.159 90.4222 139.336 91.6514 142.845 91.5329C147.391 91.3848 152.115 89.5485 154.663 85.7723C156.677 82.7661 154.011 78.3235 150.931 75.3617C149.524 74.0141 147.48 73.5847 145.674 74.3103H145.659Z" fill="#FAD80C"/>
<path d="M142.401 92.5251C138.491 92.5251 134.212 90.9109 133.93 86.3943C133.827 84.8838 134.271 83.2844 135.219 81.7887C137.544 78.0569 141.127 75.0804 145.318 73.407C147.451 72.5629 149.968 73.0516 151.627 74.6657C154.9 77.82 157.876 82.7809 155.492 86.335C153.004 90.0372 148.31 92.3474 142.904 92.5251C142.742 92.5251 142.593 92.5251 142.431 92.5251H142.401ZM147.48 74.9471C146.977 74.9471 146.488 75.0359 146.029 75.2285C142.238 76.7389 138.98 79.449 136.877 82.8253C136.374 83.625 135.796 84.8838 135.885 86.2758C136.137 90.2593 140.935 90.5703 142.401 90.5703H142.816C147.584 90.4074 151.716 88.4082 153.848 85.2392C155.447 82.855 153.197 78.9158 150.25 76.0726C149.494 75.3469 148.517 74.9471 147.48 74.9471Z" fill="#1A2D59"/>
<path d="M151.508 79.8488C150.872 78.205 149.169 77.124 147.406 76.9611C145.644 76.7982 143.897 77.4498 142.475 78.4864C141.053 79.523 139.943 80.9298 138.98 82.3959C138.743 82.7661 138.506 83.1808 138.61 83.6102C138.817 84.3951 139.958 84.3951 140.728 84.0989C142.134 83.551 143.378 82.6328 144.77 81.996C146.148 81.3593 147.806 81.0483 149.169 81.7147C149.642 81.9516 150.102 82.307 150.635 82.2626C151.123 82.2182 151.538 81.7887 151.671 81.3148C151.805 80.841 151.701 80.3227 151.523 79.8636L151.508 79.8488Z" fill="white"/>
<path d="M30.2249 64.4233C32.1138 56.4574 27.1874 48.4684 19.2215 46.5795C11.2556 44.6905 3.26662 49.6169 1.37768 57.5828C-0.511262 65.5488 4.41511 73.5377 12.381 75.4267C20.347 77.3156 28.3359 72.3892 30.2249 64.4233Z" fill="#E33B46"/>
<path d="M15.8009 76.813C7.09339 76.813 0 69.7196 0 61.0121C0 52.3045 7.09339 45.2111 15.8009 45.2111C24.5085 45.2111 31.6019 52.3045 31.6019 61.0121C31.6019 69.7196 24.5085 76.813 15.8009 76.813ZM15.8009 47.1807C8.17443 47.1807 1.96956 53.3855 1.96956 61.0269C1.96956 68.6682 8.17443 74.8582 15.8009 74.8582C23.4274 74.8582 29.6471 68.6534 29.6471 61.0269C29.6471 53.4004 23.4423 47.1807 15.8009 47.1807Z" fill="#1A2D59"/>
<path d="M10.84 69.305C12.6319 72.4888 17.1485 73.5106 20.4509 71.9409C23.7532 70.3712 25.7524 66.7282 26.019 63.0705C26.2855 59.4275 25.0268 55.7994 23.1757 52.6451C24.0642 56.4658 23.2053 60.6566 20.8655 63.8109C18.5257 66.9652 14.7643 69.0236 10.8548 69.2901L10.84 69.305Z" fill="#1A2D59"/>
<path d="M10.9289 58.6723C12.2024 57.5912 13.476 56.5102 14.4978 55.1922C15.1642 54.3333 15.7269 53.2819 15.5048 52.2157C15.253 51.0458 14.0535 50.2461 12.8688 50.1572C11.6693 50.0684 10.5142 50.5719 9.50722 51.2235C7.4488 52.5563 5.83465 54.5702 4.99055 56.8656C4.70918 57.6505 4.51667 58.5242 4.84246 59.2794C5.31634 60.3753 6.73798 60.7899 7.90787 60.5234C9.07776 60.242 10.0255 59.4423 10.9437 58.6723H10.9289Z" fill="white"/>
</svg>
