<svg width="233" height="158" viewBox="0 0 233 158" fill="none" xmlns="http://www.w3.org/2000/svg">
<g id="Vector">
<path d="M24.3053 139.984C32.7293 136.576 36.7963 126.981 33.3894 118.553C29.9825 110.125 20.3917 106.056 11.9678 109.464C3.54386 112.873 -0.523238 122.468 2.88367 130.896C6.29059 139.324 15.8814 143.393 24.3053 139.984Z" fill="#E33B46"/>
<path d="M18.1348 142.268C15.7938 142.268 13.5022 141.807 11.3425 140.883C2.42357 137.122 -1.78037 126.814 1.97845 117.89C4.73162 111.359 11.0787 107.136 18.1513 107.136C20.4923 107.136 22.7838 107.598 24.96 108.522C29.2794 110.336 32.626 113.734 34.4065 118.072C36.1705 122.41 36.154 127.193 34.3241 131.514C31.5709 138.046 25.2238 142.268 18.1513 142.268H18.1348ZM18.1348 109.347C11.936 109.347 6.38022 113.041 3.97326 118.765C0.692533 126.583 4.36892 135.605 12.1668 138.887C14.0627 139.695 16.074 140.091 18.1183 140.091C24.3171 140.091 29.8729 136.397 32.2798 130.673C33.879 126.896 33.8955 122.707 32.3458 118.913C30.7961 115.103 27.8616 112.134 24.0862 110.551C22.1739 109.742 20.1791 109.347 18.1348 109.347Z" fill="#1A2D59"/>
<path d="M60.5204 110.501C59.9269 111.92 58.8389 113.124 57.3386 113.833L29.5431 127.16C26.3119 128.71 22.4376 127.341 20.888 124.109C19.3383 120.876 20.7066 117 23.9379 115.449L51.7334 102.122C54.9646 100.572 58.8389 101.941 60.3885 105.174C61.2293 106.922 61.2128 108.852 60.5204 110.501Z" fill="#6BCCE3"/>
<path d="M26.7405 128.892C23.839 128.892 21.1517 127.193 19.8988 124.57C18.0853 120.793 19.6845 116.258 23.4598 114.443L51.2553 101.116C52.2939 100.621 53.382 100.374 54.5195 100.374C57.4211 100.374 60.1083 102.073 61.3612 104.695C62.3009 106.658 62.3504 108.918 61.5096 110.913C60.7842 112.629 59.4653 114.014 57.8002 114.806L30.0047 128.133C28.9661 128.628 27.878 128.875 26.7405 128.875V128.892ZM54.536 102.568C53.7282 102.568 52.9368 102.749 52.2115 103.095L24.416 116.422C21.7287 117.709 20.5912 120.942 21.8771 123.63C22.7674 125.494 24.6797 126.698 26.757 126.698C27.5648 126.698 28.3561 126.517 29.0815 126.17L56.877 112.843C58.064 112.266 59.0037 111.276 59.5148 110.072C60.1083 108.654 60.0753 107.037 59.4159 105.635C58.5256 103.772 56.6132 102.568 54.536 102.568Z" fill="#1A2D59"/>
<path d="M40.8526 14.9024C52.7555 19.9165 58.3443 33.623 53.3325 45.5316C48.3208 57.4402 34.6208 63.0316 22.7179 58.0175C10.815 53.0033 5.2262 39.2969 10.238 27.3883C15.2497 15.4797 28.9496 9.88823 40.8526 14.9024Z" fill="#E33B46"/>
<path d="M31.7687 60.9534C28.5045 60.9534 25.3227 60.3101 22.2893 59.0236C9.85878 53.7785 3.98974 39.3959 9.23231 26.9594C13.0571 17.8548 21.9266 11.9665 31.8017 11.9665C35.066 11.9665 38.2478 12.6097 41.2812 13.8963C53.7117 19.1413 59.5807 33.524 54.3382 45.9604C50.5134 55.0651 41.6439 60.9534 31.7687 60.9534ZM31.7852 14.1602C22.7838 14.1602 14.7222 19.5207 11.2271 27.8171C6.46265 39.1484 11.7876 52.2611 23.1301 57.0279C25.8832 58.1824 28.8013 58.7762 31.7687 58.7762C40.7701 58.7762 48.8318 53.4157 52.3269 45.1192C57.0913 33.7879 51.7499 20.6753 40.4239 15.9085C37.6543 14.7539 34.7527 14.1602 31.7852 14.1602Z" fill="#1A2D59"/>
<path d="M200.866 46.5707C207.691 49.4407 210.906 57.3247 208.038 64.1532C205.169 70.9817 197.289 74.198 190.464 71.3281C183.638 68.4581 180.424 60.574 183.292 53.7456C186.161 46.9171 194.041 43.7008 200.866 46.5707Z" fill="#E33B46"/>
<path d="M195.657 73.4723C193.728 73.4723 191.832 73.0929 190.035 72.3342C182.666 69.2334 179.187 60.706 182.286 53.3167C184.562 47.9232 189.804 44.4265 195.673 44.4265C197.602 44.4265 199.498 44.8059 201.295 45.5646C204.872 47.0655 207.642 49.8695 209.109 53.4652C210.577 57.0608 210.544 61.0029 209.043 64.5821C206.768 69.9756 201.526 73.4723 195.657 73.4723ZM195.657 46.6037C190.678 46.6037 186.21 49.5726 184.281 54.1579C181.643 60.4256 184.595 67.6829 190.859 70.322C192.392 70.9652 193.992 71.2951 195.64 71.2951C200.619 71.2951 205.087 68.3262 207.016 63.7409C208.301 60.706 208.318 57.3577 207.065 54.2899C205.829 51.2385 203.471 48.8469 200.438 47.5768C198.904 46.9336 197.305 46.6037 195.657 46.6037Z" fill="#1A2D59"/>
<path d="M147.336 130.261C154.392 133.23 157.706 141.361 154.738 148.421C151.771 155.48 143.643 158.795 136.587 155.826C129.531 152.858 126.217 144.726 129.185 137.667C132.152 130.607 140.28 127.292 147.336 130.261Z" fill="#E33B46"/>
<path d="M141.962 157.987C139.967 157.987 138.021 157.591 136.175 156.816C132.499 155.266 129.646 152.379 128.13 148.685C126.63 144.99 126.646 140.916 128.196 137.238C130.537 131.679 135.944 128.084 141.978 128.084C143.973 128.084 145.918 128.48 147.765 129.255C155.365 132.455 158.942 141.246 155.744 148.833C153.403 154.391 147.995 157.987 141.962 157.987ZM141.962 130.261C136.818 130.261 132.185 133.329 130.191 138.079C128.872 141.229 128.855 144.693 130.141 147.86C131.427 151.027 133.867 153.484 137.016 154.804C138.598 155.464 140.264 155.81 141.962 155.81C147.105 155.81 151.738 152.742 153.733 147.992C156.469 141.493 153.403 134.005 146.924 131.267C145.341 130.607 143.676 130.261 141.978 130.261H141.962Z" fill="#1A2D59"/>
<path d="M146.446 142.45C145.275 145.221 142.291 146.903 139.225 146.309C135.697 145.633 133.405 142.219 134.081 138.689L140.395 106.097C141.088 102.584 144.484 100.275 148.012 100.951C151.54 101.627 153.832 105.042 153.156 108.571L146.841 141.163C146.759 141.609 146.627 142.054 146.446 142.45Z" fill="#6BCCE3"/>
<path d="M140.461 147.514C139.983 147.514 139.489 147.464 139.011 147.365C137.016 146.986 135.301 145.848 134.164 144.165C133.026 142.483 132.614 140.471 133.01 138.475L139.324 105.883C140.016 102.32 143.149 99.7306 146.759 99.7306C147.237 99.7306 147.732 99.7801 148.21 99.8791C150.205 100.258 151.919 101.396 153.057 103.079C154.194 104.761 154.606 106.774 154.211 108.769L147.897 141.361C147.798 141.889 147.633 142.384 147.435 142.862C146.248 145.683 143.511 147.497 140.461 147.497V147.514ZM146.759 101.924C144.187 101.924 141.962 103.772 141.45 106.312L135.136 138.904C134.856 140.322 135.153 141.757 135.961 142.961C136.768 144.165 137.988 144.973 139.406 145.237C141.912 145.716 144.434 144.363 145.407 142.038C145.556 141.691 145.654 141.328 145.737 140.965L152.051 108.373C152.331 106.955 152.035 105.52 151.227 104.316C150.419 103.112 149.199 102.304 147.781 102.04C147.435 101.974 147.089 101.941 146.743 101.941L146.759 101.924Z" fill="#1A2D59"/>
<path d="M198.377 64.2192C197.932 65.2913 197.173 66.2645 196.168 66.9737L158.909 93.5784C155.991 95.6566 151.936 94.9804 149.858 92.0609C147.781 89.1415 148.457 85.084 151.375 83.0058L188.634 56.4011C191.552 54.3228 195.607 54.9991 197.684 57.9185C199.036 59.8318 199.234 62.2069 198.377 64.2192Z" fill="#6BCCE3"/>
<path d="M155.134 95.8875C152.678 95.8875 150.369 94.7 148.952 92.7042C147.781 91.0548 147.303 89.0426 147.649 87.0468C147.979 85.051 149.084 83.3027 150.732 82.1151L187.991 55.5104C189.277 54.5868 190.81 54.0919 192.392 54.0919C194.849 54.0919 197.157 55.2795 198.575 57.2753C200.108 59.436 200.421 62.1905 199.383 64.6316C198.838 65.9181 197.948 67.0397 196.794 67.8644L159.536 94.4691C158.25 95.3927 156.717 95.8875 155.134 95.8875ZM192.392 56.2856C191.271 56.2856 190.183 56.632 189.26 57.2918L152.002 83.8965C150.831 84.7376 150.056 85.9747 149.809 87.4097C149.578 88.8281 149.908 90.2631 150.749 91.4507C151.754 92.8691 153.403 93.7103 155.15 93.7103C156.271 93.7103 157.36 93.364 158.283 92.7042L195.541 66.0995C196.366 65.5222 196.992 64.7305 197.388 63.8069C198.13 62.0585 197.899 60.0957 196.811 58.5618C195.805 57.1433 194.156 56.3021 192.409 56.3021L192.392 56.2856Z" fill="#1A2D59"/>
<path d="M110.704 25.8708C109.847 27.9161 107.967 29.4665 105.61 29.7964L52.2279 37.9279C48.6834 38.4227 45.4027 35.9486 44.9081 32.3859C44.4136 28.8397 46.8865 25.541 50.4475 25.0626L103.829 16.9311C107.374 16.4363 110.655 18.9104 111.149 22.4731C111.314 23.6771 111.149 24.8482 110.704 25.8873V25.8708Z" fill="#6BCCE3"/>
<path d="M51.3212 39.0825C47.5624 39.0825 44.3311 36.262 43.8201 32.5344C43.5398 30.5221 44.0509 28.5264 45.2873 26.91C46.5073 25.2936 48.2878 24.2544 50.2991 23.974L103.664 15.8425C104.027 15.7931 104.39 15.7601 104.736 15.7601C108.495 15.7601 111.726 18.5805 112.237 22.3082C112.419 23.6607 112.237 25.0461 111.726 26.2997C110.688 28.7573 108.412 30.5056 105.775 30.885L52.4093 39.0165C52.0466 39.066 51.6839 39.099 51.3377 39.099L51.3212 39.0825ZM104.703 17.9538C104.456 17.9538 104.208 17.9703 103.945 18.0032L50.5793 26.1347C49.1286 26.3327 47.8756 27.0749 47.0019 28.2295C46.1281 29.384 45.7654 30.8025 45.9632 32.2375C46.3754 35.1404 49.0791 37.2516 52.0631 36.8393L105.428 28.7078C107.324 28.4439 108.94 27.1904 109.682 25.442C110.061 24.5513 110.193 23.5782 110.045 22.605C109.682 19.9495 107.374 17.9373 104.703 17.9373V17.9538Z" fill="#1A2D59"/>
<path d="M114.891 69.2334C114.595 69.9426 114.166 70.6023 113.606 71.1961L82.0182 104.415C79.5453 107.021 75.4403 107.12 72.8355 104.646C70.2307 102.172 70.1318 98.0647 72.6047 95.4587L104.192 62.2399C106.665 59.6339 110.77 59.5349 113.375 62.009C115.386 63.9223 115.897 66.8252 114.891 69.2334Z" fill="#6BCCE3"/>
<path d="M77.3032 107.516C75.3414 107.516 73.495 106.774 72.0772 105.421C70.6099 104.019 69.7691 102.139 69.7197 100.11C69.6702 98.0812 70.4121 96.1514 71.8134 94.6835L103.401 61.4647C104.851 59.9473 106.797 59.1061 108.891 59.1061C110.852 59.1061 112.699 59.8483 114.117 61.2008C116.392 63.3615 117.101 66.7593 115.881 69.6457C115.518 70.4869 115.023 71.2621 114.38 71.9384L82.7931 105.157C81.3423 106.675 79.397 107.516 77.3032 107.516ZM108.907 61.2998C107.407 61.2998 106.022 61.8936 104.983 62.9822L73.3796 96.2009C72.3904 97.24 71.8628 98.609 71.8958 100.06C71.9288 101.512 72.5223 102.848 73.5774 103.838C75.6711 105.833 79.2321 105.734 81.2104 103.64L112.798 70.4209C113.259 69.9426 113.606 69.3983 113.869 68.788C114.743 66.7263 114.232 64.3182 112.616 62.7677C111.611 61.8111 110.292 61.2833 108.891 61.2833L108.907 61.2998Z" fill="#1A2D59"/>
<path d="M87.0096 110.597C90.8741 100.294 85.659 88.8083 75.3614 84.942C65.0638 81.0757 53.5832 86.2933 49.7187 96.5958C45.8543 106.898 51.0694 118.384 61.367 122.251C71.6646 126.117 83.1452 120.899 87.0096 110.597Z" fill="#E33B46"/>
<path d="M68.3678 124.603C65.5652 124.603 62.8285 124.043 60.2237 122.954C49.5407 118.451 44.5125 106.114 49.0132 95.4257C52.2939 87.6076 59.9104 82.5604 68.3843 82.5604C71.1869 82.5604 73.9236 83.1212 76.5284 84.2098C87.2114 88.7127 92.2396 101.05 87.7389 111.738C84.4417 119.556 76.8416 124.603 68.3678 124.603ZM68.3843 84.7376C60.7842 84.7376 53.9755 89.257 51.0245 96.2669C47.0019 105.833 51.5026 116.901 61.0645 120.942C63.389 121.931 65.8454 122.426 68.3513 122.426C75.9514 122.426 82.7601 117.907 85.7111 110.897C89.7337 101.331 85.233 90.2631 75.6711 86.2221C73.3301 85.2325 70.8902 84.7376 68.3678 84.7376H68.3843Z" fill="#1A2D59"/>
<path d="M112.336 10.2346C119.392 13.2035 122.706 21.335 119.738 28.3944C116.771 35.4538 108.643 38.7691 101.587 35.8002C94.5312 32.8313 91.2175 24.6998 94.185 17.6404C97.1525 10.581 105.28 7.2657 112.336 10.2346Z" fill="#E33B46"/>
<path d="M106.962 37.9609C104.967 37.9609 103.021 37.565 101.175 36.7898C93.575 33.59 89.9975 24.7987 93.1958 17.2115C95.5368 11.6531 100.944 8.0574 106.978 8.0574C108.973 8.0574 110.918 8.45326 112.765 9.22847C116.441 10.7789 119.293 13.6653 120.81 17.36C122.31 21.0546 122.294 25.1286 120.744 28.8068C118.403 34.3652 112.996 37.9609 106.962 37.9609ZM106.962 10.2346C101.818 10.2346 97.1854 13.3025 95.1906 18.0527C92.4539 24.5513 95.5203 32.0396 101.999 34.7776C103.582 35.4373 105.247 35.7837 106.945 35.7837C112.089 35.7837 116.721 32.7158 118.716 27.9656C120.035 24.8152 120.052 21.3515 118.766 18.1847C117.48 15.0178 115.04 12.5602 111.891 11.2407C110.308 10.581 108.643 10.2346 106.945 10.2346H106.962Z" fill="#1A2D59"/>
<path d="M115.6 65.3078C114.644 67.5675 112.468 69.1839 109.847 69.2828C106.269 69.4148 103.252 66.6108 103.12 63.0316L101.604 33.2931C101.472 29.7139 104.274 26.6955 107.852 26.5636C111.429 26.4316 114.446 29.2356 114.578 32.8148L116.095 62.5533C116.128 63.5265 115.947 64.4666 115.6 65.3078Z" fill="#6BCCE3"/>
<path d="M109.616 70.3714C105.527 70.3714 102.197 67.1551 102.032 63.0646L100.516 33.3426C100.367 29.1531 103.631 25.6234 107.819 25.4585H108.099C112.188 25.4585 115.518 28.6583 115.683 32.7653L117.2 62.4873C117.249 63.6254 117.051 64.6975 116.606 65.7201C115.468 68.4252 112.831 70.256 109.896 70.3549H109.616V70.3714ZM108.116 27.6357H107.918C104.934 27.7511 102.609 30.2582 102.725 33.2436L104.241 62.9657C104.357 65.9016 106.731 68.1942 109.632 68.1942H109.83C111.924 68.1118 113.803 66.8087 114.611 64.879C114.924 64.1532 115.056 63.378 115.023 62.5863L113.507 32.8643C113.391 29.9283 111.017 27.6357 108.116 27.6357Z" fill="#1A2D59"/>
<path d="M150.04 99.5492C149.117 101.726 147.039 103.326 144.517 103.508L79.4794 108.192C75.9019 108.456 72.7861 105.751 72.5388 102.172C72.275 98.5925 74.9787 95.4752 78.5562 95.2278L143.594 90.5435C147.171 90.2796 150.287 92.9846 150.534 96.5638C150.617 97.6194 150.435 98.642 150.04 99.5492Z" fill="#6BCCE3"/>
<path d="M79.0178 109.297C75.0611 109.297 71.7474 106.196 71.4672 102.254C71.3188 100.225 71.9782 98.2791 73.2971 96.7452C74.616 95.2113 76.4624 94.2876 78.4902 94.1392L143.528 89.4549C147.699 89.1745 151.342 92.3413 151.639 96.4813C151.721 97.6854 151.54 98.8564 151.062 99.9615C149.941 102.617 147.484 104.382 144.616 104.596L79.5783 109.281C79.397 109.281 79.2156 109.297 79.0178 109.297ZM144.072 91.6156C143.94 91.6156 143.808 91.6156 143.676 91.6156L78.6386 96.2999C77.2043 96.3988 75.8854 97.0586 74.9457 98.1472C74.006 99.2358 73.5444 100.638 73.6433 102.073C73.8577 105.025 76.4295 107.301 79.4135 107.07L144.451 102.386C146.495 102.238 148.259 100.968 149.051 99.0873C149.38 98.2956 149.512 97.4709 149.463 96.6133C149.265 93.7928 146.891 91.5991 144.088 91.5991L144.072 91.6156Z" fill="#1A2D59"/>
<path d="M67.6259 90.2961C67.0489 91.6651 65.9938 92.8526 64.5595 93.5784C61.3612 95.1948 57.454 93.8918 55.8384 90.6919L35.4781 52.3601C33.8625 49.1438 35.1649 45.2512 38.3632 43.6348C41.5615 42.0184 45.4687 43.3214 47.0843 46.5212L67.4446 84.8531C68.3348 86.618 68.3348 88.5972 67.6259 90.2961Z" fill="#6BCCE3"/>
<path d="M61.6415 95.3597C58.7564 95.3597 56.1516 93.7598 54.8492 91.1703L34.5054 52.8549C33.5822 51.0241 33.4338 48.9623 34.0768 47.0325C34.7198 45.1027 36.0716 43.5523 37.8686 42.6452C38.9402 42.1009 40.0777 41.837 41.2647 41.837C44.1498 41.837 46.7546 43.4369 48.057 46.0264L68.4008 84.3418C69.4064 86.354 69.4888 88.6632 68.6151 90.7084C67.9227 92.3743 66.6368 93.7433 65.0211 94.5515C63.9495 95.0793 62.812 95.3597 61.625 95.3597H61.6415ZM41.2647 44.0306C40.4239 44.0306 39.5996 44.2286 38.8413 44.6079C37.5554 45.2512 36.5827 46.3728 36.1376 47.7418C35.6759 49.1108 35.7913 50.5787 36.4343 51.8653L56.7781 90.1806C57.7178 92.0444 59.5642 93.1825 61.625 93.1825C62.4658 93.1825 63.2901 92.9846 64.0485 92.6052C65.2025 92.0279 66.1092 91.0548 66.6038 89.8672C67.2138 88.3993 67.1643 86.7499 66.4554 85.3479L46.1116 47.0325C45.1719 45.1687 43.3255 44.0306 41.2647 44.0306Z" fill="#1A2D59"/>
<path d="M116.82 56.533C122.656 58.9906 125.41 65.7202 122.937 71.559C120.48 77.3978 113.754 80.1523 107.918 77.6782C102.082 75.2206 99.3286 68.4911 101.802 62.6523C104.258 56.8134 110.984 54.0589 116.82 56.533Z" fill="#E33B46"/>
<path d="M112.369 79.6905C110.688 79.6905 109.055 79.3606 107.506 78.7009C104.406 77.3978 102.016 74.9732 100.746 71.8559C99.477 68.7385 99.4935 65.3243 100.796 62.2399C102.758 57.5722 107.308 54.5373 112.386 54.5373C114.067 54.5373 115.699 54.8671 117.249 55.5269C120.348 56.8299 122.739 59.2545 124.008 62.3719C125.278 65.4892 125.261 68.9035 123.959 71.9878C121.997 76.6556 117.447 79.6905 112.369 79.6905ZM112.369 56.731C108.182 56.731 104.423 59.2215 102.791 63.0976C101.719 65.6542 101.703 68.4746 102.741 71.0477C103.78 73.6207 105.775 75.633 108.33 76.7051C109.616 77.2494 110.968 77.5298 112.353 77.5298C116.54 77.5298 120.299 75.0392 121.931 71.1631C123.003 68.6066 123.019 65.7861 121.98 63.2131C120.942 60.64 118.947 58.6278 116.392 57.5557C115.106 57.0114 113.754 56.731 112.369 56.731Z" fill="#1A2D59"/>
<path d="M145.902 91.8135C145.654 92.3743 145.341 92.9186 144.929 93.4299C142.654 96.2009 138.549 96.5968 135.779 94.3206L114.479 77.068C111.71 74.7918 111.314 70.7013 113.589 67.9138C115.864 65.1429 119.953 64.747 122.722 67.0232L144.022 84.2758C146.297 86.1396 146.973 89.224 145.885 91.8135H145.902Z" fill="#6BCCE3"/>
<path d="M139.917 96.8772C138.17 96.8772 136.455 96.2669 135.103 95.1453L113.803 77.8927C112.237 76.5896 111.265 74.7753 111.067 72.7631C110.869 70.7508 111.479 68.7715 112.765 67.2046C114.216 65.4563 116.342 64.4336 118.617 64.4336C120.365 64.4336 122.079 65.0439 123.431 66.1655L144.731 83.4181C147.303 85.5458 148.193 89.158 146.907 92.2259C146.627 92.9021 146.231 93.5454 145.77 94.1062C144.319 95.871 142.192 96.8772 139.917 96.8772ZM118.617 66.6273C117.002 66.6273 115.468 67.3531 114.446 68.5901C113.523 69.7117 113.094 71.1137 113.243 72.5486C113.375 73.9836 114.067 75.2866 115.188 76.2103L136.488 93.4629C137.461 94.2711 138.681 94.7 139.934 94.7C141.549 94.7 143.083 93.9742 144.105 92.7372C144.434 92.3248 144.715 91.8795 144.913 91.4012C145.836 89.224 145.193 86.6344 143.363 85.1335L122.063 67.8809C121.09 67.0891 119.87 66.6438 118.617 66.6438V66.6273Z" fill="#1A2D59"/>
<path d="M153.93 76.6226C165.388 81.4554 170.763 94.6505 165.949 106.13C161.118 117.594 147.93 122.971 136.455 118.154C124.997 113.322 119.623 100.126 124.437 88.6467C129.267 77.1834 142.456 71.8064 153.93 76.6226Z" fill="#E33B46"/>
<path d="M145.193 121.008C142.044 121.008 138.961 120.381 136.043 119.144C124.041 114.097 118.403 100.209 123.448 88.2178C127.141 79.4266 135.68 73.7527 145.209 73.7527C148.358 73.7527 151.441 74.3795 154.359 75.6C166.361 80.6471 171.999 94.535 166.954 106.526C163.262 115.317 154.722 120.991 145.193 120.991V121.008ZM145.209 75.9464C136.571 75.9464 128.806 81.0925 125.459 89.0755C120.876 99.9615 126.003 112.563 136.9 117.148C139.555 118.27 142.341 118.831 145.209 118.831C153.848 118.831 161.613 113.684 164.96 105.701C169.543 94.8154 164.416 82.2141 153.518 77.6288C150.864 76.5072 148.078 75.9464 145.209 75.9464Z" fill="#1A2D59"/>
<path d="M29.3123 20.3784C23.3114 19.4052 16.8818 22.9679 14.5078 28.5593C12.1339 34.1508 14.0627 41.2597 18.9261 44.8883C17.3929 35.6517 21.5969 25.7059 29.3123 20.3784Z" fill="#FAD80C"/>
<path d="M128.064 103.244C129.053 105.668 131.081 108.126 133.686 107.961C131.74 103.871 131.41 99.0214 132.779 94.7C134.147 90.3786 137.214 86.6179 141.154 84.3913C136.571 83.1707 131.443 85.5623 128.905 89.5704C126.366 93.5784 126.267 98.8564 128.064 103.26V103.244Z" fill="#FAD80C"/>
<path d="M190.117 52.0797C193.382 50.9251 197.124 51.288 200.108 53.0363C199.861 50.7107 197.833 48.6984 195.492 48.484C193.167 48.2696 190.793 49.853 190.101 52.0797H190.117Z" fill="#FAD80C"/>
<path d="M55.0635 95.8216C53.0358 99.7801 52.3269 104.464 53.5139 108.753C54.6844 113.041 57.8332 116.818 61.9712 118.435C59.0532 111.969 59.6796 104.036 63.5704 98.1142C60.6688 97.6194 57.8332 96.8442 55.08 95.8216H55.0635Z" fill="#FAD80C"/>
<path d="M8.96853 130.723C8.25963 126.715 9.06745 122.459 11.1942 118.996C13.3209 115.532 16.75 112.876 20.6242 111.689C15.8432 110.518 10.4193 112.744 7.84748 116.934C5.27566 121.123 5.75375 126.979 8.96853 130.706V130.723Z" fill="#FAD80C"/>
<path d="M110.836 14.7539C108.544 13.0386 105.379 12.5602 102.692 13.5499C100.005 14.5395 97.8943 16.9476 97.2678 19.7516C96.6414 22.5556 97.5316 25.6234 99.5429 27.6687C98.9659 24.5678 100.301 21.302 102.527 19.0588C104.753 16.8157 107.769 15.4962 110.836 14.7539Z" fill="#FAD80C"/>
<path d="M163.937 85.7603C163.674 85.7603 163.426 85.6448 163.262 85.4139C162.998 85.0345 163.08 84.5067 163.443 84.2428L187.562 66.8252C187.941 66.5613 188.469 66.6438 188.732 67.0067C188.996 67.386 188.914 67.9138 188.551 68.1777L164.432 85.5953C164.284 85.7108 164.119 85.7603 163.937 85.7603Z" fill="#1A2D59"/>
<path d="M128.08 81.9832C127.882 81.9832 127.668 81.9172 127.52 81.7687L122.689 77.3649C122.343 77.0515 122.327 76.5237 122.64 76.1773C122.953 75.8309 123.481 75.8144 123.827 76.1278L128.657 80.5317C129.004 80.8451 129.02 81.3729 128.707 81.7193C128.542 81.9007 128.311 81.9996 128.08 81.9996V81.9832Z" fill="#1A2D59"/>
<path d="M71.8793 32.2705C71.4672 32.2705 71.121 31.9736 71.055 31.5612C70.9891 31.0994 71.3023 30.6706 71.7639 30.6046L93.575 27.2398C94.0366 27.1739 94.4652 27.4872 94.5312 27.9491C94.5971 28.4109 94.2839 28.8397 93.8223 28.9057L72.0112 32.2705C72.0112 32.2705 71.9288 32.2705 71.8793 32.2705Z" fill="#1A2D59"/>
<path d="M59.284 34.3652C58.8718 34.3652 58.5091 34.0683 58.4597 33.6395C58.3937 33.1776 58.707 32.7488 59.1686 32.6828L67.7743 31.4293C68.2359 31.3798 68.6646 31.6767 68.7305 32.1385C68.7964 32.6004 68.4832 33.0292 68.0216 33.0952L59.4159 34.3487C59.4159 34.3487 59.3334 34.3487 59.3005 34.3487L59.284 34.3652Z" fill="#1A2D59"/>
<path d="M66.8346 91.4342C66.5378 91.4342 66.2411 91.2692 66.0927 90.9888L58.13 76.0948C57.9156 75.6825 58.064 75.1712 58.4762 74.9567C58.8883 74.7258 59.3994 74.8908 59.6137 75.3031L67.5765 90.1971C67.7908 90.6095 67.6424 91.1208 67.2303 91.3352C67.0984 91.4012 66.9665 91.4342 66.8346 91.4342Z" fill="#1A2D59"/>
<path d="M144.434 133.593C144.434 133.593 144.319 133.593 144.27 133.576C143.808 133.477 143.528 133.048 143.61 132.587L146.133 120.2C146.231 119.738 146.677 119.457 147.122 119.54C147.583 119.639 147.864 120.068 147.781 120.529L145.259 132.916C145.176 133.312 144.83 133.593 144.434 133.593Z" fill="#1A2D59"/>
<path d="M143.182 140.949C143.182 140.949 143.116 140.949 143.083 140.949C142.621 140.899 142.291 140.471 142.357 140.009L142.769 136.644C142.819 136.182 143.247 135.852 143.709 135.918C144.171 135.968 144.5 136.397 144.434 136.858L144.022 140.223C143.973 140.652 143.61 140.965 143.198 140.965L143.182 140.949Z" fill="#1A2D59"/>
<path d="M45.8643 115.548C45.5511 115.548 45.2543 115.367 45.106 115.07C44.9081 114.658 45.0895 114.146 45.5016 113.948L49.4913 112.068C49.9034 111.87 50.4145 112.052 50.6123 112.464C50.8102 112.876 50.6288 113.388 50.2166 113.586L46.227 115.466C46.1116 115.515 45.9962 115.548 45.8643 115.548Z" fill="#1A2D59"/>
<path d="M27.4164 123.531C27.0867 123.531 26.7735 123.333 26.6416 123.02C26.4602 122.591 26.6581 122.096 27.0867 121.915L42.1879 115.614C42.6166 115.449 43.1112 115.631 43.2925 116.06C43.4738 116.488 43.276 116.983 42.8474 117.165L27.7461 123.465C27.6472 123.515 27.5318 123.531 27.4164 123.531Z" fill="#1A2D59"/>
<path d="M86.3376 104.86C85.8925 104.86 85.5298 104.514 85.4968 104.085C85.4638 103.623 85.8101 103.227 86.2717 103.194L123.184 100.671C123.662 100.638 124.041 100.984 124.074 101.446C124.107 101.908 123.761 102.304 123.299 102.337L86.3871 104.86C86.3871 104.86 86.3541 104.86 86.3211 104.86H86.3376Z" fill="#1A2D59"/>
<path d="M155.018 110.567C154.623 110.567 154.244 110.353 154.046 109.973C153.766 109.446 153.98 108.786 154.507 108.505C158.514 106.427 161.234 102.007 161.316 97.4874C161.316 96.8937 161.86 96.4813 162.421 96.4153C163.031 96.4153 163.509 96.9266 163.492 97.5204C163.41 102.798 160.195 107.994 155.513 110.435C155.348 110.518 155.183 110.551 155.018 110.551V110.567Z" fill="#1A2D59"/>
<path d="M113.408 29.5325C113.061 29.5325 112.732 29.3675 112.517 29.0707C112.171 28.5758 112.27 27.8996 112.765 27.5532C114.314 26.4316 115.155 24.3534 114.809 22.4566C114.694 21.8628 115.089 21.302 115.683 21.1866C116.276 21.0876 116.837 21.467 116.952 22.0607C117.447 24.7822 116.276 27.7017 114.034 29.3181C113.836 29.45 113.622 29.516 113.391 29.516L113.408 29.5325Z" fill="#1A2D59"/>
<path d="M46.5732 46.0264C46.2105 46.0264 45.8643 45.845 45.65 45.5151C45.3368 45.0038 45.4851 44.3275 45.9962 44.0141C48.1724 42.6452 49.5242 40.0061 49.3759 37.4331C49.3429 36.8393 49.8045 36.3115 50.398 36.2785C51.008 36.2785 51.519 36.7073 51.552 37.3011C51.7499 40.6824 50.0188 44.0471 47.1502 45.845C46.9689 45.9604 46.7711 46.0099 46.5732 46.0099V46.0264Z" fill="#1A2D59"/>
<path d="M197.338 68.4746C196.893 68.4746 196.448 68.4417 196.019 68.3757C195.426 68.2932 195.014 67.7489 195.096 67.1386C195.179 66.5448 195.739 66.116 196.333 66.215C200.075 66.7428 204.015 64.3676 205.301 60.805C205.499 60.2442 206.125 59.9473 206.702 60.1452C207.263 60.3431 207.56 60.9699 207.362 61.5472C205.894 65.6212 201.674 68.4746 197.371 68.4746H197.338Z" fill="#1A2D59"/>
<path d="M143.099 153.154C142.407 153.154 141.714 153.055 141.038 152.874C140.461 152.709 140.132 152.099 140.296 151.522C140.461 150.944 141.055 150.614 141.648 150.779C144.055 151.472 146.924 150.301 148.177 148.14C148.474 147.612 149.149 147.448 149.661 147.744C150.188 148.041 150.353 148.718 150.056 149.229C148.638 151.67 145.869 153.154 143.083 153.154H143.099Z" fill="#1A2D59"/>
<path d="M22.5036 136.562C21.9431 136.562 21.465 136.133 21.4155 135.572C21.366 134.978 21.8112 134.434 22.4047 134.384C25.2897 134.12 27.7956 131.25 27.6472 128.348C27.6143 127.754 28.0759 127.226 28.6859 127.209C29.2794 127.209 29.8069 127.638 29.8234 128.249C30.0377 132.323 26.6581 136.199 22.6025 136.578C22.5695 136.578 22.5366 136.578 22.5036 136.578V136.562Z" fill="#1A2D59"/>
<path d="M74.2533 119.029C73.7423 119.029 73.2806 118.666 73.1817 118.138C73.0663 117.544 73.4455 116.967 74.039 116.851C77.534 116.175 80.2048 112.612 79.8751 109.066C79.8256 108.472 80.2542 107.928 80.8642 107.879C81.4412 107.829 82.0018 108.258 82.0512 108.868C82.4799 113.487 79.0013 118.121 74.4512 118.996C74.3852 118.996 74.3193 119.012 74.2368 119.012L74.2533 119.029Z" fill="#1A2D59"/>
<path d="M231.662 104.514C231.662 108.06 228.777 110.946 225.233 110.946C221.688 110.946 218.803 108.06 218.803 104.514C218.803 100.968 221.688 98.0812 225.233 98.0812C228.777 98.0812 231.662 100.968 231.662 104.514Z" fill="#6BCCE3"/>
<path d="M225.233 112.035C221.078 112.035 217.715 108.654 217.715 104.514C217.715 100.374 221.095 96.9926 225.233 96.9926C229.371 96.9926 232.75 100.374 232.75 104.514C232.75 108.654 229.371 112.035 225.233 112.035ZM225.233 99.1698C222.282 99.1698 219.891 101.561 219.891 104.514C219.891 107.466 222.282 109.858 225.233 109.858C228.184 109.858 230.574 107.466 230.574 104.514C230.574 101.561 228.184 99.1698 225.233 99.1698Z" fill="#1A2D59"/>
<path d="M199.234 6.02865C199.234 8.65119 197.107 10.7789 194.486 10.7789C191.865 10.7789 189.738 8.65119 189.738 6.02865C189.738 3.40612 191.865 1.2784 194.486 1.2784C197.107 1.2784 199.234 3.40612 199.234 6.02865Z" fill="#6BCCE3"/>
<path d="M194.486 11.884C191.271 11.884 188.65 9.26146 188.65 6.04515C188.65 2.82883 191.271 0.206299 194.486 0.206299C197.701 0.206299 200.322 2.82883 200.322 6.04515C200.322 9.26146 197.701 11.884 194.486 11.884ZM194.486 2.367C192.458 2.367 190.826 4.01639 190.826 6.02865C190.826 8.04091 192.475 9.6903 194.486 9.6903C196.497 9.6903 198.146 8.04091 198.146 6.02865C198.146 4.01639 196.497 2.367 194.486 2.367Z" fill="#1A2D59"/>
<path d="M196.431 101.429C199.828 101.429 202.581 98.675 202.581 95.2773C202.581 91.8795 199.828 89.125 196.431 89.125C193.035 89.125 190.282 91.8795 190.282 95.2773C190.282 98.675 193.035 101.429 196.431 101.429Z" fill="#6BCCE3"/>
<path d="M196.431 102.518C192.442 102.518 189.194 99.2688 189.194 95.2773C189.194 91.2857 192.442 88.0364 196.431 88.0364C200.421 88.0364 203.669 91.2857 203.669 95.2773C203.669 99.2688 200.421 102.518 196.431 102.518ZM196.431 90.2136C193.645 90.2136 191.37 92.4898 191.37 95.2773C191.37 98.0647 193.645 100.341 196.431 100.341C199.218 100.341 201.493 98.0647 201.493 95.2773C201.493 92.4898 199.218 90.2136 196.431 90.2136Z" fill="#1A2D59"/>
<path d="M25.3227 98.9719C30.294 98.9719 34.3241 94.9399 34.3241 89.9662C34.3241 84.9925 30.294 80.9605 25.3227 80.9605C20.3514 80.9605 16.3213 84.9925 16.3213 89.9662C16.3213 94.9399 20.3514 98.9719 25.3227 98.9719Z" fill="#6BCCE3"/>
<path d="M25.3227 100.044C19.7669 100.044 15.2332 95.5247 15.2332 89.9497C15.2332 84.3748 19.7504 79.8554 25.3227 79.8554C30.895 79.8554 35.4122 84.3748 35.4122 89.9497C35.4122 95.5247 30.895 100.044 25.3227 100.044ZM25.3227 82.0491C20.9704 82.0491 17.4259 85.5953 17.4259 89.9497C17.4259 94.3041 20.9704 97.8503 25.3227 97.8503C29.675 97.8503 33.2195 94.3041 33.2195 89.9497C33.2195 85.5953 29.675 82.0491 25.3227 82.0491Z" fill="#1A2D59"/>
<path d="M20.9374 86.7994C19.8988 87.69 19.5526 89.29 20.1131 90.527C20.8385 92.1104 23.0476 92.8197 24.5479 91.9455C26.0646 91.0713 26.5592 88.8281 25.5535 87.3932C24.5479 85.9582 22.2563 85.6778 20.9374 86.8159V86.7994Z" fill="white"/>
<path d="M165.284 34.5232C167.264 26.099 162.043 17.6643 153.623 15.6838C145.203 13.7033 136.772 18.9269 134.792 27.3511C132.813 35.7753 138.034 44.21 146.454 46.1905C154.874 48.171 163.305 42.9474 165.284 34.5232Z" fill="#6BCCE3"/>
<path d="M150.023 47.6923C140.791 47.6923 133.273 40.1711 133.273 30.9345C133.273 21.6979 140.791 14.1766 150.023 14.1766C159.255 14.1766 166.773 21.6979 166.773 30.9345C166.773 40.1711 159.255 47.6923 150.023 47.6923ZM150.023 16.3538C141.995 16.3538 135.45 22.8854 135.45 30.9345C135.45 38.9835 141.978 45.5151 150.023 45.5151C158.068 45.5151 164.597 38.9835 164.597 30.9345C164.597 22.8854 158.068 16.3538 150.023 16.3538Z" fill="#1A2D59"/>
<path d="M143.61 20.5763C140.989 21.8628 138.582 24.007 137.889 26.844C137.214 29.6809 138.862 33.1447 141.731 33.656C143.198 33.9199 144.698 33.4251 146.034 32.7653C148.292 31.6602 150.303 30.1098 151.952 28.213C152.974 27.0419 153.881 25.6234 153.864 24.073C153.864 21.9123 151.985 20.065 149.875 19.5537C147.781 19.0424 145.539 19.6361 143.594 20.5763H143.61Z" fill="white"/>
<path d="M192.805 155.134C200.061 155.134 205.944 149.248 205.944 141.988C205.944 134.728 200.061 128.842 192.805 128.842C185.548 128.842 179.665 134.728 179.665 141.988C179.665 149.248 185.548 155.134 192.805 155.134Z" fill="#6BCCE3"/>
<path d="M192.805 156.239C184.957 156.239 178.577 149.856 178.577 142.005C178.577 134.153 184.957 127.77 192.805 127.77C200.652 127.77 207.032 134.153 207.032 142.005C207.032 149.856 200.652 156.239 192.805 156.239ZM192.805 129.947C186.161 129.947 180.753 135.357 180.753 142.005C180.753 148.652 186.161 154.062 192.805 154.062C199.448 154.062 204.856 148.652 204.856 142.005C204.856 135.357 199.448 129.947 192.805 129.947Z" fill="#1A2D59"/>
<path d="M184.199 145.798C185.683 146.243 187.265 145.369 188.386 144.314C189.507 143.242 190.431 141.922 191.766 141.114C193.728 139.91 196.53 139.827 197.668 137.832C198.558 136.265 197.833 134.137 196.398 133.065C194.964 131.993 193.019 131.778 191.255 132.059C187.133 132.685 183.49 135.803 182.22 139.778C181.495 142.038 181.94 145.155 184.199 145.831V145.798Z" fill="white"/>
</g>
</svg>
