<svg width="178" height="205" viewBox="0 0 178 205" fill="none" xmlns="http://www.w3.org/2000/svg">
<g id="Vector">
<path d="M92.4457 2.55831L80.7893 160.379L82.9461 160.538L94.6025 2.7173L92.4457 2.55831Z" fill="#1A2D59"/>
<path d="M137.055 179.546C135.417 178.482 133.484 177.974 131.599 177.516C125.537 176.043 119.295 174.815 113.839 171.803C108.743 168.988 104.319 164.274 103.304 158.61L101.206 159.167L98.2081 159.952L96.1109 160.509C97.9951 165.943 96.4549 172.229 93.3911 177.172C90.0978 182.475 85.2644 186.6 80.6932 190.84C79.2677 192.166 77.8259 193.541 76.9247 195.276C76.0236 197.011 75.7287 199.171 76.6298 200.89C78.1863 203.836 82.2169 204.213 85.5266 203.984C93.7351 203.411 100.944 202.216 108.645 200.35V200.383C109.202 200.235 109.726 200.088 110.267 199.941C110.808 199.81 111.348 199.679 111.889 199.531V199.499C119.508 197.371 126.373 194.883 133.811 191.364C136.826 189.939 140.152 187.648 140.07 184.325C140.021 182.377 138.694 180.642 137.055 179.578V179.546Z" fill="#1A2D59"/>
<path d="M98.7815 162.277C91.0645 164.29 83.0689 165.19 75.0569 164.847L75.3846 157.383C101.272 158.512 127.11 145.205 141.201 123.484C155.291 101.763 156.913 72.7578 145.313 49.6128C133.713 26.4678 109.513 10.3776 83.6587 8.62617L84.1666 1.16216C112.61 3.07727 139.251 20.7879 152.014 46.2572C164.778 71.7265 162.992 103.645 147.492 127.543C136.335 144.73 118.508 157.121 98.7815 162.277Z" fill="#E33B46"/>
<path d="M78.4157 165.992C77.2852 165.992 76.1383 165.976 75.0078 165.927L73.9264 165.878L74.3524 156.237L75.4338 156.286C100.813 157.399 126.553 144.059 140.3 122.878C154.194 101.468 155.783 72.8887 144.346 50.0875C132.927 27.2698 109.071 11.4252 83.5932 9.69012L82.5118 9.62465L83.1672 0L84.2486 0.0654738C113.069 2.01332 140.054 19.9531 152.981 45.7662C165.908 71.5792 164.106 103.907 148.393 128.116C137.318 145.188 119.328 158.021 99.0437 163.308C92.2441 165.092 85.2972 165.992 78.4157 165.992ZM76.1874 163.799C83.6423 164.028 91.1464 163.144 98.503 161.229C118.263 156.073 135.794 143.584 146.575 126.954C161.878 103.367 163.631 71.8739 151.048 46.7483C138.612 21.9174 112.839 4.58317 85.1825 2.30795L84.822 7.61133C110.644 9.7556 134.68 25.944 146.28 49.1054C158.044 72.5941 156.405 102.008 142.102 124.057C127.946 145.876 102.632 159.249 76.4004 158.479L76.1711 163.783L76.1874 163.799Z" fill="#1A2D59"/>
<path d="M87.1849 146.098C121.985 144.69 149.054 115.364 147.644 80.5973C146.234 45.8307 116.88 18.7886 82.0792 20.1972C47.2788 21.6057 20.2104 50.9314 21.6203 85.6981C23.0302 120.465 52.3845 147.507 87.1849 146.098Z" fill="#6BCCE3"/>
<path d="M84.5926 147.251C55.4448 147.251 29.9507 127.559 22.5777 99.3565C13.6318 65.1628 34.1943 30.0852 68.4212 21.148C73.7462 19.7567 79.2186 19.0529 84.6746 19.0529C113.822 19.0529 139.316 38.7441 146.689 66.947C155.635 101.141 135.073 136.218 100.846 145.155C95.521 146.547 90.0486 147.251 84.5926 147.251ZM84.6746 21.2135C79.3988 21.2135 74.1066 21.901 68.9619 23.2432C35.8982 31.8694 16.024 65.7684 24.6749 98.8C31.8021 126.053 56.4443 145.074 84.5926 145.074C89.8684 145.074 95.1606 144.386 100.305 143.044C133.369 134.418 153.243 100.519 144.592 67.4871C137.465 40.2337 112.823 21.2135 84.6746 21.2135Z" fill="#1A2D59"/>
<path d="M129.224 85.296C135.237 86.36 141.25 87.4075 147.247 88.4715C150.114 67.569 140.005 45.4225 122.326 33.8663C122.834 35.3886 121.752 37.0091 120.425 37.893C119.098 38.7769 117.492 39.1533 116.1 39.939C110.89 42.8853 110.038 50.3166 105.384 54.0977C102.091 56.7822 96.799 57.8625 95.8323 62.0037C94.4233 61.6436 92.9323 61.7418 91.556 62.1838C89.7865 62.7566 89.8684 65.2283 91.6707 65.6866C93.0634 66.0467 94.4233 66.7669 95.5046 67.7163C97.9295 69.8605 99.3877 72.8396 101.321 75.4258C103.238 78.0284 105.991 80.4182 109.218 80.3691C111.43 80.3364 113.577 79.1742 115.756 79.5179C118.033 79.8781 119.721 81.7604 121.687 82.9717C123.948 84.3466 126.619 84.8377 129.224 85.296Z" fill="#1A2D59"/>
<path d="M88.9345 100.175C89.426 99.291 89.8356 98.358 89.7865 97.3432L88.8526 78.5686C88.7215 76.0642 88.5249 73.347 86.8865 71.4319C85.2808 69.5659 82.7084 68.9275 80.3163 68.3874C77.2524 67.6999 74.0575 67.0124 70.9772 67.7163C67.4873 68.5183 64.4562 71.0554 60.9008 71.1537C57.5584 71.2519 54.3962 69.1731 50.9391 70.2534C49.317 70.7608 48.0555 72.234 48.2521 73.9199C48.5142 76.2934 51.1521 77.0299 53.1838 77.9793C59.4754 80.9256 61.8675 88.406 65.6195 94.2332C70.1088 101.173 89.1311 108.801 95.8651 113.597C95.0786 109.456 87.4763 102.859 88.9509 100.175H88.9345Z" fill="#1A2D59"/>
<path d="M91.8182 108.67C91.9492 110.438 92.9487 112.042 93.1125 113.793C93.2764 115.398 92.7357 116.985 92.7684 118.589C92.834 120.799 93.9809 122.829 95.095 124.728C96.4058 126.97 97.7165 129.213 99.0273 131.455C100.125 133.337 102.878 132.994 103.582 130.948C104.877 127.199 106.744 123.647 109.136 120.472C110.595 118.524 112.364 116.363 111.955 113.941C111.545 111.486 109.005 109.816 108.563 107.361C108.186 105.282 109.415 102.958 106.957 101.337C105.974 100.682 104.762 100.453 103.582 100.519C100.748 100.666 97.7165 101.01 95.2753 102.548C93.1944 103.858 91.6052 106.199 91.7854 108.654L91.8182 108.67Z" fill="#1A2D59"/>
<path d="M45.7289 91.4178C47.2362 90.7958 46.8594 88.6188 46.9577 86.9983C47.056 85.1323 48.1374 83.43 48.3668 81.564C48.8255 77.8811 45.9255 74.591 42.7633 72.6268C39.6011 70.6626 35.9638 69.3859 33.2931 66.7833C31.8677 65.392 30.2456 63.4932 28.345 64.0661C26.5919 64.5899 26.1331 66.8324 25.9857 68.6657C25.7727 71.3992 25.658 74.4437 27.4111 76.5389C28.5089 77.8484 30.1309 78.5358 31.54 79.5016C36.1932 82.677 38.487 88.7989 43.6153 91.1559C44.287 91.4669 45.0571 91.6961 45.7289 91.4178Z" fill="#1A2D59"/>
<path d="M62.9325 68.3383C70.9281 67.2743 78.6943 64.5408 85.5921 60.3505C86.1 60.0395 86.5915 59.4993 87.0175 58.8446C88.0825 57.2568 86.5424 55.1781 84.6909 55.6527C77.2524 57.5678 69.7156 59.4338 62.0969 59.041C60.311 58.9428 58.4923 58.7955 56.7719 59.2865C55.0516 59.7776 53.4295 61.038 53.0855 62.7894C52.7414 64.5408 54.1832 66.5705 55.9527 66.3741C57.2799 68.5674 60.3929 68.6657 62.9325 68.3219V68.3383Z" fill="#1A2D59"/>
<path d="M92.6538 46.5682C95.8159 45.7171 99.5352 46.9775 102.239 45.1442C105.335 43.0654 105.204 38.2367 107.908 35.6669C109.284 34.3574 111.414 33.6044 111.955 31.7712C112.577 29.6269 110.546 27.6627 108.596 26.566C102.124 22.9158 94.3086 22.2611 86.9684 23.3578C79.6282 24.4545 72.632 27.1553 65.7342 29.9379C63.8664 30.6908 61.589 32.1967 62.1788 34.1282C62.7686 36.0761 65.5048 36.0433 67.5365 35.7487C71.9439 35.1267 76.466 35.2904 80.8078 36.2234C82.2005 36.518 83.7898 37.0909 84.2486 38.4495C84.7565 39.9718 83.4785 41.5268 82.0858 42.3288C80.6931 43.1309 79.0547 43.6056 77.9733 44.7841C76.892 45.9626 76.8756 48.3197 78.3993 48.8271C79.1694 51.4788 82.9542 51.8389 85.4446 50.6276C87.9351 49.4327 89.9667 47.2721 92.6374 46.5519L92.6538 46.5682Z" fill="#1A2D59"/>
<path d="M90.9989 27.81C77.3999 24.4708 62.4409 27.1225 50.8244 34.9303C39.2079 42.738 31.114 55.5873 29.0823 69.435C27.0507 83.2827 31.1304 97.8997 40.0107 108.719C34.227 93.8403 34.8988 76.5716 41.8294 62.1837C48.76 47.7959 61.8347 36.4853 77.0886 31.7057L91.0153 27.81H90.9989Z" fill="white"/>
<path d="M135.892 103.334C135.794 103.334 135.696 103.318 135.597 103.285C135.171 103.121 134.958 102.647 135.122 102.205C141.971 84.3466 139.595 63.395 128.896 47.534C128.634 47.1575 128.749 46.6337 129.125 46.3718C129.502 46.1099 130.027 46.2081 130.289 46.601C141.266 62.904 143.724 84.4448 136.679 102.81C136.548 103.138 136.236 103.35 135.892 103.35V103.334Z" fill="#1A2D59"/>
<path d="M123.981 119.228C123.702 119.228 123.424 119.08 123.276 118.835C123.03 118.442 123.161 117.935 123.555 117.689C127.454 115.299 130.469 111.616 132.042 107.312C132.206 106.886 132.681 106.657 133.107 106.821C133.533 106.984 133.762 107.459 133.598 107.884C131.894 112.533 128.65 116.511 124.423 119.113C124.292 119.195 124.145 119.244 123.981 119.244V119.228Z" fill="#1A2D59"/>
<path d="M47.7278 42.6398C47.5148 42.6398 47.3018 42.558 47.1543 42.4107C46.8266 42.0833 46.8102 41.5595 47.1543 41.2321C52.6595 35.585 59.5245 31.2965 67.0286 28.8576C67.471 28.7266 67.9297 28.9558 68.0772 29.3977C68.2246 29.8397 67.9789 30.298 67.5365 30.4453C60.2946 32.8024 53.6589 36.9436 48.334 42.3943C48.1701 42.558 47.9571 42.6398 47.7441 42.6398H47.7278Z" fill="#1A2D59"/>
<path d="M38.4378 55.4563C38.274 55.4563 38.1265 55.4072 37.979 55.309C37.6022 55.0471 37.4875 54.5397 37.7497 54.1468L41.0757 49.1545C41.3215 48.778 41.8458 48.6634 42.239 48.9253C42.6158 49.1872 42.7305 49.6946 42.4684 50.0875L39.1423 55.0798C38.9785 55.3254 38.7163 55.4563 38.4542 55.4563H38.4378Z" fill="#1A2D59"/>
<path d="M11.207 55.7509C21.2834 35.9779 39.9452 20.7879 61.3596 14.9117C49.2515 12.1127 35.8982 15.2063 26.2642 23.0631C16.6302 30.92 10.8957 43.3437 11.207 55.7673V55.7509Z" fill="#FAD80C"/>
<path d="M10.2239 60.0722L10.1256 55.7837C9.81429 43.0981 15.7454 30.2325 25.5761 22.2284C33.0146 16.172 42.5339 12.8329 52.3645 12.8329C55.494 12.8329 58.607 13.1766 61.589 13.8804L65.767 14.8462L61.6381 15.9756C40.5678 21.7537 22.0698 36.8126 12.1736 56.2584L10.2239 60.0722ZM52.3645 14.9935C43.0254 14.9935 33.9976 18.1526 26.936 23.9143C18.7602 30.5763 13.4352 40.7411 12.4358 51.2496C22.25 34.5538 38.3067 21.4754 56.6573 15.239C55.2318 15.0917 53.8064 15.0099 52.3482 15.0099L52.3645 14.9935Z" fill="#1A2D59"/>
<path d="M19.989 18.038C11.207 25.0437 5.3905 35.6341 4.16167 46.781C0.163881 43.1309 0.327725 36.4853 3.03115 31.8039C5.73457 27.1062 15.5161 21.0826 19.989 18.038Z" fill="#FAD80C"/>
<path d="M5.01366 49.0235L3.44076 47.5831C-1.13049 43.3928 -0.671723 36.0433 2.09724 31.2474C4.57128 26.9752 12.2392 21.8846 17.3183 18.5127C18.0884 18.0053 18.7929 17.5306 19.3992 17.1214L20.6771 18.8565C12.0589 25.7476 6.4391 35.9615 5.24304 46.912L5.01366 49.0399V49.0235ZM11.7149 24.9946C8.40523 27.4335 5.24304 30.1016 3.96506 32.3277C1.99893 35.7487 1.34356 40.6592 3.44076 44.1784C4.62043 37.2055 7.4877 30.609 11.7313 24.9946H11.7149Z" fill="#1A2D59"/>
<path d="M28.7055 150.852L34.866 163.324L48.6289 165.321L38.6672 175.028L41.0266 188.728L28.7055 182.263L16.3844 188.728L18.7438 175.028L8.76569 165.321L22.545 163.324L28.7055 150.852Z" fill="#FAD80C"/>
<path d="M14.9426 190.709L17.5641 175.404L6.4391 164.568L21.824 162.342L28.7055 148.413L35.5869 162.342L50.9719 164.568L39.8469 175.404L42.4684 190.709L28.7055 183.49L14.9426 190.709ZM28.7055 181.035L39.5847 186.748L37.5039 174.651L46.3023 166.074L34.1451 164.307L28.7055 153.291L23.2659 164.307L11.1087 166.074L19.9071 174.651L17.8263 186.748L28.7055 181.035Z" fill="#1A2D59"/>
<path d="M176.919 13.8641C176.919 18.6928 173.003 22.6048 168.169 22.6048C163.336 22.6048 159.42 18.6928 159.42 13.8641C159.42 9.03539 163.336 5.12333 168.169 5.12333C173.003 5.12333 176.919 9.03539 176.919 13.8641Z" fill="#E33B46"/>
<path d="M168.153 23.7015C162.73 23.7015 158.322 19.2984 158.322 13.8804C158.322 8.46249 162.73 4.05938 168.153 4.05938C173.576 4.05938 177.984 8.46249 177.984 13.8804C177.984 19.2984 173.576 23.7015 168.153 23.7015ZM168.153 6.22001C163.926 6.22001 160.485 9.65738 160.485 13.8804C160.485 18.1035 163.926 21.5409 168.153 21.5409C172.38 21.5409 175.821 18.1035 175.821 13.8804C175.821 9.65738 172.38 6.22001 168.153 6.22001Z" fill="#1A2D59"/>
<path d="M164.417 17.6943C167.563 17.9398 170.709 15.7137 171.528 12.6855C173.33 13.7986 173.855 16.5321 172.577 18.2181C171.315 19.904 165.974 19.102 164.401 17.6943H164.417Z" fill="#1A2D59"/>
</g>
</svg>
