<svg width="223" height="205" viewBox="0 0 223 205" fill="none" xmlns="http://www.w3.org/2000/svg">
<g id="Vector">
<path d="M91.5642 2.50193C84.7537 2.9265 77.883 2.50193 71.1781 1.22822C72.6396 18.8024 74.1162 36.3765 75.5777 53.9507C78.2748 54.2994 80.9718 54.6482 83.6689 54.9969C85.1154 37.347 87.7522 19.788 91.5793 2.50193H91.5642Z" fill="#FAD80C"/>
<path d="M84.5729 56.119L74.6586 54.8301L70.0782 0L71.3589 0.242611C77.9734 1.48599 84.799 1.91056 91.5039 1.50116L92.8298 1.42534L92.5436 2.72938C88.7466 19.9244 86.0947 37.5441 84.6483 55.1031L84.5579 56.1493L84.5729 56.119ZM76.5119 53.056L82.7649 53.8597C84.1963 36.9982 86.7276 20.0912 90.3287 3.56335C84.2867 3.83629 78.2296 3.45721 72.2931 2.44127L76.5119 53.056Z" fill="#1A2D59"/>
<path d="M69.8371 63.3215C67.9235 65.5808 66.7633 68.7954 67.8181 71.5703C68.6468 73.769 70.7411 75.3004 72.9862 75.9828C75.2312 76.6651 77.6269 76.559 79.9473 76.3012C82.6142 75.9979 85.3564 75.4369 87.496 73.8144C89.6356 72.192 90.9766 69.2352 90.0273 66.7181C89.1685 64.4284 86.7878 63.1699 84.6031 62.0933C81.8458 60.7438 78.8624 59.3488 75.8188 59.7733C73.4683 60.1069 71.3739 61.5171 69.8371 63.3367V63.3215Z" fill="#FAD80C"/>
<path d="M76.8886 77.4991C75.3216 77.4991 73.9505 77.3171 72.6999 76.9381C69.9426 76.1192 67.7729 74.239 66.8839 71.9342C65.5881 68.5225 67.1702 64.9137 69.0686 62.6847C70.9219 60.5163 73.2574 59.1365 75.6681 58.7877C78.8775 58.3328 81.8156 59.6217 85.025 61.1987C87.4809 62.4117 89.967 63.7916 90.9314 66.3693C92.1066 69.4626 90.3739 72.8743 88.0686 74.6181C85.6427 76.4528 82.6443 77.0139 80.0377 77.302C78.8172 77.4384 77.8077 77.4991 76.8735 77.4991H76.8886ZM76.979 60.6983C76.6475 60.6983 76.301 60.7134 75.9695 60.7741C74.0409 61.047 72.1424 62.1843 70.6055 63.9887C69.144 65.7021 67.7729 68.6438 68.7673 71.2215C69.4303 72.9501 71.1178 74.3755 73.2875 75.0275C74.3573 75.3459 75.5325 75.4976 76.9037 75.4976C77.7625 75.4976 78.7117 75.4369 79.8569 75.3156C82.2074 75.0578 84.8743 74.5726 86.9084 73.026C88.5809 71.7523 89.9218 69.2352 89.1082 67.082C88.4 65.1866 86.366 64.0797 84.1812 63.0031C81.6197 61.7445 79.3144 60.7134 76.979 60.7134V60.6983Z" fill="#1A2D59"/>
<path d="M80.6856 73.3747C80.2185 73.3747 79.7665 73.314 79.3144 73.1776C78.9076 73.0563 78.6816 72.6165 78.8021 72.2071C78.9227 71.7977 79.3446 71.5703 79.7665 71.6916C80.8664 72.0252 82.1622 71.7219 83.2018 70.8728C84.2565 70.0085 84.814 68.8106 84.7085 67.6582C84.6633 67.2336 84.9798 66.8545 85.4016 66.8242C85.8085 66.7787 86.2002 67.0971 86.2303 67.5217C86.381 69.1897 85.6126 70.9031 84.1661 72.0858C83.1265 72.935 81.891 73.3899 80.6705 73.3899L80.6856 73.3747Z" fill="#1A2D59"/>
<path d="M81.5595 45.1863C81.5595 45.1863 81.4691 45.1863 81.4389 45.1863C81.0171 45.1105 80.7458 44.7163 80.8061 44.2917C82.8553 31.873 84.2867 19.1966 85.0551 6.61115C85.0852 6.18658 85.4619 5.85299 85.8687 5.88332C86.2906 5.91365 86.607 6.27756 86.592 6.70213C85.8235 19.3331 84.3771 32.0702 82.3128 44.5343C82.2526 44.9134 81.9211 45.1863 81.5595 45.1863Z" fill="#1A2D59"/>
<path d="M41.2393 90.6304C38.497 92.3136 35.7548 93.9967 33.0125 95.6798C28.1156 94.1483 25.0117 88.9018 24.8159 83.7615C24.6049 78.606 26.8349 73.6325 29.7881 69.4323C32.7413 65.2169 36.4328 61.5929 39.7175 57.6353C41.6461 55.3002 43.4843 52.7679 44.1925 49.8263C44.9157 46.8846 44.2829 43.4274 41.9625 41.5017C38.9189 38.9846 34.2631 39.9095 30.9332 42.0172C24.7405 45.9293 21.0942 53.5716 21.9079 60.8802C18.8793 62.1691 15.7905 63.4731 12.5209 63.7764C9.25131 64.0797 5.71049 63.2609 3.46545 60.8347C0.406782 57.514 0.632792 52.2979 1.86831 47.946C4.71604 37.999 12.0689 29.4621 21.4559 25.2012C30.8277 20.9555 42.068 21.0768 51.3495 25.5197C57.1655 28.3097 62.5897 33.4955 62.7856 39.9702C62.9513 45.4593 59.3352 50.3418 55.267 54.0113C51.1988 57.6656 46.4676 60.6679 43.1227 65.0046C37.593 72.192 36.8095 82.7456 41.2393 90.6759V90.6304Z" fill="#FAD80C"/>
<path d="M33.1481 96.7715L32.7112 96.6351C27.7088 95.0732 24.0474 89.7964 23.8064 83.7918C23.6105 79.0154 25.3583 73.9812 28.9594 68.8409C30.8729 66.1115 33.118 63.5945 35.2877 61.1683C36.4931 59.8037 37.7587 58.4086 38.934 56.9833C40.7571 54.7846 42.5351 52.3737 43.2131 49.5685C43.7857 47.1879 43.424 44.0036 41.3146 42.2447C40.29 41.3804 38.9792 40.9558 37.4272 40.9558C35.5137 40.9558 33.344 41.6381 31.4455 42.836C25.5391 46.5662 22.1038 53.7535 22.8873 60.7286L22.9777 61.4716L22.2846 61.7597C19.2259 63.0637 16.0617 64.3981 12.6113 64.7317C12.1442 64.7772 11.6772 64.7923 11.2101 64.7923C7.72951 64.7923 4.71604 63.6096 2.74222 61.4564C-1.09995 57.2866 -0.0452384 50.9938 0.919071 47.5973C3.8572 37.347 11.3909 28.5978 21.049 24.2308C30.5113 19.9396 42.4145 20.0609 51.7864 24.5492C57.4517 27.2634 63.5691 32.707 63.7951 39.8792C63.9759 46.1113 59.6365 51.3729 55.945 54.6937C54.5889 55.9067 53.1575 57.0743 51.7563 58.1812C48.8483 60.5163 46.091 62.7301 43.9213 65.5505C38.6176 72.4194 37.8793 82.5333 42.1132 90.1149L42.5803 90.964L33.1481 96.7564V96.7715ZM37.4272 38.9543C39.4312 38.9543 41.2091 39.5608 42.5953 40.698C45.0362 42.7299 46.0458 46.3994 45.1568 50.0386C44.3883 53.238 42.4447 55.8764 40.4859 58.257C39.2956 59.6975 38.0299 61.1228 36.7944 62.4875C34.6548 64.8682 32.455 67.3398 30.6017 69.9782C27.2568 74.7546 25.6446 79.3642 25.8103 83.7009C26.0062 88.6137 28.9594 93.102 32.892 94.5577L39.9133 90.2514C35.815 82.0936 36.7492 71.5703 42.3392 64.3374C44.6596 61.32 47.6278 58.9394 50.5057 56.6345C51.8768 55.5276 53.2931 54.3904 54.604 53.2228C57.9791 50.1902 61.9569 45.4289 61.7911 39.955C61.5952 33.6926 56.0505 28.8404 50.9276 26.384C42.068 22.1383 30.8127 22.0321 21.8627 26.0807C12.7168 30.2203 5.60501 38.4842 2.83262 48.1886C1.97379 51.1606 1.02454 56.68 4.18868 60.1221C5.75569 61.8355 8.31713 62.806 11.195 62.806C11.6018 62.806 12.0086 62.7908 12.4155 62.7453C15.3234 62.4724 18.126 61.3503 20.823 60.2131C20.2806 52.7376 24.0474 45.1408 30.3757 41.1378C32.5756 39.7427 35.137 38.9543 37.4122 38.9543H37.4272Z" fill="#1A2D59"/>
<path d="M53.1274 99.1521C51.8919 96.999 49.5112 95.6494 47.0553 95.331C44.5993 95.0126 42.0981 95.6494 39.8832 96.7412C35.9205 98.6973 32.7112 102.17 31.0538 106.294C29.8634 109.266 29.6374 113.042 31.9126 115.286C33.344 116.696 35.4986 117.166 37.4875 116.954C39.4764 116.741 41.3598 115.923 43.1679 115.074C46.3471 113.572 49.5564 111.844 51.7412 109.069C53.926 106.294 54.8451 102.23 53.0973 99.1673L53.1274 99.1521Z" fill="#FAD80C"/>
<path d="M36.5684 118C34.4288 118 32.5153 117.287 31.2195 115.998C28.5074 113.33 28.8841 109.054 30.1346 105.915C31.8674 101.563 35.2575 97.8936 39.4463 95.8314C42.0529 94.5425 44.7048 94.0118 47.1909 94.3303C50.129 94.7093 52.6754 96.3166 54.0013 98.6518C56.0957 102.336 54.7848 106.84 52.5548 109.675C50.2646 112.587 46.9046 114.421 43.6199 115.968C41.7666 116.832 39.7928 117.712 37.6231 117.939C37.2766 117.97 36.9451 118 36.5985 118H36.5684ZM45.7745 96.256C44.0569 96.256 42.1584 96.7412 40.3202 97.651C36.5684 99.5009 33.5399 102.776 31.9879 106.673C31.0236 109.084 30.6168 112.602 32.6208 114.573C33.5549 115.498 34.9562 115.998 36.5835 115.998C36.8547 115.998 37.1259 115.998 37.3971 115.953C39.2655 115.756 41.0735 114.952 42.7611 114.164C46.3019 112.496 49.0592 110.888 50.9878 108.447C52.7357 106.218 53.8958 102.518 52.2686 99.6677C51.2591 97.9088 49.225 96.6351 46.9347 96.347C46.543 96.3015 46.1663 96.2711 45.7745 96.2711V96.256Z" fill="#1A2D59"/>
<path d="M37.9847 114.042C37.6683 114.042 37.367 113.845 37.2615 113.527C37.1259 113.133 37.3218 112.678 37.7286 112.541C40.5311 111.54 43.7103 110.388 45.9252 108.174C47.8689 106.233 49.1044 102.791 47.5826 100.244C47.3566 99.88 47.4771 99.4099 47.8388 99.1825C48.2004 98.9702 48.6675 99.0763 48.8935 99.4403C50.8372 102.685 49.4208 106.84 47.0101 109.251C44.5541 111.722 41.2091 112.92 38.2409 113.982C38.1505 114.012 38.0751 114.027 37.9847 114.027V114.042Z" fill="#1A2D59"/>
<path d="M5.09272 57.9537C4.70097 57.9537 4.36949 57.6505 4.33936 57.2562C3.28464 46.5813 9.61292 35.679 19.3766 31.3575C19.7683 31.1907 20.2203 31.3575 20.3861 31.7517C20.5518 32.146 20.3861 32.6009 19.9943 32.7677C10.8183 36.8314 4.88178 47.0666 5.87623 57.0894C5.92143 57.514 5.60501 57.8931 5.18313 57.9386C5.15299 57.9386 5.13793 57.9386 5.10779 57.9386L5.09272 57.9537Z" fill="#1A2D59"/>
<path d="M46.4827 54.072C46.332 54.072 46.1814 54.0265 46.0458 53.9355C45.6992 53.6929 45.6088 53.2077 45.8499 52.8589C49.0291 48.2645 47.8689 41.0316 43.409 37.6957C43.0624 37.4379 43.0022 36.9527 43.2583 36.6191C43.5144 36.2704 43.9966 36.2097 44.3281 36.4675C49.5112 40.3493 50.807 48.4313 47.1155 53.7535C46.9649 53.9658 46.7238 54.0871 46.4827 54.0871V54.072Z" fill="#1A2D59"/>
<path d="M122.603 8.70367L125.662 14.9357C125.993 15.6181 126.641 16.1033 127.394 16.2095L134.235 17.2102C136.133 17.4832 136.887 19.8335 135.516 21.1678L130.574 26.02C130.031 26.5508 129.775 27.3241 129.911 28.0822L131.086 34.936C131.402 36.8314 129.428 38.2871 127.741 37.3773L121.624 34.1475C120.946 33.7988 120.147 33.7988 119.469 34.1475L113.352 37.3773C111.664 38.2719 109.675 36.8314 110.007 34.936L111.167 28.0822C111.302 27.3241 111.046 26.5659 110.504 26.02L105.562 21.1678C104.191 19.8183 104.944 17.4832 106.842 17.2102L113.683 16.2095C114.436 16.1033 115.084 15.6181 115.416 14.9357L118.474 8.70367C119.318 6.97507 121.774 6.97507 122.618 8.70367H122.603Z" fill="#FAD80C"/>
<path d="M128.796 38.651C128.253 38.651 127.741 38.5145 127.259 38.2567L121.141 35.027C120.765 34.8299 120.298 34.8299 119.921 35.027L113.804 38.2567C112.432 38.9846 110.715 38.6207 109.735 37.4531C109.118 36.7101 108.846 35.7245 109.012 34.7541L110.187 27.9003C110.263 27.4757 110.112 27.036 109.811 26.7327L104.869 21.8805C103.965 20.9859 103.648 19.6818 104.04 18.4688C104.432 17.2557 105.456 16.3914 106.707 16.2095L113.547 15.2087C113.969 15.148 114.346 14.8751 114.542 14.4809L117.601 8.24878C118.158 7.11154 119.303 6.39887 120.569 6.39887C121.834 6.39887 122.98 7.11154 123.537 8.24878L126.596 14.4809C126.792 14.8751 127.153 15.148 127.575 15.2087L134.416 16.2095C135.666 16.3914 136.691 17.2557 137.083 18.4688C137.474 19.6818 137.158 20.9859 136.254 21.8805L131.312 26.7327C130.995 27.036 130.86 27.4757 130.935 27.9003L132.11 34.7541C132.276 35.7245 132.02 36.7101 131.387 37.4531C130.754 38.2113 129.82 38.651 128.856 38.651H128.796ZM120.539 32.8738C121.066 32.8738 121.608 33.0103 122.076 33.2529L128.193 36.4827C128.735 36.7708 129.428 36.6191 129.82 36.1491C130.061 35.8458 130.167 35.4819 130.106 35.0876L128.931 28.2339C128.75 27.1573 129.097 26.0504 129.88 25.2922L134.823 20.44C135.184 20.0761 135.305 19.5757 135.154 19.0905C134.988 18.6052 134.597 18.2717 134.099 18.1958L127.259 17.1951C126.189 17.0434 125.255 16.3611 124.773 15.3755L121.714 9.14341C121.262 8.21845 119.815 8.21845 119.363 9.14341L116.305 15.3755C115.823 16.3611 114.888 17.0434 113.819 17.1951L106.978 18.1958C106.481 18.2717 106.074 18.6052 105.923 19.0905C105.773 19.5757 105.893 20.0912 106.255 20.44L111.197 25.2922C111.98 26.0504 112.327 27.1573 112.146 28.2339L110.971 35.0876C110.911 35.4819 111.001 35.861 111.257 36.1491C111.649 36.6191 112.327 36.7708 112.884 36.4675L119.002 33.2377C119.469 32.9951 120.011 32.8587 120.539 32.8587V32.8738Z" fill="#1A2D59"/>
<path d="M169.734 5.56489L171.09 8.32459C171.436 9.03726 172.129 9.53765 172.913 9.65896L175.941 10.0987C177.93 10.3868 178.714 12.8432 177.282 14.2534L175.098 16.4066C174.525 16.9676 174.269 17.7713 174.404 18.5598L174.917 21.5924C175.248 23.5788 173.184 25.0951 171.406 24.155L168.694 22.7296C167.986 22.3506 167.142 22.3506 166.449 22.7296L163.737 24.155C161.959 25.0951 159.895 23.5788 160.226 21.5924L160.738 18.5598C160.874 17.7713 160.618 16.9676 160.045 16.4066L157.86 14.2534C156.429 12.8432 157.213 10.3868 159.201 10.0987L162.23 9.65896C163.014 9.53765 163.692 9.05243 164.053 8.32459L165.409 5.56489C166.298 3.76047 168.86 3.76047 169.749 5.56489H169.734Z" fill="#FAD80C"/>
<path d="M172.521 25.4438C171.964 25.4438 171.436 25.3074 170.924 25.0496L168.212 23.6243C167.805 23.412 167.293 23.412 166.886 23.6243L164.174 25.0496C162.757 25.8078 160.979 25.4287 159.97 24.2156C159.322 23.4423 159.051 22.4264 159.232 21.4256L159.744 18.393C159.819 17.9229 159.669 17.4528 159.337 17.1192L157.152 14.9661C156.218 14.0411 155.887 12.6916 156.293 11.4482C156.7 10.1897 157.755 9.29504 159.051 9.11308L162.079 8.67335C162.546 8.6127 162.938 8.30943 163.149 7.88486L164.505 5.12516C165.078 3.94243 166.253 3.2146 167.564 3.2146C168.875 3.2146 170.05 3.94243 170.623 5.12516L171.979 7.88486C172.19 8.30943 172.581 8.59753 173.048 8.67335L176.077 9.11308C177.373 9.29504 178.427 10.2048 178.834 11.4482C179.241 12.7068 178.91 14.0563 177.975 14.9661L175.791 17.1192C175.459 17.4528 175.308 17.9229 175.384 18.393L175.896 21.4256C176.062 22.4264 175.791 23.4423 175.158 24.2156C174.495 25.0041 173.546 25.4438 172.536 25.4438H172.521ZM167.564 21.4408C168.121 21.4408 168.664 21.5772 169.146 21.835L171.858 23.2603C172.461 23.5788 173.199 23.412 173.621 22.9116C173.892 22.5932 173.998 22.1838 173.922 21.7592L173.41 18.7265C173.214 17.6045 173.591 16.4672 174.389 15.6787L176.574 13.5256C176.966 13.1313 177.101 12.5855 176.936 12.0547C176.77 11.524 176.333 11.1601 175.791 11.0843L172.762 10.6446C171.647 10.4778 170.683 9.78026 170.186 8.76433L168.83 6.00463C168.332 5.00386 166.765 5.00386 166.283 6.00463L164.927 8.76433C164.43 9.78026 163.466 10.4778 162.351 10.6446L159.322 11.0843C158.78 11.1601 158.343 11.524 158.177 12.0547C158.011 12.5855 158.147 13.1313 158.539 13.5256L160.723 15.6787C161.522 16.4672 161.899 17.6045 161.703 18.7265L161.19 21.7592C161.115 22.1838 161.221 22.5932 161.492 22.9116C161.914 23.4271 162.652 23.5788 163.255 23.2603L165.967 21.835C166.449 21.5772 167.006 21.4408 167.564 21.4408Z" fill="#1A2D59"/>
<path d="M221.91 149.423L174.364 46.2901L97.706 80.1585C91.3129 85.3485 92.4929 92.9259 94.8829 100.74L139.814 203.68L220.311 166.52L217.249 159.239L221.91 149.423Z" fill="#6BCCE3"/>
<path d="M139.321 205L93.9717 101.141C91.507 93.1038 90.2075 84.9926 97.0786 79.4171L97.3027 79.2836L174.857 45L223 149.437L218.325 159.269L221.581 167.009L139.306 205H139.321ZM98.2288 81.0037C92.702 85.5709 93.2696 92.0955 95.8239 100.459L140.322 202.361L219.027 166.016L216.159 159.209L220.819 149.423L173.871 47.5802L98.2288 81.0037Z" fill="#1A2D59"/>
<path d="M219.445 146.605L142.682 180.74L97.706 80.1585L174.364 46.2901L219.445 146.605Z" fill="#1A2D59"/>
<path d="M142.174 182.045L96.4065 79.6691L174.872 45L220.744 147.095L219.848 147.495L142.174 182.045ZM99.0056 80.6626L143.175 179.436L218.13 146.101L173.871 47.595L99.0056 80.6626Z" fill="#1A2D59"/>
<path d="M159.397 77.3707C158.889 72.8184 159.621 68.1474 161.473 63.9657C164.849 65.3744 168.046 67.228 170.914 69.4671C167.015 63.0019 164.087 55.9731 162.25 48.6627C156.723 50.4421 151.346 52.6515 146.178 55.2762C148.881 60.4662 151.988 61.7118 153.721 65.6858C155.454 69.6599 156.858 73.8415 159.397 77.3707Z" fill="#E33B46"/>
<path d="M160.786 81.0037L158.59 77.9342C156.559 75.1019 155.23 71.8842 153.945 68.7553C153.571 67.8508 153.198 66.9462 152.81 66.0565C152.018 64.2475 150.928 63.0463 149.643 61.6525C148.284 60.1548 146.73 58.4643 145.296 55.7062L144.833 54.8313L145.714 54.3865C150.913 51.747 156.38 49.5079 161.921 47.7136L162.922 47.3874L163.176 48.4106C164.984 55.6469 167.866 62.557 171.72 68.9481L174.469 73.5153L170.256 70.2234C167.702 68.2363 164.909 66.5607 161.951 65.241C160.443 69.0519 159.89 73.1742 160.338 77.2521L160.756 80.9889L160.786 81.0037ZM147.537 55.6914C148.702 57.7081 149.927 59.0426 151.122 60.3475C152.451 61.8156 153.721 63.1946 154.632 65.3003C155.02 66.2048 155.394 67.1094 155.782 68.0287C156.559 69.8971 157.336 71.7952 158.277 73.6043C158.396 70.164 159.173 66.7386 160.577 63.5653L160.965 62.6756L161.862 63.0463C163.968 63.9212 165.999 64.9741 167.926 66.1752C165.193 61.0148 163.057 55.5579 161.563 49.9082C156.768 51.4949 152.063 53.4374 147.537 55.6766V55.6914Z" fill="#1A2D59"/>
<path d="M220.192 151.795L143.414 186.034C143.414 186.034 138.754 193.686 142.204 198.312L219.908 162.872L220.207 151.795H220.192Z" fill="white"/>
<path d="M141.876 199.543L141.398 198.905C137.604 193.804 142.354 185.871 142.563 185.53L142.727 185.263L221.222 150.268L220.864 163.51L141.876 199.543ZM144.116 186.791C143.429 188.021 140.666 193.419 142.578 197.067L218.922 162.234L219.161 153.323L144.101 186.791H144.116Z" fill="#1A2D59"/>
<path d="M173.558 74.1826C155.812 81.7007 138.067 89.2187 120.321 96.722C123.727 106.479 127.805 116.014 132.54 125.222C149.912 116.236 167.956 108.511 186.463 102.12C181.579 93.089 177.277 83.747 173.572 74.1826H173.558Z" fill="#E33B46"/>
<path d="M132.107 126.557L131.658 125.682C126.923 116.474 122.801 106.835 119.395 97.063L119.096 96.203L174.125 72.9073L174.499 73.8563C178.173 83.3614 182.49 92.7183 187.33 101.69L187.882 102.698L186.792 103.069C168.389 109.415 150.3 117.171 133.003 126.112L132.122 126.572L132.107 126.557ZM121.546 97.2706C124.757 106.361 128.581 115.302 132.958 123.888C149.718 115.272 167.224 107.769 185.029 101.571C180.533 93.1335 176.485 84.3698 173.005 75.4727L121.546 97.2558V97.2706Z" fill="#1A2D59"/>
<path d="M129.313 101.541C129.015 101.541 128.731 101.363 128.611 101.067C128.462 100.681 128.641 100.236 129.044 100.088L166.642 85.2447C167.03 85.0964 167.478 85.2743 167.627 85.6747C167.777 86.0602 167.598 86.5051 167.194 86.6534L129.597 101.497C129.507 101.526 129.403 101.556 129.313 101.556V101.541Z" fill="#1A2D59"/>
<path d="M132.331 108.57C132.047 108.57 131.763 108.407 131.644 108.125C131.464 107.74 131.644 107.295 132.017 107.132L160.487 94.2753C160.876 94.0973 161.324 94.2753 161.488 94.646C161.667 95.0315 161.488 95.4764 161.115 95.6395L132.644 108.496C132.54 108.54 132.435 108.57 132.331 108.57Z" fill="#1A2D59"/>
<path d="M135.467 114.294C135.154 114.294 134.87 114.101 134.75 113.79C134.616 113.404 134.81 112.959 135.214 112.826C143.847 109.756 152.332 106.034 160.443 101.793C160.816 101.601 161.279 101.734 161.473 102.105C161.667 102.475 161.533 102.935 161.16 103.128C152.989 107.413 144.43 111.15 135.736 114.249C135.647 114.279 135.572 114.294 135.482 114.294H135.467Z" fill="#1A2D59"/>
</g>
</svg>
