<svg width="172" height="225" viewBox="0 0 172 225" fill="none" xmlns="http://www.w3.org/2000/svg">
<g id="Vector">
<path d="M13.6398 218.377C14.8618 221.78 18.5607 223.96 22.1935 223.91C25.8099 223.86 29.2281 221.846 31.5399 219.071C25.9255 215.867 20.6083 212.118 15.6874 207.907C13.8049 211.061 12.4013 214.909 13.6398 218.377Z" fill="#6BCCE3"/>
<path d="M22.0449 225C17.8011 225 13.9205 222.424 12.5995 218.741C11.4435 215.52 12.1701 211.672 14.7296 207.345L15.3902 206.222L16.381 207.065C21.2358 211.21 26.52 214.926 32.0684 218.097L33.1912 218.741L32.3656 219.748C29.674 222.969 25.876 224.934 22.1935 224.983H22.0449V225ZM15.9846 209.592C14.2838 212.861 13.8379 215.686 14.6636 218.014C15.6544 220.789 18.7588 222.82 22.0614 222.82V223.91L22.177 222.82C24.8521 222.787 27.6429 221.499 29.8226 219.335C24.9677 216.478 20.3276 213.208 16.0012 209.608L15.9846 209.592Z" fill="#1A2D59"/>
<path d="M44.5027 218.922C46.7154 215.504 41.2991 208.089 32.4151 202.341C23.5311 196.594 14.548 194.712 12.3353 198.13C12.005 198.642 10.7665 200.541 10.4528 201.053C8.24002 204.472 13.6563 211.887 22.5403 217.634C31.4243 223.382 40.4074 225.264 42.6202 221.846C42.9505 221.334 44.1889 219.434 44.5027 218.922Z" fill="#6BCCE3"/>
<path d="M38.3268 224.653C33.9674 224.653 27.841 222.374 21.9459 218.576C17.5369 215.735 13.8049 212.383 11.4601 209.146C8.90054 205.628 8.20699 202.556 9.54455 200.492L11.394 197.635C12.0876 196.561 13.5242 195.356 16.6452 195.356C21.0046 195.356 27.131 197.635 33.0261 201.45C37.4351 204.29 41.167 207.643 43.5119 210.88C46.0879 214.397 46.765 217.469 45.4274 219.534L43.5449 222.457C42.9009 223.464 41.4643 224.653 38.3268 224.653ZM16.6286 197.536C15.4397 197.536 13.904 197.75 13.26 198.741L11.3775 201.664C10.6014 202.87 11.2949 205.182 13.227 207.841C15.4397 210.863 18.957 214.018 23.1348 216.726C28.6171 220.26 34.4297 222.457 38.3268 222.457C39.5157 222.457 41.0515 222.242 41.6955 221.251L43.578 218.328C44.3541 217.122 43.6605 214.81 41.7285 212.151C39.5157 209.129 35.9985 205.975 31.8207 203.266C26.3383 199.732 20.5257 197.536 16.6286 197.536Z" fill="#1A2D59"/>
<path d="M48.2677 213.109C50.4804 209.691 45.0641 202.275 36.1801 196.528C27.2961 190.781 18.313 188.898 16.1002 192.317C15.77 192.829 14.5315 194.745 14.2177 195.24C12.005 198.659 17.4213 206.074 26.3053 211.821C35.1893 217.568 44.1724 219.451 46.3852 216.032C46.7154 215.52 47.9539 213.621 48.2677 213.109Z" fill="#6BCCE3"/>
<path d="M42.0753 218.84C37.7158 218.84 31.5895 216.561 25.6943 212.746C21.2853 209.905 17.5534 206.553 15.2085 203.316C12.6325 199.798 11.9555 196.726 13.293 194.662L15.1755 191.739C15.8195 190.731 17.2561 189.542 20.3936 189.542C24.7531 189.542 30.8794 191.821 36.7746 195.62C46.4677 201.879 51.8015 209.658 49.1924 213.704L47.3429 216.561C46.6494 217.634 45.2127 218.823 42.0918 218.823L42.0753 218.84ZM20.3771 191.722C19.1882 191.722 17.6525 191.937 17.0084 192.928L15.126 195.851C14.3498 197.057 15.0434 199.369 16.9754 202.028C19.1882 205.05 22.7055 208.204 26.8833 210.913C32.3656 214.447 38.1782 216.643 42.0753 216.643C43.2642 216.643 44.7999 216.429 45.4439 215.438L47.3264 212.515C48.9282 210.021 44.5027 203.217 35.5691 197.453C30.0868 193.919 24.2742 191.722 20.3771 191.722Z" fill="#1A2D59"/>
<path d="M52.0161 207.296C54.2289 203.877 48.8126 196.462 39.9286 190.715C31.0445 184.968 22.0614 183.085 19.8487 186.504C19.5184 187.016 18.28 188.931 17.9662 189.427C15.7535 192.845 21.1697 200.261 30.0538 206.008C38.9378 211.755 47.9209 213.638 50.1336 210.219C50.4639 209.707 51.7024 207.808 52.0161 207.296Z" fill="#6BCCE3"/>
<path d="M45.8402 213.027C41.4808 213.027 35.3545 210.748 29.4593 206.933C25.0503 204.092 21.3349 200.739 18.9735 197.503C16.3975 193.985 15.7204 190.913 17.058 188.849L18.9405 185.926C19.5845 184.918 21.0211 183.729 24.1586 183.729C28.518 183.729 34.6444 186.008 40.5396 189.807C44.9485 192.647 48.6805 196 51.0253 199.237C53.5849 202.754 54.2784 205.826 52.9409 207.89L51.0584 210.814C50.4144 211.821 48.9777 213.01 45.8402 213.01V213.027ZM24.1421 185.909C22.9531 185.909 21.4174 186.124 20.7734 187.115L18.8909 190.038C18.1148 191.243 18.8084 193.555 20.7404 196.214C22.9531 199.237 26.4704 202.391 30.6482 205.099C36.1306 208.634 41.9432 210.83 45.8402 210.83C47.0292 210.83 48.5649 210.615 49.2089 209.625L51.0914 206.701C51.8675 205.496 51.174 203.184 49.2419 200.525C47.0292 197.503 43.5119 194.348 39.3341 191.64C33.8518 188.106 28.0392 185.909 24.1421 185.909Z" fill="#1A2D59"/>
<path d="M55.7811 201.483C57.9938 198.064 52.5776 190.649 43.6935 184.902C34.8095 179.154 25.8264 177.272 23.6137 180.69C23.2834 181.202 22.0449 183.118 21.7312 183.613C19.5184 187.032 24.9347 194.447 33.8187 200.194C42.7028 205.942 51.6859 207.824 53.8986 204.406C54.2289 203.894 55.4674 201.995 55.7811 201.483Z" fill="#6BCCE3"/>
<path d="M49.5887 207.213C45.2293 207.213 39.1029 204.934 33.2078 201.119C28.7988 198.279 25.0833 194.926 22.722 191.689C20.1624 188.172 19.4689 185.1 20.8065 183.035L22.6889 180.112C23.3329 179.105 24.7696 177.916 27.9071 177.916C32.2665 177.916 38.3929 180.195 44.288 183.993C53.9812 190.252 59.3149 198.031 56.7058 202.077L54.8233 205C54.1793 206.008 52.7427 207.197 49.6052 207.197L49.5887 207.213ZM27.8906 180.096C26.7016 180.096 25.1659 180.31 24.5219 181.301L22.6394 184.225C21.8633 185.43 22.5403 187.742 24.4889 190.401C26.7016 193.423 30.2189 196.578 34.3967 199.286C39.879 202.82 45.6916 205.017 49.5887 205.017C50.7776 205.017 52.3134 204.802 52.9574 203.811L54.8399 200.888C56.4416 198.394 52.0161 191.59 43.0826 185.826C37.6002 182.292 31.7876 180.096 27.8906 180.096Z" fill="#1A2D59"/>
<path d="M65.4743 196.38C68.2154 192.135 61.2304 182.722 49.8529 175.372C38.4754 168.023 27.0319 165.513 24.2907 169.757C23.8779 170.385 22.3422 172.763 21.9459 173.391C19.2047 177.635 26.1897 187.049 37.5672 194.398C48.9447 201.747 60.3883 204.257 63.1294 200.013C63.5422 199.385 65.078 197.007 65.4743 196.38Z" fill="#6BCCE3"/>
<path d="M57.8783 203.167C52.3959 203.167 44.5687 200.228 36.9727 195.323C24.7035 187.395 17.8506 177.718 21.0376 172.813L23.3825 169.179C24.1421 168.007 25.8264 166.603 29.5419 166.603C35.0242 166.603 42.8514 169.543 50.4639 174.448C62.7166 182.375 69.5695 192.053 66.399 196.958L64.0542 200.591C63.2946 201.763 61.6102 203.167 57.8948 203.167H57.8783ZM29.5253 168.783C28.0227 168.783 26.0411 169.064 25.1989 170.352L22.8376 173.985C20.7734 177.189 26.5365 185.992 38.1286 193.473C45.2953 198.097 52.8418 200.971 57.8618 200.971C59.3644 200.971 61.346 200.69 62.1882 199.402L64.533 195.768C66.5972 192.565 60.8341 183.762 49.2419 176.281C42.0753 171.657 34.5123 168.783 29.5088 168.783H29.5253Z" fill="#1A2D59"/>
<path d="M61.6432 192.432C60.124 194.778 51.5868 191.937 42.5541 186.107C33.5215 180.277 27.4282 173.638 28.9474 171.293C30.4666 168.948 39.0038 171.789 48.0365 177.619C57.0691 183.448 63.1624 190.087 61.6432 192.432Z" fill="#6BCCE3"/>
<path d="M59.447 194.348C55.6985 194.348 48.8456 191.475 41.9597 187.016C33.6371 181.648 25.7273 174.249 28.0227 170.699C28.5841 169.823 29.6409 169.378 31.1271 169.378C34.8756 169.378 41.7285 172.251 48.6144 176.71C53.0564 179.584 56.9535 182.738 59.5791 185.595C62.601 188.882 63.6083 191.392 62.5515 193.01C61.99 193.886 60.9332 194.332 59.447 194.332V194.348ZM31.1271 171.574C30.351 171.574 29.9547 171.756 29.8556 171.888C29.129 173.011 33.1582 178.725 43.1486 185.182C49.6052 189.361 56.1609 192.152 59.4635 192.152C60.2396 192.152 60.6359 191.97 60.735 191.838C60.9167 191.574 60.7846 190.104 57.9939 187.082C55.4839 184.357 51.7354 181.318 47.442 178.543C40.9854 174.365 34.4297 171.574 31.1271 171.574Z" fill="#1A2D59"/>
<path d="M30.5492 169.493C39.3011 181.087 50.1006 189.129 64.3018 191.309L66.7293 186.553C72.674 174.91 83.6221 166.702 96.4197 164.027C105.304 162.177 113.874 159.303 121.569 154.547C134.829 146.339 144.902 131.261 143.036 115.77C141.798 105.514 135.638 96.464 128.257 89.2469C116.516 77.769 100.68 69.8418 84.2661 70.1391C67.8521 70.4364 51.2896 80.0316 45.1632 95.2584C40.1928 107.628 42.3725 121.517 42.6863 134.845C42.967 147.528 38.3103 161.087 30.5326 169.493H30.5492Z" fill="white"/>
<path d="M64.9128 192.515L64.1367 192.399C50.6951 190.335 39.4167 183.052 29.674 170.154L29.129 169.427L29.7565 168.75C37.2369 160.658 41.8936 147.363 41.6129 134.878C41.5469 132.12 41.3982 129.296 41.2661 126.554C40.7212 115.902 40.1432 104.87 44.1724 94.8455C50.1502 79.9655 66.6302 69.3629 84.2661 69.0491H85.1743C100.416 69.0491 116.401 76.1175 129.033 88.4707C137.801 97.042 143.02 106.439 144.142 115.654C146.174 132.516 134.565 147.809 122.164 155.488C115.113 159.848 106.773 163.003 96.6674 165.117C84.0515 167.743 73.5161 175.752 67.72 187.065L64.9293 192.515H64.9128ZM31.9528 169.559C41.0184 181.285 51.4051 188.023 63.6909 190.12L65.755 186.074C71.8483 174.167 82.9451 165.744 96.2051 162.986C106.063 160.938 114.171 157.883 121.008 153.655C132.815 146.339 143.878 131.839 141.963 115.935C140.906 107.232 135.919 98.2806 127.497 90.0561C115.261 78.0993 99.8379 71.2456 85.1578 71.2456H84.2991C67.5219 71.5594 51.851 81.6005 46.2035 95.6878C42.356 105.266 42.9009 116.051 43.4459 126.472C43.5945 129.23 43.7266 132.07 43.7926 134.861C44.0733 147.545 39.4662 161.054 31.9693 169.592L31.9528 169.559Z" fill="#1A2D59"/>
<path d="M117.722 147.792C117.408 147.792 117.094 147.611 116.962 147.297C116.764 146.868 116.962 146.372 117.375 146.191C123.501 143.4 128.554 138.544 131.593 132.533C134.631 126.521 135.523 119.568 134.119 112.979C134.02 112.517 134.317 112.071 134.763 111.988C135.209 111.905 135.671 112.186 135.754 112.632C137.24 119.601 136.282 126.934 133.079 133.292C129.875 139.651 124.541 144.77 118.068 147.726C117.953 147.776 117.837 147.809 117.722 147.809V147.792Z" fill="#1A2D59"/>
<path d="M107.384 153.606C107.071 153.606 106.773 153.441 106.625 153.143C106.41 152.73 106.592 152.219 107.005 152.02L112.041 149.494C112.454 149.279 112.966 149.461 113.164 149.873C113.379 150.286 113.197 150.798 112.784 150.996L107.748 153.523C107.632 153.589 107.5 153.606 107.368 153.606H107.384Z" fill="#1A2D59"/>
<path d="M53.139 180.855C57.0196 180.608 59.3975 176.611 61.0818 173.11C63.3606 168.37 65.6559 163.614 67.9347 158.874C69.0411 156.562 70.1805 154.184 70.3291 151.64C70.4777 149.097 69.4044 146.29 67.1091 145.167C65.0945 144.176 62.601 144.704 60.7185 145.91C58.836 147.132 57.4324 148.949 56.0618 150.732C52.5445 155.307 49.0438 159.881 45.5265 164.456C43.7431 166.768 41.8606 169.46 42.323 172.35C42.7193 174.761 44.6678 176.611 46.5998 178.114C48.5154 179.6 50.7281 181.037 53.1555 180.872L53.139 180.855Z" fill="#FAD80C"/>
<path d="M52.7757 181.962C50.1336 181.962 47.8218 180.443 45.9228 178.956C43.8587 177.354 41.6955 175.339 41.2496 172.515C40.7212 169.245 42.7358 166.289 44.6513 163.779L55.1866 150.055C56.5242 148.304 58.0599 146.323 60.124 144.985C62.5019 143.449 65.4247 143.119 67.5879 144.176C70.4612 145.579 71.5841 148.965 71.419 151.707C71.2538 154.514 70.0154 157.074 68.9255 159.353L62.0726 173.589C60.2727 177.338 57.6306 181.665 53.2051 181.945C53.0565 181.945 52.9243 181.945 52.7757 181.945V181.962ZM64.7642 145.728C63.6248 145.728 62.3863 146.124 61.2965 146.818C59.5461 147.941 58.2085 149.692 56.904 151.376L46.3687 165.1C44.6513 167.346 43 169.741 43.3798 172.152C43.7101 174.233 45.5265 175.884 47.2439 177.222C48.9447 178.543 50.9263 179.881 53.0565 179.749C56.326 179.534 58.4397 176.033 60.091 172.614L66.9439 158.379C68.0008 156.182 69.0906 153.92 69.2227 151.558C69.3383 149.543 68.5787 147.082 66.6137 146.124C66.0687 145.86 65.4412 145.712 64.7642 145.712V145.728Z" fill="#1A2D59"/>
<path d="M77.6114 123.433C77.3802 122.062 76.6041 120.724 76.9178 119.387C77.2481 117.966 78.7838 117.058 80.2369 117.025C81.7066 116.992 83.0937 117.653 84.3322 118.429C85.7853 119.337 87.1724 120.46 87.899 121.996C88.6421 123.532 88.576 125.563 87.3706 126.769C86.1816 127.991 83.7872 127.892 82.9946 126.389C77.4462 134.812 71.8979 143.218 66.3329 151.64C65.6064 152.747 64.6321 153.969 63.3111 153.87C62.0065 153.771 61.1809 152.285 61.313 150.98C61.4286 149.675 62.2212 148.552 62.9808 147.495C66.9109 142.012 70.841 136.513 74.7546 131.03C76.3729 128.767 78.0737 126.174 77.5949 123.433H77.6114Z" fill="#FAD80C"/>
<path d="M63.4762 154.96H63.2285C62.4359 154.894 61.6928 154.498 61.1313 153.837C60.4543 153.044 60.124 151.938 60.2231 150.881C60.3717 149.246 61.3295 147.925 62.0891 146.868L73.8629 130.402C75.4151 128.222 76.9178 125.894 76.5215 123.631C76.4554 123.218 76.3233 122.822 76.1912 122.409C75.894 121.435 75.5472 120.328 75.8279 119.139C76.3068 117.091 78.3875 115.968 80.1874 115.935C82.1525 115.935 83.8038 116.827 84.8771 117.504C86.8752 118.743 88.1302 120.014 88.8568 121.534C89.8475 123.615 89.5503 126.092 88.1302 127.545C86.8917 128.817 84.5468 129.031 83.1267 128.14L67.2081 152.252C66.366 153.523 65.177 154.977 63.4266 154.977L63.4762 154.96ZM80.336 118.115C79.3122 118.132 78.1893 118.71 77.9747 119.634C77.826 120.246 78.0407 120.939 78.2884 121.748C78.437 122.244 78.5856 122.739 78.6682 123.235C79.2131 126.34 77.4627 129.098 75.6298 131.657L63.856 148.123C63.212 149.015 62.4854 150.039 62.3863 151.079C62.3368 151.541 62.5019 152.07 62.7992 152.433C62.9808 152.648 63.179 152.763 63.3936 152.78L63.4597 153.87V152.78C64.1862 152.78 64.9128 151.789 65.4082 151.029L83.0772 124.242L83.9359 125.861C84.3322 126.604 85.9009 126.67 86.578 125.976C87.4697 125.068 87.4036 123.515 86.8917 122.442C86.3633 121.319 85.356 120.328 83.7377 119.337C82.3836 118.495 81.2938 118.099 80.3195 118.099L80.336 118.115Z" fill="#1A2D59"/>
<path d="M70.2796 153.903C70.0649 153.903 69.8502 153.82 69.6851 153.655C69.3548 153.325 69.3548 152.797 69.6851 152.466C81.3433 140.592 94.5207 130.254 108.821 121.748C109.217 121.517 109.729 121.633 109.977 122.046C110.208 122.442 110.076 122.954 109.68 123.202C95.495 131.641 82.4497 141.88 70.8905 153.655C70.7254 153.82 70.5107 153.903 70.2961 153.903H70.2796Z" fill="#1A2D59"/>
<path d="M61.2139 146.603C61.0983 146.603 60.9827 146.587 60.8671 146.521C60.4378 146.323 60.2561 145.827 60.4543 145.414C66.8118 131.377 71.9639 116.711 75.7454 101.782C75.861 101.336 76.3068 101.055 76.7692 101.171C77.215 101.286 77.4958 101.749 77.3802 102.195C73.5657 117.207 68.3806 131.971 61.99 146.091C61.8579 146.405 61.5442 146.587 61.2304 146.587L61.2139 146.603Z" fill="#1A2D59"/>
<path d="M76.7031 103.334C75.7289 103.334 74.7381 102.872 74.0445 102.079C73.4005 101.336 73.0868 100.411 73.2024 99.5192C73.4005 97.9007 74.9858 96.5796 76.7527 96.5796C77.3471 96.5796 77.9086 96.7447 78.404 97.042C79.5104 97.7356 80.1544 99.0733 79.9892 100.361C79.8241 101.666 78.8829 102.789 77.6444 103.202C77.3472 103.301 77.0499 103.351 76.7362 103.351L76.7031 103.334ZM76.7362 98.2641C75.927 98.2641 74.9693 98.8586 74.8537 99.7339C74.8041 100.147 74.9693 100.593 75.2995 100.973C75.6793 101.402 76.2077 101.666 76.7031 101.666C76.8352 101.666 76.9839 101.65 77.0994 101.6C77.7269 101.402 78.2058 100.807 78.2884 100.163C78.371 99.5192 78.0407 98.8256 77.4792 98.4788C77.2646 98.3467 77.0004 98.2806 76.7197 98.2806L76.7362 98.2641Z" fill="#1A2D59"/>
<path d="M111.43 124.506C110.538 124.506 109.63 124.11 108.97 123.433C108.309 122.772 107.962 121.93 107.979 121.071C108.012 119.089 110.126 117.405 112.091 117.834C113.164 118.082 114.089 118.858 114.502 119.899C114.865 120.807 114.766 121.847 114.254 122.756C113.742 123.664 112.9 124.292 111.942 124.473C111.76 124.506 111.595 124.523 111.414 124.523L111.43 124.506ZM111.43 119.436C110.538 119.436 109.663 120.246 109.647 121.088C109.647 121.484 109.828 121.914 110.159 122.244C110.571 122.673 111.149 122.888 111.661 122.789C112.107 122.706 112.536 122.376 112.801 121.914C113.065 121.451 113.114 120.906 112.949 120.493C112.751 119.981 112.272 119.568 111.727 119.453C111.628 119.436 111.529 119.42 111.43 119.42V119.436Z" fill="#1A2D59"/>
<path d="M53.75 112.318C57.3003 96.2328 70.9566 82.8721 87.1064 79.6847C77.9912 75.1927 66.1348 77.0754 58.869 84.1768C51.6033 91.2783 49.4566 103.103 53.75 112.318Z" fill="#6BCCE3"/>
<path d="M21.5826 216.974C25.5127 219.946 30.2189 221.895 35.0902 222.605C37.5177 222.952 40.1763 222.952 42.1909 221.565C43.578 220.607 44.4862 219.137 45.3614 217.7L54.5922 202.457C48.697 199.749 42.8018 197.04 36.9067 194.332C38.3763 195.19 37.9635 197.651 36.5269 198.543C35.0902 199.435 33.2078 199.154 31.606 198.609C33.7197 198.956 35.1233 201.565 34.2481 203.514C33.3729 205.463 30.4831 206.14 28.8318 204.786C30.8959 205.38 31.8041 208.27 30.5492 210.021C29.2942 211.771 26.4374 211.937 24.8687 210.483C26.6356 211.293 27.4777 213.687 26.6025 215.421C25.7273 217.155 23.3164 217.932 21.5991 216.99L21.5826 216.974Z" fill="#1A2D59"/>
<path d="M106.195 219.121L92.8034 185.496L97.1628 184.142L115.641 213.555L106.195 219.121Z" fill="#FAD80C"/>
<path d="M105.651 220.706L91.3337 184.803L97.6252 182.854L117.16 213.918L105.651 220.706ZM94.24 186.173L106.724 217.519L114.105 213.159L96.6674 185.414L94.24 186.173Z" fill="#1A2D59"/>
<path d="M147.676 202.374C138.181 192.267 128.703 182.144 119.208 172.036L123.485 169.014L154.017 193.39L147.676 202.391V202.374Z" fill="#FAD80C"/>
<path d="M147.792 204.109L117.54 171.871L123.501 167.66L155.47 193.176L147.775 204.109H147.792ZM120.859 172.202L147.544 200.657L152.515 193.605L123.435 170.385L120.859 172.202Z" fill="#1A2D59"/>
<path d="M165.758 163.713L145.629 152.73L142.805 157.256L163.248 176.017L165.758 163.713Z" fill="#FAD80C"/>
<path d="M163.942 178.131L141.401 157.454L145.249 151.294L166.997 163.151L163.942 178.147V178.131ZM144.225 157.057L162.588 173.903L164.553 164.274L146.025 154.167L144.225 157.041V157.057Z" fill="#1A2D59"/>
<path d="M170.844 127.033C165.527 125.877 160.226 124.705 154.909 123.549L154.017 130.369L169.985 139.618L170.844 127.05V127.033Z" fill="#FAD80C"/>
<path d="M170.943 141.434L152.828 130.947L153.968 122.227L171.983 126.174L170.943 141.434ZM155.19 129.791L169.011 137.784L169.688 127.892L155.834 124.853L155.19 129.775V129.791Z" fill="#1A2D59"/>
<path d="M128.092 73.8384C133.359 69.7097 138.809 65.8122 144.423 62.1624L148.964 70.4364L129.644 76.8772L128.092 73.855V73.8384Z" fill="#FAD80C"/>
<path d="M129.099 78.1984L126.721 73.5412L127.431 72.9797C132.715 68.8509 138.231 64.8873 143.845 61.2375L144.836 60.5934L150.566 71.0474L129.116 78.1984H129.099ZM129.479 74.1522L130.189 75.5395L147.379 69.8088L144.043 63.7313C139.073 67.0012 134.185 70.5024 129.479 74.1522Z" fill="#1A2D59"/>
<path d="M105.419 56.0188C109.366 46.9851 113.329 37.9679 117.276 28.9342L126.275 34.0043L109.465 58.3804L105.403 56.0188H105.419Z" fill="#FAD80C"/>
<path d="M109.812 59.8337L104.032 56.4812L116.764 27.3983L127.861 33.6575L109.795 59.8503L109.812 59.8337ZM106.823 55.5729L109.168 56.9436L124.723 34.3842L117.821 30.4866L106.839 55.5729H106.823Z" fill="#1A2D59"/>
<path d="M76.4224 54.8958C75.8445 47.8934 75.5472 40.8746 75.5472 33.8722L83.7047 33.4593L81.4589 55.0279L76.4059 54.9123L76.4224 54.8958Z" fill="#FAD80C"/>
<path d="M82.4497 56.1344L75.4151 55.9692L75.3326 54.9949C74.7546 48.009 74.4574 40.9076 74.4574 33.8722V32.8318L84.9267 32.2868L82.4497 56.1179V56.1344ZM77.4297 53.8388L80.4846 53.9049L82.4992 34.6154L76.6536 34.9127C76.6701 41.2214 76.9343 47.5796 77.4462 53.8388H77.4297Z" fill="#1A2D59"/>
<path d="M45.3356 66.7644C51.9005 60.1988 51.9005 49.5539 45.3356 42.9883C38.7708 36.4227 28.1271 36.4227 21.5623 42.9883C14.9975 49.5539 14.9975 60.1988 21.5623 66.7644C28.1271 73.33 38.7708 73.33 45.3356 66.7644Z" fill="#FAD80C"/>
<path d="M33.4389 72.765C23.5641 72.765 15.5388 64.7387 15.5388 54.8627C15.5388 44.9868 23.5641 36.9605 33.4389 36.9605C43.3138 36.9605 51.3391 44.9868 51.3391 54.8627C51.3391 64.7387 43.3138 72.765 33.4389 72.765ZM33.4389 39.157C24.7696 39.157 17.735 46.2089 17.735 54.8627C17.735 63.5166 24.7861 70.5685 33.4389 70.5685C42.0918 70.5685 49.1429 63.5166 49.1429 54.8627C49.1429 46.2089 42.0918 39.157 33.4389 39.157Z" fill="#1A2D59"/>
<path d="M40.0111 49.9908C40.49 47.9264 41.3322 45.9447 42.4881 44.161C39.0038 41.6177 34.2646 40.858 30.1694 42.2123C26.0576 43.5665 22.6889 46.9686 21.4009 51.0808C23.0357 52.3525 24.6705 53.6406 26.3053 54.9123C29.063 50.4532 35.0572 48.3063 40.0276 49.9908H40.0111Z" fill="white"/>
<path d="M45.6091 54.549C46.6329 58.6447 44.7504 63.2854 41.1836 65.5149C37.6002 67.7444 32.6133 67.3811 29.3932 64.6561C36.015 64.2267 42.2569 60.2631 45.6256 54.549H45.6091Z" fill="#1A2D59"/>
<path d="M96.9388 24.517C103.152 21.9291 106.091 14.7938 103.504 8.57986C100.916 2.36593 93.7815 -0.573562 87.5683 2.01432C81.3551 4.6022 78.416 11.7375 81.0035 17.9514C83.5911 24.1653 90.7256 27.1048 96.9388 24.517Z" fill="#FAD80C"/>
<path d="M92.2584 26.5561C84.9432 26.5561 78.9819 20.5942 78.9819 13.278C78.9819 5.96191 84.9267 0 92.2584 0C99.5902 0 105.535 5.96191 105.535 13.278C105.535 20.5942 99.5737 26.5561 92.2584 26.5561ZM92.2584 2.17998C86.1486 2.17998 81.1617 7.15098 81.1617 13.278C81.1617 19.4051 86.1321 24.3761 92.2584 24.3761C98.3848 24.3761 103.355 19.4051 103.355 13.278C103.355 7.15098 98.3848 2.17998 92.2584 2.17998Z" fill="#1A2D59"/>
<path d="M95.8418 10.5366C96.6509 8.73642 97.4601 6.9528 98.2692 5.15267C95.462 3.83147 92.2089 3.30299 89.2366 4.17829C86.2642 5.05358 83.6717 7.46477 83.0276 10.487L86.578 13.0799C88.5595 10.2228 92.6878 9.08324 95.8418 10.5366Z" fill="white"/>
<path d="M90.376 20.8089C94.4051 19.4216 97.8233 16.3829 99.6893 12.5679C100.416 15.0617 99.5902 17.9353 97.6582 19.6528C95.7097 21.3704 92.7704 21.8493 90.3925 20.8254L90.376 20.8089Z" fill="#1A2D59"/>
<path d="M21.2523 93.9537C21.2523 99.5192 16.7442 104.044 11.1628 104.044C5.58141 104.044 1.07335 99.5357 1.07335 93.9537C1.07335 88.3716 5.58141 83.863 11.1628 83.863C16.7442 83.863 21.2523 88.3716 21.2523 93.9537Z" fill="#FAD80C"/>
<path d="M11.1793 105.118C5.01997 105.118 0 100.097 0 93.9372C0 87.7771 5.01997 82.7565 11.1793 82.7565C17.3387 82.7565 22.3587 87.7771 22.3587 93.9372C22.3587 100.097 17.3387 105.118 11.1793 105.118ZM11.1793 84.953C6.22542 84.953 2.19624 88.9827 2.19624 93.9372C2.19624 98.8917 6.22542 102.921 11.1793 102.921C16.1333 102.921 20.1624 98.8917 20.1624 93.9372C20.1624 88.9827 16.1333 84.953 11.1793 84.953Z" fill="#1A2D59"/>
<path d="M13.904 86.7366C13.7884 86.6045 13.6068 86.555 13.4416 86.5385C11.427 86.2082 9.28034 86.6375 7.56298 87.7275C5.82911 88.8175 4.52458 90.5681 3.96313 92.5334C5.25115 92.9297 6.47312 93.5408 7.57949 94.3005C8.42166 93.3096 9.28034 92.3187 10.3702 91.6251C11.4601 90.9314 12.8306 90.5516 14.0691 90.9314C14.0691 89.6928 14.0361 88.4542 14.0361 87.2156C14.0361 87.0504 14.0361 86.8688 13.9205 86.7366H13.904Z" fill="white"/>
<path d="M16.7607 93.5903C17.3222 95.6878 16.447 98.0989 14.6801 99.3541C12.8967 100.609 10.3372 100.609 8.55376 99.3706C11.8894 98.5779 14.8948 96.464 16.7607 93.5903Z" fill="#1A2D59"/>
</g>
</svg>
