<svg width="275" height="87" viewBox="0 0 275 87" fill="none" xmlns="http://www.w3.org/2000/svg">
<path d="M155 87C155 72.9435 149.363 59.4628 139.33 49.5233C129.297 39.5839 115.689 34 101.5 34C87.3109 34 73.703 39.5839 63.6698 49.5233C53.6366 59.4628 48 72.9435 48 87L155 87Z" fill="#D9D9D9"/>
<path d="M185.591 59.6241C190.249 49.7681 190.765 38.4477 187.024 28.1532C183.283 17.8588 175.592 9.43355 165.643 4.73101C155.694 0.0284815 144.302 -0.566163 133.973 3.0779C123.644 6.72195 115.224 14.3062 110.565 24.1622L185.591 59.6241Z" fill="#D9D9D9"/>
<path d="M274.599 31.7487C268.375 22.798 258.818 16.7095 248.029 14.8224C237.239 12.9353 226.102 15.4043 217.067 21.6862C208.032 27.9682 201.839 37.5485 199.851 48.3196C197.862 59.0907 200.242 70.1702 206.465 79.1209L274.599 31.7487Z" fill="#D9D9D9"/>
<rect y="23.4082" width="40" height="40" transform="rotate(-34.0702 0 23.4082)" fill="#D9D9D9"/>
</svg>
